Barrio.ufo
<glyph name="dollar" format="1">
  <advance width="500"/>
  <unicode hex="0024"/>
  <outline>
    <contour>
      <point x="241" y="-68" type="curve" smooth="yes"/>
      <point x="269" y="-68" type="line" smooth="yes"/>
      <point x="272" y="-68"/>
      <point x="275" y="-65"/>
      <point x="278" y="-65" type="curve"/>
      <point x="277" y="-64"/>
      <point x="277" y="-64"/>
      <point x="278" y="-63" type="curve"/>
      <point x="278" y="-62"/>
      <point x="279" y="-61"/>
      <point x="282" y="-61" type="curve"/>
      <point x="282" y="-44" type="line"/>
      <point x="278" y="-37"/>
      <point x="278" y="-30"/>
      <point x="278" y="-23" type="curve"/>
      <point x="390" y="-5"/>
      <point x="479" y="48"/>
      <point x="479" y="174" type="curve" smooth="yes"/>
      <point x="479" y="181"/>
      <point x="479" y="188"/>
      <point x="478" y="196" type="curve" smooth="yes"/>
      <point x="465" y="330"/>
      <point x="379" y="389"/>
      <point x="276" y="438" type="curve"/>
      <point x="276" y="464" type="line"/>
      <point x="272" y="499"/>
      <point x="272" y="536"/>
      <point x="272" y="571" type="curve"/>
      <point x="269" y="602"/>
      <point x="269" y="635"/>
      <point x="269" y="659" type="curve"/>
      <point x="361" y="651"/>
      <point x="397" y="567"/>
      <point x="424" y="559" type="curve"/>
      <point x="441" y="556"/>
      <point x="454" y="571"/>
      <point x="455" y="587" type="curve"/>
      <point x="458" y="594"/>
      <point x="459" y="601"/>
      <point x="459" y="608" type="curve" smooth="yes"/>
      <point x="459" y="618"/>
      <point x="456" y="627"/>
      <point x="449" y="635" type="curve"/>
      <point x="397" y="686"/>
      <point x="333" y="713"/>
      <point x="269" y="721" type="curve"/>
      <point x="269" y="756" type="line" smooth="yes"/>
      <point x="269" y="769"/>
      <point x="262" y="776"/>
      <point x="249" y="776" type="curve" smooth="yes"/>
      <point x="235" y="776" type="line"/>
      <point x="227" y="772"/>
      <point x="219" y="772"/>
      <point x="208" y="772" type="curve" smooth="yes"/>
      <point x="201" y="772"/>
      <point x="198" y="768"/>
      <point x="198" y="759" type="curve"/>
      <point x="202" y="748"/>
      <point x="202" y="741"/>
      <point x="202" y="729" type="curve" smooth="yes"/>
      <point x="202" y="717" type="line"/>
      <point x="167" y="709"/>
      <point x="128" y="692"/>
      <point x="99" y="671" type="curve"/>
      <point x="52" y="626"/>
      <point x="29" y="575"/>
      <point x="29" y="524" type="curve" smooth="yes"/>
      <point x="29" y="465"/>
      <point x="61" y="407"/>
      <point x="122" y="365" type="curve" smooth="yes"/>
      <point x="145" y="350"/>
      <point x="178" y="331"/>
      <point x="215" y="308" type="curve"/>
      <point x="215" y="204" type="line" smooth="yes"/>
      <point x="215" y="171"/>
      <point x="212" y="142"/>
      <point x="212" y="110" type="curve" smooth="yes"/>
      <point x="212" y="47" type="line"/>
      <point x="152" y="50"/>
      <point x="92" y="81"/>
      <point x="60" y="117" type="curve" smooth="yes"/>
      <point x="55" y="122"/>
      <point x="51" y="123"/>
      <point x="48" y="123" type="curve" smooth="yes"/>
      <point x="44" y="123"/>
      <point x="41" y="119"/>
      <point x="39" y="117" type="curve" smooth="yes"/>
      <point x="28" y="103"/>
      <point x="22" y="92"/>
      <point x="22" y="82" type="curve" smooth="yes"/>
      <point x="22" y="66"/>
      <point x="37" y="52"/>
      <point x="66" y="31" type="curve"/>
      <point x="108" y="-5"/>
      <point x="155" y="-23"/>
      <point x="208" y="-23" type="curve"/>
      <point x="208" y="-26" type="line" smooth="yes"/>
      <point x="207" y="-33"/>
      <point x="207" y="-38"/>
      <point x="207" y="-43" type="curve" smooth="yes"/>
      <point x="207" y="-47"/>
      <point x="207" y="-51"/>
      <point x="208" y="-53" type="curve" smooth="yes"/>
      <point x="212" y="-57"/>
      <point x="215" y="-61"/>
      <point x="219" y="-61" type="curve"/>
      <point x="223" y="-66"/>
      <point x="230" y="-68"/>
    </contour>
    <contour>
      <point x="278" y="54" type="curve"/>
      <point x="278" y="90" type="line" smooth="yes"/>
      <point x="278" y="117"/>
      <point x="277" y="142"/>
      <point x="276" y="171" type="curve"/>
      <point x="276" y="260" type="line"/>
      <point x="314" y="225"/>
      <point x="346" y="187"/>
      <point x="346" y="145" type="curve" smooth="yes"/>
      <point x="346" y="128"/>
      <point x="340" y="111"/>
      <point x="328" y="93" type="curve"/>
      <point x="312" y="73"/>
      <point x="299" y="61"/>
    </contour>
    <contour>
      <point x="208" y="473" type="line"/>
      <point x="172" y="492"/>
      <point x="140" y="525"/>
      <point x="140" y="568" type="curve" smooth="yes"/>
      <point x="140" y="611"/>
      <point x="168" y="638"/>
      <point x="205" y="654" type="curve"/>
      <point x="205" y="594" type="line" smooth="yes"/>
      <point x="205" y="579"/>
      <point x="208" y="556"/>
      <point x="208" y="528" type="curve" smooth="yes"/>
    </contour>
  </outline>
</glyph>
<glyph name="plus" format="1">
  <advance width="500"/>
  <unicode hex="002B"/>
  <outline>
    <contour>
      <point x="285" y="27" type="curve"/>
      <point x="298" y="31"/>
      <point x="305" y="41"/>
      <point x="305" y="72" type="curve" smooth="yes"/>
      <point x="305" y="81"/>
      <point x="305" y="93"/>
      <point x="304" y="110" type="curve" smooth="yes"/>
      <point x="304" y="127"/>
      <point x="304" y="139"/>
      <point x="303" y="146" type="curve"/>
      <point x="302" y="211" type="line" smooth="yes"/>
      <point x="302" y="220"/>
      <point x="301" y="228"/>
      <point x="301" y="236" type="curve" smooth="yes"/>
      <point x="301" y="245"/>
      <point x="303" y="253"/>
      <point x="312" y="256" type="curve"/>
      <point x="461" y="256" type="line" smooth="yes"/>
      <point x="476" y="256"/>
      <point x="487" y="262"/>
      <point x="487" y="278" type="curve" smooth="yes"/>
      <point x="487" y="330" type="line" smooth="yes"/>
      <point x="487" y="340"/>
      <point x="488" y="358"/>
      <point x="461" y="358" type="curve" smooth="yes"/>
      <point x="433" y="358"/>
      <point x="389" y="358"/>
      <point x="362" y="354" type="curve"/>
      <point x="323" y="354" type="line"/>
      <point x="308" y="355"/>
      <point x="298" y="355"/>
      <point x="298" y="358" type="curve"/>
      <point x="296" y="363"/>
      <point x="296" y="368"/>
      <point x="296" y="372" type="curve" smooth="yes"/>
      <point x="296" y="375"/>
      <point x="296" y="378"/>
      <point x="296" y="381" type="curve" smooth="yes"/>
      <point x="297" y="390"/>
      <point x="297" y="397"/>
      <point x="297" y="404" type="curve" smooth="yes"/>
      <point x="297" y="418"/>
      <point x="296" y="429"/>
      <point x="296" y="448" type="curve" smooth="yes"/>
      <point x="296" y="464"/>
      <point x="295" y="473"/>
      <point x="294" y="490" type="curve"/>
      <point x="294" y="509"/>
      <point x="293" y="525"/>
      <point x="293" y="536" type="curve" smooth="yes"/>
      <point x="293" y="552"/>
      <point x="298" y="588"/>
      <point x="270" y="585" type="curve"/>
      <point x="242" y="585"/>
      <point x="225" y="585"/>
      <point x="220" y="584" type="curve" smooth="yes"/>
      <point x="215" y="584"/>
      <point x="209" y="583"/>
      <point x="203" y="581" type="curve"/>
      <point x="198" y="574"/>
      <point x="196" y="549"/>
      <point x="196" y="524" type="curve" smooth="yes"/>
      <point x="196" y="512"/>
      <point x="196" y="499"/>
      <point x="198" y="489" type="curve"/>
      <point x="198" y="411" type="line" smooth="yes"/>
      <point x="198" y="382"/>
      <point x="202" y="361"/>
      <point x="184" y="358" type="curve" smooth="yes"/>
      <point x="161" y="353"/>
      <point x="138" y="359"/>
      <point x="110" y="358" type="curve"/>
      <point x="102" y="359"/>
      <point x="93" y="359"/>
      <point x="83" y="359" type="curve" smooth="yes"/>
      <point x="63" y="359"/>
      <point x="43" y="358"/>
      <point x="35" y="358" type="curve" smooth="yes"/>
      <point x="23" y="358"/>
      <point x="12" y="347"/>
      <point x="15" y="320" type="curve"/>
      <point x="19" y="296"/>
      <point x="19" y="282"/>
      <point x="23" y="267" type="curve"/>
      <point x="23" y="251"/>
      <point x="24" y="247"/>
      <point x="41" y="247" type="curve" smooth="yes"/>
      <point x="62" y="247"/>
      <point x="136" y="251"/>
      <point x="152" y="251" type="curve"/>
      <point x="161" y="253"/>
      <point x="169" y="254"/>
      <point x="176" y="254" type="curve" smooth="yes"/>
      <point x="190" y="254"/>
      <point x="199" y="249"/>
      <point x="199" y="235" type="curve" smooth="yes"/>
      <point x="199" y="66" type="line" smooth="yes"/>
      <point x="199" y="52"/>
      <point x="199" y="31"/>
      <point x="222" y="31" type="curve" smooth="yes"/>
      <point x="242" y="31"/>
      <point x="277" y="27"/>
    </contour>
  </outline>
</glyph>
<glyph name="zero" format="1">
  <advance width="500"/>
  <unicode hex="0030"/>
  <outline>
    <contour>
      <point x="248" y="4" type="curve"/>
      <point x="367" y="4"/>
      <point x="440" y="73"/>
      <point x="456" y="176" type="curve"/>
      <point x="465" y="228"/>
      <point x="469" y="285"/>
      <point x="469" y="347" type="curve" smooth="yes"/>
      <point x="469" y="409"/>
      <point x="467" y="463"/>
      <point x="463" y="510" type="curve" smooth="yes"/>
      <point x="459" y="557"/>
      <point x="445" y="602"/>
      <point x="422" y="643" type="curve" smooth="yes"/>
      <point x="399" y="684"/>
      <point x="351" y="710"/>
      <point x="277" y="721" type="curve"/>
      <point x="220" y="720"/>
      <point x="176" y="712"/>
      <point x="146" y="698" type="curve" smooth="yes"/>
      <point x="116" y="684"/>
      <point x="92" y="662"/>
      <point x="73" y="632" type="curve" smooth="yes"/>
      <point x="37" y="573"/>
      <point x="30" y="474"/>
      <point x="30" y="374" type="curve" smooth="yes"/>
      <point x="30" y="274"/>
      <point x="33" y="210"/>
      <point x="39" y="181" type="curve" smooth="yes"/>
      <point x="46" y="152"/>
      <point x="58" y="121"/>
      <point x="77" y="86" type="curve" smooth="yes"/>
      <point x="95" y="53"/>
      <point x="113" y="31"/>
      <point x="130" y="22" type="curve" smooth="yes"/>
      <point x="147" y="13"/>
      <point x="187" y="7"/>
    </contour>
    <contour>
      <point x="281" y="308" type="curve" smooth="yes"/>
      <point x="306" y="308"/>
      <point x="332" y="327"/>
      <point x="332" y="351" type="curve" smooth="yes"/>
      <point x="332" y="375"/>
      <point x="328" y="416"/>
      <point x="281" y="416" type="curve" smooth="yes"/>
      <point x="258" y="416"/>
      <point x="232" y="410"/>
      <point x="232" y="366" type="curve" smooth="yes"/>
      <point x="232" y="326"/>
      <point x="257" y="308"/>
    </contour>
    <contour>
      <point x="280" y="68" type="curve" smooth="yes"/>
      <point x="249" y="68"/>
      <point x="226" y="77"/>
      <point x="212" y="96" type="curve" smooth="yes"/>
      <point x="198" y="115"/>
      <point x="187" y="135"/>
      <point x="168" y="158" type="curve" smooth="yes"/>
      <point x="149" y="181"/>
      <point x="147" y="219"/>
      <point x="145" y="274" type="curve"/>
      <point x="143" y="371" type="line"/>
      <point x="143" y="429"/>
      <point x="141" y="473"/>
      <point x="141" y="505" type="curve" smooth="yes"/>
      <point x="141" y="533"/>
      <point x="147" y="559"/>
      <point x="159" y="583" type="curve" smooth="yes"/>
      <point x="172" y="609"/>
      <point x="182" y="629"/>
      <point x="201" y="642" type="curve" smooth="yes"/>
      <point x="225" y="658"/>
      <point x="249" y="663"/>
      <point x="268" y="663" type="curve"/>
      <point x="280" y="664"/>
      <point x="291" y="665"/>
      <point x="302" y="665" type="curve" smooth="yes"/>
      <point x="314" y="665"/>
      <point x="325" y="664"/>
      <point x="336" y="663" type="curve" smooth="yes"/>
      <point x="359" y="661"/>
      <point x="381" y="649"/>
      <point x="393" y="628" type="curve" smooth="yes"/>
      <point x="405" y="607"/>
      <point x="420" y="576"/>
      <point x="425" y="537" type="curve" smooth="yes"/>
      <point x="428" y="515"/>
      <point x="433" y="486"/>
      <point x="433" y="449" type="curve" smooth="yes"/>
      <point x="433" y="420"/>
      <point x="433" y="387"/>
      <point x="431" y="349" type="curve" smooth="yes"/>
      <point x="430" y="327"/>
      <point x="433" y="292"/>
      <point x="429" y="246" type="curve" smooth="yes"/>
      <point x="426" y="209"/>
      <point x="415" y="176"/>
      <point x="400" y="151" type="curve" smooth="yes"/>
      <point x="367" y="96"/>
      <point x="316" y="68"/>
    </contour>
  </outline>
</glyph>
<glyph name="three" format="1">
  <advance width="500"/>
  <unicode hex="0033"/>
  <outline>
    <contour>
      <point x="200" y="-29" type="curve" smooth="yes"/>
      <point x="251" y="-29"/>
      <point x="298" y="-27"/>
      <point x="327" y="-16" type="curve" smooth="yes"/>
      <point x="342" y="-11"/>
      <point x="363" y="-1"/>
      <point x="389" y="14" type="curve"/>
      <point x="436" y="46"/>
      <point x="445" y="81"/>
      <point x="460" y="124" type="curve" smooth="yes"/>
      <point x="468" y="146"/>
      <point x="472" y="172"/>
      <point x="472" y="202" type="curve" smooth="yes"/>
      <point x="472" y="324"/>
      <point x="386" y="349"/>
      <point x="363" y="352" type="curve" smooth="yes"/>
      <point x="342" y="355"/>
      <point x="274" y="359"/>
      <point x="254" y="359" type="curve" smooth="yes"/>
      <point x="233" y="360"/>
      <point x="219" y="359"/>
      <point x="214" y="359" type="curve" smooth="yes"/>
      <point x="212" y="359"/>
      <point x="211" y="360"/>
      <point x="211" y="363" type="curve" smooth="yes"/>
      <point x="211" y="367"/>
      <point x="215" y="371"/>
      <point x="223" y="376" type="curve" smooth="yes"/>
      <point x="232" y="382"/>
      <point x="239" y="388"/>
      <point x="246" y="393" type="curve" smooth="yes"/>
      <point x="258" y="404"/>
      <point x="271" y="413"/>
      <point x="278" y="420" type="curve"/>
      <point x="291" y="430"/>
      <point x="356" y="480"/>
      <point x="383" y="499" type="curve"/>
      <point x="406" y="518"/>
      <point x="419" y="524"/>
      <point x="419" y="544" type="curve" smooth="yes"/>
      <point x="420" y="667" type="line" smooth="yes"/>
      <point x="420" y="696"/>
      <point x="421" y="712"/>
      <point x="408" y="712" type="curve" smooth="yes"/>
      <point x="394" y="712"/>
      <point x="322" y="714"/>
      <point x="268" y="714" type="curve" smooth="yes"/>
      <point x="215" y="714"/>
      <point x="171" y="706"/>
      <point x="128" y="706" type="curve" smooth="yes"/>
      <point x="113" y="706"/>
      <point x="96" y="710"/>
      <point x="82" y="710" type="curve" smooth="yes"/>
      <point x="68" y="710"/>
      <point x="58" y="706"/>
      <point x="58" y="690" type="curve" smooth="yes"/>
      <point x="58" y="678"/>
      <point x="59" y="660"/>
      <point x="59" y="640" type="curve" smooth="yes"/>
      <point x="59" y="603"/>
      <point x="58" y="561"/>
      <point x="58" y="548" type="curve" smooth="yes"/>
      <point x="58" y="529"/>
      <point x="54" y="513"/>
      <point x="73" y="513" type="curve" smooth="yes"/>
      <point x="92" y="513"/>
      <point x="272" y="517"/>
      <point x="290" y="517" type="curve" smooth="yes"/>
      <point x="307" y="517"/>
      <point x="331" y="518"/>
      <point x="331" y="510" type="curve" smooth="yes"/>
      <point x="331" y="508"/>
      <point x="330" y="506"/>
      <point x="327" y="503" type="curve" smooth="yes"/>
      <point x="307" y="487"/>
      <point x="161" y="369"/>
      <point x="149" y="357" type="curve" smooth="yes"/>
      <point x="134" y="344"/>
      <point x="128" y="342"/>
      <point x="128" y="335" type="curve" smooth="yes"/>
      <point x="128" y="328"/>
      <point x="128" y="321"/>
      <point x="129" y="316" type="curve" smooth="yes"/>
      <point x="130" y="312"/>
      <point x="132" y="310"/>
      <point x="136" y="310" type="curve" smooth="yes"/>
      <point x="136" y="310"/>
      <point x="137" y="310"/>
      <point x="138" y="310" type="curve" smooth="yes"/>
      <point x="141" y="310"/>
      <point x="150" y="309"/>
      <point x="183" y="314" type="curve" smooth="yes"/>
      <point x="218" y="319"/>
      <point x="258" y="325"/>
      <point x="291" y="325" type="curve" smooth="yes"/>
      <point x="326" y="325"/>
      <point x="373" y="320"/>
      <point x="397" y="300" type="curve" smooth="yes"/>
      <point x="421" y="280"/>
      <point x="439" y="249"/>
      <point x="442" y="202" type="curve"/>
      <point x="442" y="115"/>
      <point x="398" y="57"/>
      <point x="379" y="46" type="curve"/>
      <point x="364" y="39"/>
      <point x="312" y="4"/>
      <point x="250" y="4" type="curve" smooth="yes"/>
      <point x="185" y="4"/>
      <point x="138" y="31"/>
      <point x="114" y="68" type="curve" smooth="yes"/>
      <point x="90" y="105"/>
      <point x="82" y="138"/>
      <point x="78" y="147" type="curve"/>
      <point x="76" y="156"/>
      <point x="72" y="161"/>
      <point x="67" y="161" type="curve" smooth="yes"/>
      <point x="65" y="161"/>
      <point x="64" y="161"/>
      <point x="62" y="160" type="curve" smooth="yes"/>
      <point x="53" y="156"/>
      <point x="42" y="152"/>
      <point x="41" y="149" type="curve"/>
      <point x="38" y="147"/>
      <point x="33" y="146"/>
      <point x="33" y="140" type="curve" smooth="yes"/>
      <point x="33" y="136"/>
      <point x="34" y="131"/>
      <point x="38" y="124" type="curve"/>
      <point x="46" y="103"/>
      <point x="106" y="-29"/>
    </contour>
  </outline>
</glyph>
<glyph name="five" format="1">
  <advance width="500"/>
  <unicode hex="0035"/>
  <outline>
    <contour>
      <point x="176" y="419" type="curve"/>
      <point x="165" y="414"/>
      <point x="150" y="403"/>
      <point x="133" y="387" type="curve"/>
      <point x="133" y="428" type="line"/>
      <point x="134" y="435"/>
      <point x="134" y="446"/>
      <point x="134" y="459" type="curve"/>
      <point x="135" y="487"/>
      <point x="136" y="513"/>
      <point x="136" y="524" type="curve"/>
      <point x="136" y="545"/>
      <point x="141" y="561"/>
      <point x="182" y="561" type="curve"/>
      <point x="215" y="561"/>
      <point x="316" y="565"/>
      <point x="370" y="565" type="curve"/>
      <point x="383" y="565"/>
      <point x="393" y="565"/>
      <point x="399" y="564" type="curve"/>
      <point x="409" y="563"/>
      <point x="419" y="562"/>
      <point x="428" y="562" type="curve"/>
      <point x="445" y="562"/>
      <point x="458" y="566"/>
      <point x="458" y="583" type="curve"/>
      <point x="458" y="607"/>
      <point x="462" y="659"/>
      <point x="462" y="680" type="curve"/>
      <point x="462" y="686"/>
      <point x="463" y="692"/>
      <point x="463" y="697" type="curve"/>
      <point x="463" y="710"/>
      <point x="458" y="720"/>
      <point x="429" y="720" type="curve"/>
      <point x="398" y="720"/>
      <point x="335" y="722"/>
      <point x="286" y="722" type="curve"/>
      <point x="268" y="722"/>
      <point x="252" y="722"/>
      <point x="240" y="721" type="curve"/>
      <point x="199" y="720"/>
      <point x="152" y="717"/>
      <point x="113" y="717" type="curve"/>
      <point x="104" y="717"/>
      <point x="93" y="719"/>
      <point x="82" y="719" type="curve"/>
      <point x="59" y="719"/>
      <point x="36" y="712"/>
      <point x="36" y="674" type="curve"/>
      <point x="36" y="618"/>
      <point x="46" y="446"/>
      <point x="43" y="408" type="curve"/>
      <point x="42" y="386"/>
      <point x="38" y="365"/>
      <point x="38" y="349" type="curve"/>
      <point x="38" y="334"/>
      <point x="40" y="316"/>
      <point x="48" y="316" type="curve"/>
      <point x="57" y="316"/>
      <point x="95" y="315"/>
      <point x="140" y="315" type="curve"/>
      <point x="147" y="314"/>
      <point x="157" y="319"/>
      <point x="170" y="330" type="curve"/>
      <point x="183" y="341"/>
      <point x="197" y="348"/>
      <point x="212" y="353" type="curve"/>
      <point x="227" y="358"/>
      <point x="250" y="362"/>
      <point x="281" y="364" type="curve"/>
      <point x="320" y="361"/>
      <point x="340" y="337"/>
      <point x="345" y="296" type="curve"/>
      <point x="345" y="252"/>
      <point x="343" y="237"/>
      <point x="314" y="210" type="curve"/>
      <point x="285" y="185"/>
      <point x="260" y="172"/>
      <point x="231" y="172" type="curve"/>
      <point x="171" y="172"/>
      <point x="142" y="200"/>
      <point x="138" y="228" type="curve"/>
      <point x="137" y="235"/>
      <point x="137" y="241"/>
      <point x="137" y="247" type="curve"/>
      <point x="137" y="263"/>
      <point x="137" y="271"/>
      <point x="117" y="271" type="curve"/>
      <point x="90" y="271"/>
      <point x="63" y="270"/>
      <point x="51" y="270" type="curve"/>
      <point x="42" y="270"/>
      <point x="38" y="260"/>
      <point x="38" y="242" type="curve"/>
      <point x="38" y="235"/>
      <point x="38" y="226"/>
      <point x="40" y="216" type="curve"/>
      <point x="44" y="183"/>
      <point x="16" y="-40"/>
      <point x="249" y="-40" type="curve"/>
      <point x="438" y="-40"/>
      <point x="455" y="142"/>
      <point x="467" y="202" type="curve"/>
      <point x="470" y="217"/>
      <point x="472" y="230"/>
      <point x="473" y="242" type="curve"/>
      <point x="474" y="255"/>
      <point x="473" y="279"/>
      <point x="469" y="314" type="curve"/>
      <point x="453" y="393"/>
      <point x="396" y="444"/>
      <point x="292" y="449" type="curve"/>
      <point x="237" y="446"/>
      <point x="200" y="431"/>
    </contour>
  </outline>
</glyph>
<glyph name="semicolon" format="1">
  <advance width="231"/>
  <unicode hex="003B"/>
  <outline>
    <contour>
      <point x="73" y="-114" type="curve" smooth="yes"/>
      <point x="82" y="-114"/>
      <point x="90" y="-113"/>
      <point x="95" y="-111" type="curve" smooth="yes"/>
      <point x="106" y="-108"/>
      <point x="113" y="-93"/>
      <point x="116" y="-86" type="curve"/>
      <point x="116" y="-79"/>
      <point x="137" y="-2"/>
      <point x="145" y="24" type="curve" smooth="yes"/>
      <point x="153" y="51"/>
      <point x="161" y="60"/>
      <point x="164" y="75" type="curve"/>
      <point x="168" y="86"/>
      <point x="171" y="104"/>
      <point x="175" y="119" type="curve"/>
      <point x="177" y="123"/>
      <point x="178" y="126"/>
      <point x="178" y="129" type="curve" smooth="yes"/>
      <point x="178" y="138"/>
      <point x="169" y="144"/>
      <point x="161" y="144" type="curve"/>
      <point x="109" y="144" type="line" smooth="yes"/>
      <point x="94" y="144"/>
      <point x="80" y="137"/>
      <point x="76" y="122" type="curve" smooth="yes"/>
      <point x="44" y="9" type="line"/>
      <point x="18" y="-72" type="line"/>
      <point x="18" y="-83"/>
      <point x="25" y="-111"/>
      <point x="40" y="-111" type="curve"/>
      <point x="53" y="-113"/>
      <point x="64" y="-114"/>
    </contour>
    <contour>
      <point x="157" y="283" type="curve" smooth="yes"/>
      <point x="204" y="283"/>
      <point x="222" y="327"/>
      <point x="222" y="363" type="curve" smooth="yes"/>
      <point x="222" y="404"/>
      <point x="190" y="433"/>
      <point x="153" y="433" type="curve" smooth="yes"/>
      <point x="109" y="433"/>
      <point x="80" y="398"/>
      <point x="80" y="363" type="curve" smooth="yes"/>
      <point x="80" y="331"/>
      <point x="109" y="283"/>
    </contour>
  </outline>
</glyph>
<glyph name="less" format="1">
  <advance width="500"/>
  <unicode hex="003C"/>
  <outline>
    <contour>
      <point x="327" y="61" type="curve" smooth="yes"/>
      <point x="334" y="61"/>
      <point x="359" y="62"/>
      <point x="396" y="62" type="curve" smooth="yes"/>
      <point x="433" y="62"/>
      <point x="440" y="63"/>
      <point x="445" y="63" type="curve"/>
      <point x="451" y="65"/>
      <point x="454" y="69"/>
      <point x="454" y="74" type="curve" smooth="yes"/>
      <point x="454" y="78"/>
      <point x="452" y="83"/>
      <point x="448" y="89" type="curve" smooth="yes"/>
      <point x="444" y="94"/>
      <point x="424" y="111"/>
      <point x="388" y="150" type="curve" smooth="yes"/>
      <point x="371" y="169"/>
      <point x="354" y="185"/>
      <point x="338" y="197" type="curve" smooth="yes"/>
      <point x="306" y="222"/>
      <point x="265" y="268"/>
      <point x="233" y="297" type="curve" smooth="yes"/>
      <point x="222" y="308"/>
      <point x="210" y="321"/>
      <point x="199" y="335" type="curve"/>
      <point x="213" y="353"/>
      <point x="227" y="366"/>
      <point x="240" y="375" type="curve" smooth="yes"/>
      <point x="254" y="384"/>
      <point x="272" y="399"/>
      <point x="293" y="418" type="curve"/>
      <point x="316" y="441"/>
      <point x="334" y="458"/>
      <point x="345" y="470" type="curve" smooth="yes"/>
      <point x="356" y="483"/>
      <point x="370" y="496"/>
      <point x="385" y="509" type="curve" smooth="yes"/>
      <point x="417" y="537"/>
      <point x="431" y="552"/>
      <point x="455" y="588" type="curve"/>
      <point x="456" y="591"/>
      <point x="457" y="594"/>
      <point x="457" y="597" type="curve" smooth="yes"/>
      <point x="457" y="605"/>
      <point x="452" y="611"/>
      <point x="439" y="614" type="curve" smooth="yes"/>
      <point x="429" y="617"/>
      <point x="410" y="618"/>
      <point x="381" y="617" type="curve"/>
      <point x="327" y="617" type="line" smooth="yes"/>
      <point x="312" y="617"/>
      <point x="294" y="589"/>
      <point x="267" y="556" type="curve" smooth="yes"/>
      <point x="240" y="525"/>
      <point x="203" y="510"/>
      <point x="162" y="470" type="curve"/>
      <point x="141" y="451"/>
      <point x="115" y="426"/>
      <point x="83" y="395" type="curve" smooth="yes"/>
      <point x="52" y="365"/>
      <point x="36" y="346"/>
      <point x="37" y="338" type="curve"/>
      <point x="34" y="318"/>
      <point x="59" y="294"/>
      <point x="91" y="273" type="curve" smooth="yes"/>
      <point x="107" y="262"/>
      <point x="141" y="235"/>
      <point x="192" y="190" type="curve"/>
      <point x="210" y="176"/>
      <point x="222" y="165"/>
      <point x="229" y="158" type="curve"/>
      <point x="257" y="129" type="line"/>
      <point x="269" y="118"/>
      <point x="280" y="107"/>
      <point x="289" y="97" type="curve" smooth="yes"/>
      <point x="308" y="77"/>
      <point x="316" y="61"/>
    </contour>
  </outline>
</glyph>
<glyph name="equal" format="1">
  <advance width="500"/>
  <unicode hex="003D"/>
  <outline>
    <contour>
      <point x="452" y="476" type="curve"/>
      <point x="429" y="476"/>
      <point x="376" y="472"/>
      <point x="321" y="472" type="curve"/>
      <point x="53" y="472" type="line"/>
      <point x="48" y="473"/>
      <point x="43" y="474"/>
      <point x="39" y="474" type="curve"/>
      <point x="29" y="474"/>
      <point x="22" y="469"/>
      <point x="22" y="450" type="curve"/>
      <point x="22" y="437"/>
      <point x="21" y="427"/>
      <point x="21" y="418" type="curve"/>
      <point x="21" y="413"/>
      <point x="21" y="408"/>
      <point x="22" y="403" type="curve"/>
      <point x="25" y="390"/>
      <point x="28" y="381"/>
      <point x="38" y="381" type="curve"/>
      <point x="40" y="381"/>
      <point x="42" y="381"/>
      <point x="45" y="382" type="curve"/>
      <point x="66" y="382"/>
      <point x="146" y="387"/>
      <point x="168" y="387" type="curve"/>
      <point x="180" y="384"/>
      <point x="219" y="383"/>
      <point x="235" y="380" type="curve"/>
      <point x="251" y="379"/>
      <point x="293" y="378"/>
      <point x="309" y="378" type="curve"/>
      <point x="438" y="378" type="line" smooth="yes"/>
      <point x="450" y="378"/>
      <point x="458" y="376"/>
      <point x="465" y="376" type="curve"/>
      <point x="476" y="376"/>
      <point x="479" y="382"/>
      <point x="479" y="414" type="curve"/>
      <point x="479" y="430"/>
      <point x="478" y="445"/>
      <point x="478" y="454" type="curve"/>
      <point x="475" y="473"/>
      <point x="472" y="476"/>
    </contour>
    <contour>
      <point x="444" y="229" type="curve"/>
      <point x="440" y="229"/>
      <point x="437" y="228"/>
      <point x="433" y="228" type="curve"/>
      <point x="51" y="228" type="line" smooth="yes"/>
      <point x="35" y="228"/>
      <point x="32" y="220"/>
      <point x="32" y="204" type="curve"/>
      <point x="32" y="164" type="line" smooth="yes"/>
      <point x="32" y="155"/>
      <point x="32" y="147"/>
      <point x="45" y="147" type="curve"/>
      <point x="58" y="150"/>
      <point x="117" y="151"/>
      <point x="134" y="151" type="curve"/>
      <point x="283" y="151" type="line" smooth="yes"/>
      <point x="321" y="151"/>
      <point x="396" y="147"/>
      <point x="427" y="147" type="curve"/>
      <point x="458" y="147"/>
      <point x="464" y="151"/>
      <point x="464" y="164" type="curve"/>
      <point x="464" y="208" type="line" smooth="yes"/>
      <point x="464" y="219"/>
      <point x="466" y="229"/>
    </contour>
  </outline>
</glyph>
<glyph name="question" format="1">
  <advance width="396"/>
  <unicode hex="003F"/>
  <outline>
    <contour>
      <point x="378" y="526" type="curve"/>
      <point x="378" y="649"/>
      <point x="314" y="723"/>
      <point x="247" y="723" type="curve"/>
      <point x="160" y="723"/>
      <point x="134" y="717"/>
      <point x="80" y="682" type="curve"/>
      <point x="63" y="671"/>
      <point x="41" y="652"/>
      <point x="22" y="631" type="curve"/>
      <point x="11" y="626"/>
      <point x="33" y="601"/>
      <point x="36" y="598" type="curve"/>
      <point x="61" y="576"/>
      <point x="82" y="550"/>
      <point x="91" y="556" type="curve"/>
      <point x="108" y="571"/>
      <point x="131" y="590"/>
      <point x="148" y="598" type="curve"/>
      <point x="158" y="601"/>
      <point x="168" y="603"/>
      <point x="177" y="603" type="curve"/>
      <point x="199" y="603"/>
      <point x="218" y="594"/>
      <point x="240" y="576" type="curve"/>
      <point x="253" y="563"/>
      <point x="259" y="548"/>
      <point x="259" y="529" type="curve"/>
      <point x="259" y="512"/>
      <point x="254" y="493"/>
      <point x="242" y="471" type="curve"/>
      <point x="224" y="432"/>
      <point x="138" y="349"/>
      <point x="138" y="293" type="curve"/>
      <point x="138" y="264"/>
      <point x="135" y="237"/>
      <point x="135" y="215" type="curve"/>
      <point x="135" y="205"/>
      <point x="136" y="195"/>
      <point x="138" y="187" type="curve"/>
      <point x="138" y="180"/>
      <point x="152" y="173"/>
      <point x="159" y="170" type="curve"/>
      <point x="168" y="162"/>
      <point x="177" y="159"/>
      <point x="187" y="159" type="curve"/>
      <point x="198" y="159"/>
      <point x="209" y="163"/>
      <point x="223" y="167" type="curve"/>
      <point x="230" y="170"/>
      <point x="239" y="180"/>
      <point x="242" y="191" type="curve"/>
      <point x="247" y="200"/>
      <point x="249" y="217"/>
      <point x="249" y="242" type="curve"/>
      <point x="249" y="283"/>
      <point x="261" y="323"/>
      <point x="289" y="350" type="curve"/>
      <point x="318" y="379"/>
      <point x="378" y="451"/>
    </contour>
    <contour>
      <point x="250" y="56" type="curve"/>
      <point x="250" y="82"/>
      <point x="233" y="123"/>
      <point x="185" y="123" type="curve"/>
      <point x="161" y="123"/>
      <point x="126" y="116"/>
      <point x="118" y="74" type="curve"/>
      <point x="117" y="69"/>
      <point x="117" y="65"/>
      <point x="117" y="60" type="curve"/>
      <point x="117" y="20"/>
      <point x="146" y="-15"/>
      <point x="179" y="-15" type="curve"/>
      <point x="218" y="-15"/>
      <point x="249" y="26"/>
      <point x="249" y="46" type="curve"/>
      <point x="250" y="49"/>
      <point x="250" y="52"/>
    </contour>
  </outline>
</glyph>
<glyph name="B" format="1">
  <advance width="512"/>
  <unicode hex="0042"/>
  <outline>
    <contour>
      <point x="90" y="-7" type="curve" smooth="yes"/>
      <point x="113" y="-7"/>
      <point x="209" y="-4"/>
      <point x="248" y="-4" type="curve" smooth="yes"/>
      <point x="288" y="-4"/>
      <point x="483" y="-12"/>
      <point x="483" y="130" type="curve" smooth="yes"/>
      <point x="483" y="285"/>
      <point x="324" y="340"/>
      <point x="302" y="348" type="curve"/>
      <point x="323" y="355"/>
      <point x="342" y="366"/>
      <point x="359" y="381" type="curve" smooth="yes"/>
      <point x="388" y="408"/>
      <point x="417" y="452"/>
      <point x="417" y="531" type="curve" smooth="yes"/>
      <point x="417" y="685"/>
      <point x="319" y="713"/>
      <point x="211" y="713" type="curve" smooth="yes"/>
      <point x="158" y="713"/>
      <point x="89" y="702"/>
      <point x="80" y="699" type="curve" smooth="yes"/>
      <point x="72" y="697"/>
      <point x="69" y="694"/>
      <point x="69" y="690" type="curve" smooth="yes"/>
      <point x="69" y="689"/>
      <point x="69" y="687"/>
      <point x="70" y="685" type="curve" smooth="yes"/>
      <point x="71" y="680"/>
      <point x="73" y="657"/>
      <point x="73" y="635" type="curve" smooth="yes"/>
      <point x="73" y="625"/>
      <point x="73" y="615"/>
      <point x="72" y="607" type="curve" smooth="yes"/>
      <point x="69" y="579"/>
      <point x="69" y="426"/>
      <point x="66" y="370" type="curve"/>
      <point x="63" y="339"/>
      <point x="63" y="320"/>
      <point x="63" y="301" type="curve" smooth="yes"/>
      <point x="63" y="286"/>
      <point x="63" y="272"/>
      <point x="63" y="253" type="curve" smooth="yes"/>
      <point x="62" y="31" type="line" smooth="yes"/>
      <point x="62" y="11"/>
      <point x="66" y="-7"/>
    </contour>
    <contour>
      <point x="224" y="15" type="curve" smooth="yes"/>
      <point x="205" y="15"/>
      <point x="194" y="11"/>
      <point x="194" y="31" type="curve" smooth="yes"/>
      <point x="194" y="49"/>
      <point x="190" y="112"/>
      <point x="190" y="136" type="curve" smooth="yes"/>
      <point x="190" y="160"/>
      <point x="192" y="163"/>
      <point x="192" y="182" type="curve" smooth="yes"/>
      <point x="192" y="200"/>
      <point x="188" y="278"/>
      <point x="188" y="300" type="curve" smooth="yes"/>
      <point x="188" y="311"/>
      <point x="188" y="318"/>
      <point x="189" y="323" type="curve" smooth="yes"/>
      <point x="189" y="326"/>
      <point x="189" y="328"/>
      <point x="190" y="331" type="curve"/>
      <point x="233" y="332"/>
      <point x="271" y="326"/>
      <point x="305" y="313" type="curve"/>
      <point x="362" y="289"/>
      <point x="420" y="240"/>
      <point x="420" y="131" type="curve" smooth="yes"/>
      <point x="420" y="63"/>
      <point x="359" y="15"/>
    </contour>
    <contour>
      <point x="198" y="361" type="curve" smooth="yes"/>
      <point x="191" y="361"/>
      <point x="191" y="363"/>
      <point x="191" y="370" type="curve" smooth="yes"/>
      <point x="191" y="377"/>
      <point x="193" y="383"/>
      <point x="193" y="399" type="curve"/>
      <point x="193" y="513" type="line" smooth="yes"/>
      <point x="193" y="541"/>
      <point x="194" y="584"/>
      <point x="195" y="620" type="curve" smooth="yes"/>
      <point x="197" y="684" type="line"/>
      <point x="288" y="684"/>
      <point x="380" y="677"/>
      <point x="380" y="523" type="curve" smooth="yes"/>
      <point x="380" y="370"/>
      <point x="206" y="361"/>
    </contour>
  </outline>
</glyph>
<glyph name="H" format="1">
  <advance width="682"/>
  <unicode hex="0048"/>
  <outline>
    <contour>
      <point x="363" y="389" type="curve"/>
      <point x="334" y="389"/>
      <point x="294" y="391"/>
      <point x="259" y="392" type="curve"/>
      <point x="199" y="394" type="line"/>
      <point x="202" y="453" type="line"/>
      <point x="206" y="552" type="line" smooth="yes"/>
      <point x="209" y="607"/>
      <point x="210" y="659"/>
      <point x="210" y="671" type="curve"/>
      <point x="210" y="683"/>
      <point x="214" y="701"/>
      <point x="195" y="701" type="curve"/>
      <point x="181" y="701"/>
      <point x="164" y="703"/>
      <point x="147" y="703" type="curve"/>
      <point x="141" y="703"/>
      <point x="135" y="703"/>
      <point x="130" y="702" type="curve"/>
      <point x="121" y="701"/>
      <point x="114" y="700"/>
      <point x="107" y="700" type="curve"/>
      <point x="99" y="700"/>
      <point x="92" y="701"/>
      <point x="85" y="701" type="curve"/>
      <point x="75" y="701"/>
      <point x="66" y="700"/>
      <point x="66" y="670" type="curve"/>
      <point x="66" y="645"/>
      <point x="64" y="475"/>
      <point x="64" y="411" type="curve"/>
      <point x="64" y="350"/>
      <point x="66" y="106"/>
      <point x="66" y="65" type="curve"/>
      <point x="66" y="22"/>
      <point x="61" y="-1"/>
      <point x="89" y="2" type="curve"/>
      <point x="117" y="5"/>
      <point x="150" y="6"/>
      <point x="169" y="5" type="curve"/>
      <point x="184" y="5"/>
      <point x="204" y="1"/>
      <point x="204" y="25" type="curve"/>
      <point x="204" y="29"/>
      <point x="203" y="34"/>
      <point x="202" y="40" type="curve"/>
      <point x="198" y="60"/>
      <point x="197" y="102"/>
      <point x="197" y="144" type="curve"/>
      <point x="197" y="186"/>
      <point x="198" y="229"/>
      <point x="198" y="252" type="curve"/>
      <point x="198" y="275"/>
      <point x="199" y="297"/>
      <point x="200" y="313" type="curve"/>
      <point x="201" y="322"/>
      <point x="201" y="331"/>
      <point x="201" y="339" type="curve"/>
      <point x="222" y="338"/>
      <point x="241" y="338"/>
      <point x="260" y="338" type="curve"/>
      <point x="354" y="338" type="line" smooth="yes"/>
      <point x="377" y="338"/>
      <point x="427" y="338"/>
      <point x="470" y="339" type="curve"/>
      <point x="551" y="341" type="line"/>
      <point x="551" y="267" type="line" smooth="yes"/>
      <point x="551" y="227"/>
      <point x="550" y="181"/>
      <point x="551" y="160" type="curve"/>
      <point x="551" y="106"/>
      <point x="550" y="-13"/>
      <point x="550" y="14" type="curve"/>
      <point x="550" y="9"/>
      <point x="551" y="4"/>
      <point x="558" y="4" type="curve"/>
      <point x="569" y="4"/>
      <point x="589" y="5"/>
      <point x="594" y="6" type="curve"/>
      <point x="598" y="7"/>
      <point x="604" y="5"/>
      <point x="604" y="13" type="curve"/>
      <point x="604" y="14"/>
      <point x="604" y="16"/>
      <point x="603" y="19" type="curve"/>
      <point x="602" y="26"/>
      <point x="601" y="36"/>
      <point x="601" y="48" type="curve"/>
      <point x="601" y="62"/>
      <point x="602" y="78"/>
      <point x="602" y="88" type="curve"/>
      <point x="602" y="106"/>
      <point x="608" y="255"/>
      <point x="608" y="300" type="curve"/>
      <point x="608" y="344"/>
      <point x="611" y="558"/>
      <point x="615" y="603" type="curve"/>
      <point x="619" y="648"/>
      <point x="623" y="678"/>
      <point x="624" y="689" type="curve"/>
      <point x="625" y="692"/>
      <point x="626" y="695"/>
      <point x="626" y="697" type="curve"/>
      <point x="626" y="702"/>
      <point x="623" y="705"/>
      <point x="616" y="707" type="curve"/>
      <point x="611" y="709"/>
      <point x="604" y="709"/>
      <point x="599" y="709" type="curve"/>
      <point x="593" y="709"/>
      <point x="588" y="709"/>
      <point x="584" y="710" type="curve"/>
      <point x="581" y="710"/>
      <point x="577" y="711"/>
      <point x="573" y="711" type="curve"/>
      <point x="568" y="711"/>
      <point x="563" y="710"/>
      <point x="562" y="702" type="curve"/>
      <point x="562" y="689"/>
      <point x="556" y="510"/>
      <point x="556" y="476" type="curve"/>
      <point x="556" y="459"/>
      <point x="557" y="438"/>
      <point x="557" y="421" type="curve"/>
      <point x="557" y="391" type="line"/>
      <point x="531" y="390"/>
      <point x="506" y="390"/>
      <point x="482" y="390" type="curve"/>
      <point x="441" y="389"/>
      <point x="392" y="389"/>
    </contour>
    <contour>
      <point x="377" y="0" type="move" name="bottom"/>
    </contour>
    <contour>
      <point x="387" y="710" type="move" name="top"/>
    </contour>
  </outline>
</glyph>
<glyph name="K" format="1">
  <advance width="601"/>
  <unicode hex="004B"/>
  <outline>
    <contour>
      <point x="428" y="-4" type="curve" smooth="yes"/>
      <point x="446" y="-4"/>
      <point x="544" y="-1"/>
      <point x="557" y="-1" type="curve" smooth="yes"/>
      <point x="567" y="-1"/>
      <point x="574" y="2"/>
      <point x="574" y="7" type="curve" smooth="yes"/>
      <point x="574" y="10"/>
      <point x="573" y="12"/>
      <point x="571" y="15" type="curve" smooth="yes"/>
      <point x="562" y="24"/>
      <point x="516" y="85"/>
      <point x="497" y="101" type="curve" smooth="yes"/>
      <point x="478" y="117"/>
      <point x="390" y="228"/>
      <point x="366" y="252" type="curve" smooth="yes"/>
      <point x="354" y="264"/>
      <point x="332" y="288"/>
      <point x="313" y="311" type="curve" smooth="yes"/>
      <point x="302" y="324"/>
      <point x="290" y="337"/>
      <point x="278" y="352" type="curve"/>
      <point x="332" y="408" type="line" smooth="yes"/>
      <point x="360" y="437"/>
      <point x="388" y="468"/>
      <point x="395" y="476" type="curve"/>
      <point x="405" y="491"/>
      <point x="496" y="603"/>
      <point x="511" y="616" type="curve" smooth="yes"/>
      <point x="527" y="629"/>
      <point x="569" y="673"/>
      <point x="574" y="678" type="curve" smooth="yes"/>
      <point x="576" y="680"/>
      <point x="579" y="684"/>
      <point x="579" y="687" type="curve" smooth="yes"/>
      <point x="579" y="690"/>
      <point x="577" y="693"/>
      <point x="572" y="694" type="curve" smooth="yes"/>
      <point x="563" y="695"/>
      <point x="551" y="694"/>
      <point x="544" y="694" type="curve" smooth="yes"/>
      <point x="537" y="693"/>
      <point x="531" y="689"/>
      <point x="523" y="677" type="curve" smooth="yes"/>
      <point x="516" y="665"/>
      <point x="456" y="602"/>
      <point x="429" y="572" type="curve"/>
      <point x="401" y="544"/>
      <point x="347" y="486"/>
      <point x="336" y="470" type="curve"/>
      <point x="322" y="454"/>
      <point x="260" y="386"/>
      <point x="242" y="370" type="curve" smooth="yes"/>
      <point x="233" y="361"/>
      <point x="222" y="351"/>
      <point x="213" y="340" type="curve" smooth="yes"/>
      <point x="197" y="323" type="line"/>
      <point x="195" y="357" type="line" smooth="yes"/>
      <point x="195" y="367"/>
      <point x="194" y="378"/>
      <point x="194" y="390" type="curve" smooth="yes"/>
      <point x="194" y="402"/>
      <point x="195" y="414"/>
      <point x="196" y="425" type="curve" smooth="yes"/>
      <point x="200" y="457"/>
      <point x="200" y="527"/>
      <point x="200" y="574" type="curve" smooth="yes"/>
      <point x="200" y="593"/>
      <point x="200" y="608"/>
      <point x="200" y="615" type="curve" smooth="yes"/>
      <point x="199" y="643"/>
      <point x="200" y="662"/>
      <point x="200" y="674" type="curve" smooth="yes"/>
      <point x="200" y="684"/>
      <point x="203" y="694"/>
      <point x="187" y="694" type="curve" smooth="yes"/>
      <point x="186" y="694"/>
      <point x="183" y="694"/>
      <point x="181" y="694" type="curve" smooth="yes"/>
      <point x="158" y="693"/>
      <point x="130" y="695"/>
      <point x="107" y="695" type="curve" smooth="yes"/>
      <point x="101" y="695"/>
      <point x="93" y="698"/>
      <point x="87" y="698" type="curve" smooth="yes"/>
      <point x="82" y="698"/>
      <point x="77" y="696"/>
      <point x="76" y="688" type="curve"/>
      <point x="73" y="676"/>
      <point x="71" y="628"/>
      <point x="71" y="590" type="curve" smooth="yes"/>
      <point x="71" y="572"/>
      <point x="71" y="556"/>
      <point x="72" y="548" type="curve" smooth="yes"/>
      <point x="73" y="539"/>
      <point x="73" y="521"/>
      <point x="73" y="501" type="curve" smooth="yes"/>
      <point x="73" y="464"/>
      <point x="72" y="419"/>
      <point x="70" y="401" type="curve" smooth="yes"/>
      <point x="66" y="374"/>
      <point x="61" y="111"/>
      <point x="61" y="88" type="curve" smooth="yes"/>
      <point x="61" y="65"/>
      <point x="69" y="34"/>
      <point x="66" y="22" type="curve" smooth="yes"/>
      <point x="64" y="16"/>
      <point x="62" y="10"/>
      <point x="62" y="7" type="curve" smooth="yes"/>
      <point x="62" y="3"/>
      <point x="64" y="1"/>
      <point x="69" y="1" type="curve"/>
      <point x="71" y="0"/>
      <point x="76" y="0"/>
      <point x="81" y="0" type="curve" smooth="yes"/>
      <point x="100" y="0"/>
      <point x="131" y="3"/>
      <point x="143" y="3" type="curve"/>
      <point x="183" y="3" type="line" smooth="yes"/>
      <point x="190" y="3"/>
      <point x="197" y="3"/>
      <point x="197" y="13" type="curve" smooth="yes"/>
      <point x="197" y="15"/>
      <point x="197" y="17"/>
      <point x="196" y="20" type="curve" smooth="yes"/>
      <point x="194" y="27"/>
      <point x="193" y="47"/>
      <point x="193" y="68" type="curve" smooth="yes"/>
      <point x="193" y="94"/>
      <point x="194" y="123"/>
      <point x="194" y="137" type="curve" smooth="yes"/>
      <point x="194" y="150"/>
      <point x="195" y="178"/>
      <point x="196" y="201" type="curve" smooth="yes"/>
      <point x="197" y="214"/>
      <point x="197" y="229"/>
      <point x="197" y="244" type="curve"/>
      <point x="233" y="203" type="line" smooth="yes"/>
      <point x="252" y="180"/>
      <point x="274" y="155"/>
      <point x="286" y="144" type="curve"/>
      <point x="307" y="121"/>
      <point x="376" y="25"/>
      <point x="389" y="14" type="curve"/>
      <point x="402" y="1"/>
      <point x="411" y="-4"/>
    </contour>
    <contour>
      <point x="307" y="0" type="move" name="bottom"/>
    </contour>
    <contour>
      <point x="326" y="710" type="move" name="top"/>
    </contour>
  </outline>
</glyph>
<glyph name="M" format="1">
  <advance width="704"/>
  <unicode hex="004D"/>
  <outline>
    <contour>
      <point x="84" y="0" type="curve" smooth="yes"/>
      <point x="98" y="0"/>
      <point x="120" y="3"/>
      <point x="132" y="3" type="curve" smooth="yes"/>
      <point x="147" y="3"/>
      <point x="160" y="-1"/>
      <point x="160" y="15" type="curve" smooth="yes"/>
      <point x="161" y="171" type="line" smooth="yes"/>
      <point x="161" y="206"/>
      <point x="163" y="337"/>
      <point x="163" y="368" type="curve" smooth="yes"/>
      <point x="163" y="383"/>
      <point x="164" y="412"/>
      <point x="165" y="436" type="curve"/>
      <point x="167" y="480" type="line"/>
      <point x="172" y="465"/>
      <point x="178" y="450"/>
      <point x="184" y="436" type="curve" smooth="yes"/>
      <point x="193" y="412"/>
      <point x="204" y="384"/>
      <point x="211" y="369" type="curve" smooth="yes"/>
      <point x="224" y="339"/>
      <point x="290" y="225"/>
      <point x="300" y="196" type="curve" smooth="yes"/>
      <point x="310" y="167"/>
      <point x="335" y="103"/>
      <point x="346" y="87" type="curve" smooth="yes"/>
      <point x="355" y="72"/>
      <point x="359" y="64"/>
      <point x="363" y="64" type="curve" smooth="yes"/>
      <point x="367" y="64"/>
      <point x="385" y="106"/>
      <point x="393" y="125" type="curve" smooth="yes"/>
      <point x="401" y="144"/>
      <point x="468" y="283"/>
      <point x="481" y="307" type="curve" smooth="yes"/>
      <point x="494" y="331"/>
      <point x="557" y="458"/>
      <point x="568" y="480" type="curve" smooth="yes"/>
      <point x="573" y="491"/>
      <point x="580" y="505"/>
      <point x="587" y="517" type="curve" smooth="yes"/>
      <point x="590" y="524"/>
      <point x="594" y="531"/>
      <point x="599" y="538" type="curve"/>
      <point x="597" y="466" type="line" smooth="yes"/>
      <point x="596" y="427"/>
      <point x="594" y="389"/>
      <point x="595" y="374" type="curve"/>
      <point x="595" y="345"/>
      <point x="591" y="234"/>
      <point x="588" y="204" type="curve" smooth="yes"/>
      <point x="584" y="167"/>
      <point x="586" y="-19"/>
      <point x="586" y="25" type="curve" smooth="yes"/>
      <point x="586" y="13"/>
      <point x="587" y="7"/>
      <point x="593" y="6" type="curve"/>
      <point x="601" y="6"/>
      <point x="612" y="8"/>
      <point x="618" y="8" type="curve" smooth="yes"/>
      <point x="619" y="8"/>
      <point x="619" y="8"/>
      <point x="620" y="8" type="curve" smooth="yes"/>
      <point x="623" y="7"/>
      <point x="626" y="8"/>
      <point x="626" y="18" type="curve" smooth="yes"/>
      <point x="626" y="19"/>
      <point x="626" y="21"/>
      <point x="626" y="23" type="curve" smooth="yes"/>
      <point x="626" y="31"/>
      <point x="625" y="77"/>
      <point x="625" y="120" type="curve" smooth="yes"/>
      <point x="625" y="152"/>
      <point x="626" y="184"/>
      <point x="627" y="197" type="curve" smooth="yes"/>
      <point x="630" y="228"/>
      <point x="634" y="354"/>
      <point x="634" y="400" type="curve" smooth="yes"/>
      <point x="634" y="443"/>
      <point x="634" y="613"/>
      <point x="638" y="640" type="curve" smooth="yes"/>
      <point x="640" y="658"/>
      <point x="647" y="682"/>
      <point x="647" y="697" type="curve" smooth="yes"/>
      <point x="647" y="705"/>
      <point x="645" y="710"/>
      <point x="639" y="710" type="curve" smooth="yes"/>
      <point x="625" y="710"/>
      <point x="588" y="642"/>
      <point x="569" y="604" type="curve"/>
      <point x="548" y="566"/>
      <point x="509" y="483"/>
      <point x="477" y="421" type="curve" smooth="yes"/>
      <point x="412" y="291" type="line" smooth="yes"/>
      <point x="399" y="264"/>
      <point x="385" y="237"/>
      <point x="370" y="208" type="curve"/>
      <point x="349" y="255" type="line" smooth="yes"/>
      <point x="338" y="282"/>
      <point x="324" y="312"/>
      <point x="317" y="331" type="curve" smooth="yes"/>
      <point x="304" y="371"/>
      <point x="265" y="461"/>
      <point x="246" y="493" type="curve"/>
      <point x="230" y="528"/>
      <point x="195" y="611"/>
      <point x="187" y="652" type="curve"/>
      <point x="181" y="677"/>
      <point x="179" y="709"/>
      <point x="162" y="715" type="curve"/>
      <point x="153" y="717"/>
      <point x="144" y="717"/>
      <point x="134" y="717" type="curve" smooth="yes"/>
      <point x="126" y="717"/>
      <point x="118" y="717"/>
      <point x="109" y="716" type="curve" smooth="yes"/>
      <point x="95" y="714"/>
      <point x="90" y="719"/>
      <point x="85" y="719" type="curve" smooth="yes"/>
      <point x="83" y="719"/>
      <point x="81" y="719"/>
      <point x="78" y="716" type="curve" smooth="yes"/>
      <point x="74" y="712"/>
      <point x="73" y="695"/>
      <point x="73" y="676" type="curve" smooth="yes"/>
      <point x="73" y="657"/>
      <point x="74" y="636"/>
      <point x="74" y="622" type="curve" smooth="yes"/>
      <point x="74" y="593"/>
      <point x="72" y="470"/>
      <point x="72" y="434" type="curve" smooth="yes"/>
      <point x="72" y="398"/>
      <point x="62" y="261"/>
      <point x="62" y="220" type="curve" smooth="yes"/>
      <point x="62" y="179"/>
      <point x="65" y="53"/>
      <point x="65" y="34" type="curve" smooth="yes"/>
      <point x="64" y="9"/>
      <point x="63" y="0"/>
    </contour>
  </outline>
</glyph>
<glyph name="O" format="1">
  <advance width="544"/>
  <unicode hex="004F"/>
  <outline>
    <contour>
      <point x="280" y="-22" type="curve" smooth="yes"/>
      <point x="437" y="-22"/>
      <point x="501" y="198"/>
      <point x="501" y="343" type="curve" smooth="yes"/>
      <point x="501" y="489"/>
      <point x="490" y="714"/>
      <point x="273" y="714" type="curve" smooth="yes"/>
      <point x="185" y="714"/>
      <point x="43" y="645"/>
      <point x="43" y="357" type="curve" smooth="yes"/>
      <point x="43" y="249"/>
      <point x="60" y="-22"/>
    </contour>
    <contour>
      <point x="272" y="232" type="curve" smooth="yes"/>
      <point x="232" y="232"/>
      <point x="229" y="285"/>
      <point x="229" y="325" type="curve" smooth="yes"/>
      <point x="229" y="368"/>
      <point x="242" y="434"/>
      <point x="279" y="434" type="curve" smooth="yes"/>
      <point x="308" y="434"/>
      <point x="325" y="385"/>
      <point x="325" y="334" type="curve" smooth="yes"/>
      <point x="325" y="284"/>
      <point x="311" y="232"/>
    </contour>
    <contour>
      <point x="277" y="0" type="move" name="bottom"/>
    </contour>
    <contour>
      <point x="272" y="355" type="move" name="center"/>
    </contour>
    <contour>
      <point x="341" y="0" type="move" name="ogonek"/>
    </contour>
    <contour>
      <point x="290" y="710" type="move" name="top"/>
    </contour>
    <contour>
      <point x="20" y="710" type="move" name="topleft"/>
    </contour>
    <contour>
      <point x="373" y="691" type="move" name="topright"/>
    </contour>
  </outline>
</glyph>
<glyph name="bracketleft" format="1">
  <advance width="313"/>
  <unicode hex="005B"/>
  <outline>
    <contour>
      <point x="275" y="26" type="curve"/>
      <point x="273" y="26"/>
      <point x="271" y="26"/>
      <point x="269" y="26" type="curve"/>
      <point x="152" y="26" type="line"/>
      <point x="154" y="60" type="line" smooth="yes"/>
      <point x="155" y="81"/>
      <point x="156" y="109"/>
      <point x="156" y="122" type="curve"/>
      <point x="156" y="148"/>
      <point x="160" y="311"/>
      <point x="160" y="337" type="curve"/>
      <point x="160" y="367"/>
      <point x="172" y="568"/>
      <point x="172" y="609" type="curve"/>
      <point x="172" y="628"/>
      <point x="173" y="647"/>
      <point x="176" y="665" type="curve"/>
      <point x="178" y="683" type="line"/>
      <point x="185" y="684"/>
      <point x="191" y="684"/>
      <point x="196" y="684" type="curve"/>
      <point x="275" y="684" type="line" smooth="yes"/>
      <point x="284" y="684"/>
      <point x="288" y="689"/>
      <point x="288" y="700" type="curve"/>
      <point x="288" y="724" type="line" smooth="yes"/>
      <point x="288" y="729"/>
      <point x="292" y="747"/>
      <point x="278" y="747" type="curve"/>
      <point x="251" y="744" type="line"/>
      <point x="197" y="741" type="line" smooth="yes"/>
      <point x="186" y="740"/>
      <point x="167" y="741"/>
      <point x="155" y="741" type="curve"/>
      <point x="95" y="741" type="line"/>
      <point x="79" y="742"/>
      <point x="64" y="742"/>
      <point x="65" y="719" type="curve"/>
      <point x="65" y="704"/>
      <point x="67" y="655"/>
      <point x="67" y="623" type="curve"/>
      <point x="67" y="611"/>
      <point x="67" y="601"/>
      <point x="66" y="596" type="curve"/>
      <point x="65" y="592"/>
      <point x="65" y="582"/>
      <point x="65" y="570" type="curve"/>
      <point x="65" y="529"/>
      <point x="68" y="458"/>
      <point x="68" y="437" type="curve"/>
      <point x="68" y="417"/>
      <point x="70" y="343"/>
      <point x="70" y="263" type="curve"/>
      <point x="70" y="233"/>
      <point x="70" y="202"/>
      <point x="69" y="172" type="curve"/>
      <point x="68" y="64"/>
      <point x="60" y="-2"/>
      <point x="57" y="-27" type="curve"/>
      <point x="56" y="-41"/>
      <point x="55" y="-51"/>
      <point x="55" y="-58" type="curve"/>
      <point x="55" y="-65"/>
      <point x="60" y="-69"/>
      <point x="71" y="-70" type="curve"/>
      <point x="82" y="-71"/>
      <point x="91" y="-72"/>
      <point x="97" y="-72" type="curve"/>
      <point x="99" y="-72"/>
      <point x="101" y="-72"/>
      <point x="102" y="-72" type="curve"/>
      <point x="179" y="-72" type="line" smooth="yes"/>
      <point x="233" y="-72"/>
      <point x="250" y="-76"/>
      <point x="266" y="-76" type="curve"/>
      <point x="283" y="-76"/>
      <point x="287" y="-72"/>
      <point x="287" y="-57" type="curve"/>
      <point x="287" y="13" type="line" smooth="yes"/>
      <point x="287" y="22"/>
      <point x="284" y="26"/>
    </contour>
  </outline>
</glyph>
<glyph name="backslash" format="1">
  <advance width="328"/>
  <unicode hex="005C"/>
  <outline>
    <contour>
      <point x="285" y="-23" type="curve" smooth="yes"/>
      <point x="294" y="-23"/>
      <point x="304" y="-21"/>
      <point x="311" y="-19" type="curve" smooth="yes"/>
      <point x="324" y="-16"/>
      <point x="327" y="-13"/>
      <point x="327" y="-8" type="curve" smooth="yes"/>
      <point x="327" y="-5"/>
      <point x="326" y="-2"/>
      <point x="325" y="2" type="curve"/>
      <point x="317" y="12"/>
      <point x="324" y="1"/>
      <point x="311" y="31" type="curve"/>
      <point x="301" y="62"/>
      <point x="250" y="192"/>
      <point x="232" y="260" type="curve"/>
      <point x="210" y="325"/>
      <point x="145" y="499"/>
      <point x="132" y="536" type="curve"/>
      <point x="114" y="575"/>
      <point x="89" y="651"/>
      <point x="86" y="676" type="curve"/>
      <point x="78" y="701"/>
      <point x="64" y="725"/>
      <point x="53" y="729" type="curve"/>
      <point x="44" y="729"/>
      <point x="16" y="728"/>
      <point x="7" y="725" type="curve" smooth="yes"/>
      <point x="3" y="724"/>
      <point x="2" y="719"/>
      <point x="2" y="711" type="curve" smooth="yes"/>
      <point x="2" y="698"/>
      <point x="7" y="677"/>
      <point x="14" y="661" type="curve" smooth="yes"/>
      <point x="22" y="640"/>
      <point x="65" y="536"/>
      <point x="78" y="486" type="curve"/>
      <point x="97" y="435"/>
      <point x="145" y="277"/>
      <point x="161" y="242" type="curve"/>
      <point x="174" y="205"/>
      <point x="234" y="38"/>
      <point x="239" y="17" type="curve"/>
      <point x="243" y="-6"/>
      <point x="250" y="-8"/>
      <point x="261" y="-15" type="curve"/>
      <point x="267" y="-21"/>
      <point x="275" y="-23"/>
    </contour>
  </outline>
</glyph>
<glyph name="c" format="1">
  <advance width="469"/>
  <unicode hex="0063"/>
  <outline>
    <contour>
      <point x="266" y="-12" type="curve" smooth="yes"/>
      <point x="383" y="-12"/>
      <point x="434" y="69"/>
      <point x="444" y="85" type="curve" smooth="yes"/>
      <point x="446" y="88"/>
      <point x="447" y="92"/>
      <point x="447" y="94" type="curve" smooth="yes"/>
      <point x="447" y="103"/>
      <point x="428" y="125"/>
      <point x="417" y="134" type="curve" smooth="yes"/>
      <point x="402" y="146" type="line" smooth="yes"/>
      <point x="398" y="149"/>
      <point x="395" y="150"/>
      <point x="392" y="150" type="curve" smooth="yes"/>
      <point x="388" y="150"/>
      <point x="385" y="148"/>
      <point x="378" y="139" type="curve" smooth="yes"/>
      <point x="335" y="60"/>
      <point x="276" y="42"/>
      <point x="251" y="42" type="curve" smooth="yes"/>
      <point x="214" y="42"/>
      <point x="96" y="48"/>
      <point x="96" y="280" type="curve" smooth="yes"/>
      <point x="96" y="483"/>
      <point x="173" y="514"/>
      <point x="269" y="514" type="curve" smooth="yes"/>
      <point x="309" y="514"/>
      <point x="349" y="479"/>
      <point x="366" y="461" type="curve" smooth="yes"/>
      <point x="371" y="456"/>
      <point x="375" y="450"/>
      <point x="379" y="450" type="curve" smooth="yes"/>
      <point x="389" y="450"/>
      <point x="396" y="472"/>
      <point x="419" y="494" type="curve" smooth="yes"/>
      <point x="426" y="500"/>
      <point x="429" y="504"/>
      <point x="429" y="508" type="curve" smooth="yes"/>
      <point x="429" y="514"/>
      <point x="424" y="519"/>
      <point x="419" y="525" type="curve" smooth="yes"/>
      <point x="409" y="539"/>
      <point x="360" y="592"/>
      <point x="260" y="592" type="curve" smooth="yes"/>
      <point x="126" y="592"/>
      <point x="37" y="472"/>
      <point x="37" y="297" type="curve" smooth="yes"/>
      <point x="37" y="121"/>
      <point x="112" y="-12"/>
    </contour>
    <contour>
      <point x="257" y="0" type="move" name="bottom"/>
    </contour>
    <contour>
      <point x="262" y="602" type="move" name="top"/>
    </contour>
  </outline>
</glyph>
<glyph name="j" format="1">
  <advance width="166"/>
  <unicode hex="006A"/>
  <outline>
    <contour>
      <point x="110" y="740" type="curve"/>
      <point x="85" y="740"/>
      <point x="40" y="733"/>
      <point x="40" y="682" type="curve"/>
      <point x="40" y="659"/>
      <point x="51" y="631"/>
      <point x="91" y="631" type="curve"/>
      <point x="131" y="631"/>
      <point x="150" y="656"/>
      <point x="150" y="682" type="curve"/>
      <point x="150" y="710"/>
      <point x="135" y="740"/>
    </contour>
    <contour>
      <point x="9" y="-159" type="curve"/>
      <point x="123" y="-162"/>
      <point x="109" y="-97"/>
      <point x="113" y="7" type="curve"/>
      <point x="113" y="74"/>
      <point x="111" y="191"/>
      <point x="113" y="213" type="curve"/>
      <point x="119" y="407" type="line" smooth="yes"/>
      <point x="119" y="420"/>
      <point x="121" y="443"/>
      <point x="120" y="463" type="curve"/>
      <point x="121" y="501" type="line"/>
      <point x="121" y="544" type="line"/>
      <point x="124" y="578"/>
      <point x="116" y="585"/>
      <point x="106" y="585" type="curve"/>
      <point x="104" y="585"/>
      <point x="101" y="585"/>
      <point x="98" y="584" type="curve"/>
      <point x="95" y="583"/>
      <point x="80" y="586"/>
      <point x="74" y="583" type="curve"/>
      <point x="60" y="581"/>
      <point x="54" y="576"/>
      <point x="54" y="566" type="curve"/>
      <point x="54" y="560"/>
      <point x="53" y="553"/>
      <point x="54" y="543" type="curve"/>
      <point x="57" y="519"/>
      <point x="61" y="460"/>
      <point x="56" y="361" type="curve"/>
      <point x="48" y="123" type="line"/>
      <point x="48" y="100"/>
      <point x="48" y="21"/>
      <point x="46" y="-22" type="curve"/>
      <point x="46" y="-42" type="line"/>
      <point x="44" y="-86"/>
      <point x="28" y="-105"/>
      <point x="-1" y="-105" type="curve"/>
      <point x="-17" y="-105"/>
      <point x="-23" y="-102"/>
      <point x="-30" y="-102" type="curve"/>
      <point x="-41" y="-102"/>
      <point x="-43" y="-114"/>
      <point x="-44" y="-116" type="curve"/>
      <point x="-50" y="-132" type="line" smooth="yes"/>
      <point x="-52" y="-136"/>
      <point x="-49" y="-139"/>
      <point x="-49" y="-139" type="curve"/>
      <point x="-32" y="-150"/>
      <point x="-12" y="-158"/>
    </contour>
  </outline>
</glyph>
<glyph name="m" format="1">
  <advance width="853"/>
  <unicode hex="006D"/>
  <outline>
    <contour>
      <point x="808" y="26" type="curve"/>
      <point x="807" y="46"/>
      <point x="808" y="173"/>
      <point x="810" y="211" type="curve"/>
      <point x="815" y="284"/>
      <point x="810" y="357"/>
      <point x="810" y="384" type="curve"/>
      <point x="810" y="412"/>
      <point x="801" y="499"/>
      <point x="773" y="533" type="curve"/>
      <point x="738" y="583"/>
      <point x="696" y="598"/>
      <point x="637" y="598" type="curve"/>
      <point x="534" y="598"/>
      <point x="478" y="545"/>
      <point x="461" y="531" type="curve"/>
      <point x="460" y="533"/>
      <point x="405" y="598"/>
      <point x="300" y="598" type="curve"/>
      <point x="222" y="598"/>
      <point x="171" y="574"/>
      <point x="123" y="552" type="curve"/>
      <point x="123" y="552"/>
      <point x="124" y="574"/>
      <point x="124" y="580" type="curve"/>
      <point x="124" y="593"/>
      <point x="120" y="598"/>
      <point x="116" y="598" type="curve"/>
      <point x="114" y="598"/>
      <point x="104" y="599"/>
      <point x="94" y="599" type="curve"/>
      <point x="83" y="598"/>
      <point x="78" y="598"/>
      <point x="75" y="598" type="curve"/>
      <point x="64" y="598"/>
      <point x="63" y="593"/>
      <point x="63" y="584" type="curve"/>
      <point x="63" y="409"/>
      <point x="63" y="294"/>
      <point x="63" y="294" type="curve"/>
      <point x="62" y="260"/>
      <point x="63" y="27"/>
      <point x="63" y="14" type="curve"/>
      <point x="63" y="3"/>
      <point x="66" y="0"/>
      <point x="73" y="0" type="curve"/>
      <point x="82" y="0"/>
      <point x="105" y="0"/>
      <point x="108" y="0" type="curve"/>
      <point x="127" y="0"/>
      <point x="130" y="7"/>
      <point x="130" y="16" type="curve"/>
      <point x="130" y="23"/>
      <point x="132" y="152"/>
      <point x="131" y="203" type="curve"/>
      <point x="131" y="341" type="line"/>
      <point x="130" y="401"/>
      <point x="130" y="435"/>
      <point x="130" y="479" type="curve"/>
      <point x="161" y="503"/>
      <point x="226" y="534"/>
      <point x="285" y="534" type="curve"/>
      <point x="350" y="534"/>
      <point x="383" y="524"/>
      <point x="394" y="472" type="curve"/>
      <point x="402" y="430"/>
      <point x="399" y="305"/>
      <point x="398" y="282" type="curve"/>
      <point x="398" y="264"/>
      <point x="397" y="226"/>
      <point x="396" y="186" type="curve"/>
      <point x="394" y="150"/>
      <point x="393" y="118"/>
      <point x="393" y="106" type="curve"/>
      <point x="393" y="73"/>
      <point x="388" y="52"/>
      <point x="390" y="37" type="curve"/>
      <point x="391" y="26"/>
      <point x="388" y="0"/>
      <point x="408" y="0" type="curve"/>
      <point x="413" y="0"/>
      <point x="427" y="0"/>
      <point x="427" y="0" type="curve"/>
      <point x="436" y="0"/>
      <point x="436" y="0"/>
      <point x="439" y="0" type="curve"/>
      <point x="440" y="0"/>
      <point x="442" y="0"/>
      <point x="443" y="0" type="curve"/>
      <point x="451" y="0"/>
      <point x="458" y="0"/>
      <point x="462" y="0" type="curve"/>
      <point x="474" y="-1"/>
      <point x="487" y="0"/>
      <point x="487" y="18" type="curve"/>
      <point x="486" y="35"/>
      <point x="483" y="101"/>
      <point x="485" y="115" type="curve"/>
      <point x="487" y="130"/>
      <point x="485" y="221"/>
      <point x="484" y="242" type="curve"/>
      <point x="484" y="262"/>
      <point x="484" y="448"/>
      <point x="484" y="448" type="curve"/>
      <point x="484" y="448"/>
      <point x="489" y="534"/>
      <point x="626" y="534" type="curve"/>
      <point x="681" y="534"/>
      <point x="702" y="520"/>
      <point x="724" y="472" type="curve"/>
      <point x="743" y="430"/>
      <point x="743" y="305"/>
      <point x="741" y="273" type="curve"/>
      <point x="736" y="220"/>
      <point x="742" y="51"/>
      <point x="742" y="23" type="curve"/>
      <point x="742" y="3"/>
      <point x="743" y="-1"/>
      <point x="753" y="0" type="curve"/>
      <point x="767" y="2"/>
      <point x="803" y="0"/>
      <point x="803" y="0" type="curve"/>
      <point x="810" y="1"/>
      <point x="809" y="8"/>
    </contour>
  </outline>
</glyph>
<glyph name="q" format="1">
  <advance width="513"/>
  <unicode hex="0071"/>
  <outline>
    <contour>
      <point x="440" y="229" type="curve"/>
      <point x="442" y="489" type="line" smooth="yes"/>
      <point x="442" y="506"/>
      <point x="446" y="553"/>
      <point x="446" y="568" type="curve"/>
      <point x="446" y="582"/>
      <point x="437" y="580"/>
      <point x="431" y="580" type="curve"/>
      <point x="428" y="580"/>
      <point x="426" y="578"/>
      <point x="414" y="578" type="curve"/>
      <point x="398" y="578"/>
      <point x="393" y="580"/>
      <point x="386" y="580" type="curve"/>
      <point x="378" y="580"/>
      <point x="377" y="578"/>
      <point x="377" y="565" type="curve"/>
      <point x="377" y="564" type="line"/>
      <point x="347" y="578"/>
      <point x="305" y="589"/>
      <point x="249" y="589" type="curve"/>
      <point x="54" y="589"/>
      <point x="40" y="337"/>
      <point x="40" y="280" type="curve"/>
      <point x="40" y="125"/>
      <point x="95" y="-17"/>
      <point x="249" y="-17" type="curve"/>
      <point x="294" y="-17"/>
      <point x="338" y="-5"/>
      <point x="374" y="16" type="curve"/>
      <point x="374" y="-33"/>
      <point x="375" y="-87"/>
      <point x="375" y="-92" type="curve"/>
      <point x="376" y="-157" type="line" smooth="yes"/>
      <point x="376" y="-163"/>
      <point x="380" y="-164"/>
      <point x="384" y="-164" type="curve"/>
      <point x="391" y="-164"/>
      <point x="397" y="-162"/>
      <point x="402" y="-162" type="curve"/>
      <point x="434" y="-161" type="line" smooth="yes"/>
      <point x="447" y="-161"/>
      <point x="447" y="-155"/>
      <point x="447" y="-149" type="curve"/>
      <point x="447" y="-144"/>
      <point x="448" y="-133"/>
      <point x="448" y="-109" type="curve"/>
      <point x="448" y="-86"/>
      <point x="439" y="113"/>
      <point x="439" y="140" type="curve"/>
      <point x="439" y="194" type="line" smooth="yes"/>
      <point x="439" y="205"/>
      <point x="439" y="216"/>
    </contour>
    <contour>
      <point x="109" y="228" type="curve"/>
      <point x="109" y="367"/>
      <point x="143" y="542"/>
      <point x="253" y="542" type="curve"/>
      <point x="314" y="542"/>
      <point x="353" y="515"/>
      <point x="376" y="478" type="curve"/>
      <point x="376" y="359" type="line"/>
      <point x="376" y="281" type="line" smooth="yes"/>
      <point x="376" y="234"/>
      <point x="376" y="183"/>
      <point x="375" y="165" type="curve"/>
      <point x="374" y="146"/>
      <point x="374" y="123"/>
      <point x="374" y="104" type="curve"/>
      <point x="374" y="100" type="line"/>
      <point x="341" y="55"/>
      <point x="284" y="33"/>
      <point x="233" y="33" type="curve"/>
      <point x="179" y="33"/>
      <point x="109" y="90"/>
    </contour>
  </outline>
</glyph>
<glyph name="r" format="1">
  <advance width="415"/>
  <unicode hex="0072"/>
  <outline>
    <contour>
      <point x="205" y="-3" type="curve" smooth="yes"/>
      <point x="213" y="-3"/>
      <point x="221" y="-2"/>
      <point x="221" y="4" type="curve"/>
      <point x="225" y="19"/>
      <point x="226" y="52"/>
      <point x="225" y="88" type="curve" smooth="yes"/>
      <point x="224" y="150"/>
      <point x="224" y="214"/>
      <point x="223" y="243" type="curve" smooth="yes"/>
      <point x="222" y="328" type="line"/>
      <point x="221" y="330"/>
      <point x="221" y="377"/>
      <point x="220" y="402" type="curve"/>
      <point x="230" y="404"/>
      <point x="253" y="409"/>
      <point x="264" y="412" type="curve" smooth="yes"/>
      <point x="326" y="430"/>
      <point x="382" y="420"/>
      <point x="402" y="449" type="curve" smooth="yes"/>
      <point x="404" y="452"/>
      <point x="404" y="464"/>
      <point x="401" y="480" type="curve" smooth="yes"/>
      <point x="399" y="491"/>
      <point x="397" y="503"/>
      <point x="396" y="517" type="curve" smooth="yes"/>
      <point x="393" y="547"/>
      <point x="389" y="561"/>
      <point x="383" y="577" type="curve" smooth="yes"/>
      <point x="378" y="591"/>
      <point x="377" y="597"/>
      <point x="374" y="598" type="curve" smooth="yes"/>
      <point x="354" y="604"/>
      <point x="271" y="581"/>
      <point x="217" y="546" type="curve"/>
      <point x="215" y="574" type="line" smooth="yes"/>
      <point x="215" y="576"/>
      <point x="211" y="583"/>
      <point x="207" y="583" type="curve"/>
      <point x="205" y="584"/>
      <point x="179" y="581"/>
      <point x="144" y="581" type="curve" smooth="yes"/>
      <point x="112" y="581"/>
      <point x="81" y="584"/>
      <point x="79" y="583" type="curve" smooth="yes"/>
      <point x="74" y="582"/>
      <point x="74" y="572"/>
      <point x="74" y="571" type="curve"/>
      <point x="73" y="468" type="line"/>
      <point x="67" y="287" type="line" smooth="yes"/>
      <point x="66" y="268"/>
      <point x="60" y="187"/>
      <point x="60" y="118" type="curve" smooth="yes"/>
      <point x="60" y="64"/>
      <point x="59" y="18"/>
      <point x="59" y="12" type="curve" smooth="yes"/>
      <point x="59" y="2"/>
      <point x="68" y="0"/>
      <point x="74" y="0" type="curve" smooth="yes"/>
      <point x="78" y="0"/>
      <point x="120" y="1"/>
      <point x="151" y="1" type="curve" smooth="yes"/>
      <point x="179" y="1"/>
      <point x="204" y="-3"/>
    </contour>
    <contour>
      <point x="152" y="0" type="move" name="bottom"/>
    </contour>
    <contour>
      <point x="231" y="602" type="move" name="top"/>
    </contour>
  </outline>
</glyph>
<glyph name="v" format="1">
  <advance width="473"/>
  <unicode hex="0076"/>
  <outline>
    <contour>
      <point x="179" y="-5" type="curve" smooth="yes"/>
      <point x="199" y="-5"/>
      <point x="299" y="2"/>
      <point x="313" y="2" type="curve" smooth="yes"/>
      <point x="320" y="2"/>
      <point x="324" y="1"/>
      <point x="328" y="1" type="curve" smooth="yes"/>
      <point x="334" y="1"/>
      <point x="339" y="3"/>
      <point x="342" y="15" type="curve" smooth="yes"/>
      <point x="349" y="34"/>
      <point x="372" y="196"/>
      <point x="389" y="261" type="curve"/>
      <point x="409" y="325"/>
      <point x="433" y="444"/>
      <point x="441" y="478" type="curve"/>
      <point x="449" y="511"/>
      <point x="457" y="543"/>
      <point x="463" y="559" type="curve" smooth="yes"/>
      <point x="464" y="564"/>
      <point x="465" y="568"/>
      <point x="465" y="572" type="curve" smooth="yes"/>
      <point x="465" y="577"/>
      <point x="462" y="580"/>
      <point x="449" y="582" type="curve" smooth="yes"/>
      <point x="427" y="584"/>
      <point x="357" y="584"/>
      <point x="343" y="584" type="curve" smooth="yes"/>
      <point x="326" y="584"/>
      <point x="309" y="590"/>
      <point x="312" y="554" type="curve" smooth="yes"/>
      <point x="314" y="521"/>
      <point x="270" y="391"/>
      <point x="268" y="355" type="curve"/>
      <point x="265" y="338"/>
      <point x="260" y="307"/>
      <point x="253" y="281" type="curve"/>
      <point x="242" y="232" type="line"/>
      <point x="223" y="314" type="line" smooth="yes"/>
      <point x="212" y="357"/>
      <point x="202" y="406"/>
      <point x="199" y="429" type="curve" smooth="yes"/>
      <point x="188" y="498"/>
      <point x="182" y="542"/>
      <point x="176" y="558" type="curve"/>
      <point x="172" y="574"/>
      <point x="170" y="586"/>
      <point x="147" y="583" type="curve"/>
      <point x="123" y="583"/>
      <point x="66" y="580"/>
      <point x="48" y="580" type="curve" smooth="yes"/>
      <point x="31" y="580"/>
      <point x="10" y="588"/>
      <point x="10" y="576" type="curve" smooth="yes"/>
      <point x="10" y="573"/>
      <point x="11" y="571"/>
      <point x="12" y="568" type="curve" smooth="yes"/>
      <point x="18" y="544"/>
      <point x="76" y="307"/>
      <point x="90" y="258" type="curve" smooth="yes"/>
      <point x="104" y="209"/>
      <point x="149" y="47"/>
      <point x="154" y="26" type="curve"/>
      <point x="157" y="7"/>
      <point x="159" y="-5"/>
    </contour>
  </outline>
</glyph>
<glyph name="w" format="1">
  <advance width="632"/>
  <unicode hex="0077"/>
  <outline>
    <contour>
      <point x="234" y="-13" type="curve" smooth="yes"/>
      <point x="240" y="-13"/>
      <point x="245" y="4"/>
      <point x="248" y="17" type="curve" smooth="yes"/>
      <point x="251" y="25"/>
      <point x="287" y="134"/>
      <point x="299" y="168" type="curve"/>
      <point x="314" y="205"/>
      <point x="317" y="224"/>
      <point x="323" y="237" type="curve" smooth="yes"/>
      <point x="334" y="272" type="line"/>
      <point x="346" y="241" type="line" smooth="yes"/>
      <point x="353" y="224"/>
      <point x="360" y="205"/>
      <point x="363" y="192" type="curve"/>
      <point x="370" y="173"/>
      <point x="392" y="109"/>
      <point x="399" y="93" type="curve" smooth="yes"/>
      <point x="406" y="75"/>
      <point x="427" y="13"/>
      <point x="434" y="5" type="curve"/>
      <point x="440" y="-8"/>
      <point x="439" y="-13"/>
      <point x="448" y="-13" type="curve" smooth="yes"/>
      <point x="454" y="-13"/>
      <point x="457" y="1"/>
      <point x="460" y="13" type="curve"/>
      <point x="464" y="22"/>
      <point x="502" y="168"/>
      <point x="513" y="196" type="curve" smooth="yes"/>
      <point x="522" y="219"/>
      <point x="522" y="231"/>
      <point x="528" y="245" type="curve" smooth="yes"/>
      <point x="531" y="252"/>
      <point x="552" y="322"/>
      <point x="558" y="351" type="curve"/>
      <point x="568" y="380"/>
      <point x="594" y="486"/>
      <point x="602" y="512" type="curve" smooth="yes"/>
      <point x="612" y="538"/>
      <point x="614" y="556"/>
      <point x="620" y="570" type="curve"/>
      <point x="621" y="575"/>
      <point x="622" y="578"/>
      <point x="622" y="581" type="curve" smooth="yes"/>
      <point x="622" y="586"/>
      <point x="619" y="588"/>
      <point x="612" y="588" type="curve"/>
      <point x="609" y="589"/>
      <point x="605" y="589"/>
      <point x="601" y="589" type="curve" smooth="yes"/>
      <point x="591" y="589"/>
      <point x="560" y="587"/>
      <point x="553" y="586" type="curve"/>
      <point x="544" y="586"/>
      <point x="542" y="578"/>
      <point x="533" y="556" type="curve" smooth="yes"/>
      <point x="524" y="534"/>
      <point x="510" y="488"/>
      <point x="503" y="459" type="curve"/>
      <point x="494" y="426"/>
      <point x="492" y="401"/>
      <point x="486" y="383" type="curve"/>
      <point x="476" y="347"/>
      <point x="475" y="345"/>
      <point x="474" y="342" type="curve"/>
      <point x="459" y="376" type="line"/>
      <point x="433" y="433" type="line"/>
      <point x="416" y="485"/>
      <point x="391" y="534"/>
      <point x="372" y="574" type="curve" smooth="yes"/>
      <point x="367" y="585"/>
      <point x="364" y="588"/>
      <point x="355" y="588" type="curve" smooth="yes"/>
      <point x="345" y="588"/>
      <point x="329" y="549"/>
      <point x="323" y="532" type="curve"/>
      <point x="316" y="512"/>
      <point x="295" y="452"/>
      <point x="286" y="427" type="curve" smooth="yes"/>
      <point x="277" y="402"/>
      <point x="270" y="379"/>
      <point x="263" y="364" type="curve"/>
      <point x="243" y="311" type="line"/>
      <point x="239" y="300" type="line"/>
      <point x="221" y="360" type="line" smooth="yes"/>
      <point x="214" y="384"/>
      <point x="212" y="384"/>
      <point x="200" y="424" type="curve" smooth="yes"/>
      <point x="181" y="487"/>
      <point x="163" y="536"/>
      <point x="157" y="558" type="curve"/>
      <point x="153" y="576"/>
      <point x="152" y="586"/>
      <point x="139" y="582" type="curve" smooth="yes"/>
      <point x="130" y="581" type="line" smooth="yes"/>
      <point x="124" y="580"/>
      <point x="50" y="580"/>
      <point x="42" y="580" type="curve" smooth="yes"/>
      <point x="16" y="580" type="line" smooth="yes"/>
      <point x="13" y="580"/>
      <point x="10" y="580"/>
      <point x="10" y="575" type="curve" smooth="yes"/>
      <point x="10" y="572"/>
      <point x="13" y="567"/>
      <point x="15" y="558" type="curve" smooth="yes"/>
      <point x="22" y="538"/>
      <point x="46" y="468"/>
      <point x="63" y="430" type="curve" smooth="yes"/>
      <point x="77" y="400"/>
      <point x="122" y="260"/>
      <point x="130" y="240" type="curve"/>
      <point x="143" y="209"/>
      <point x="155" y="165"/>
      <point x="165" y="142" type="curve" smooth="yes"/>
      <point x="174" y="119"/>
      <point x="209" y="26"/>
      <point x="213" y="19" type="curve"/>
      <point x="216" y="9"/>
      <point x="225" y="-13"/>
    </contour>
    <contour>
      <point x="338" y="0" type="move" name="bottom"/>
    </contour>
    <contour>
      <point x="349" y="602" type="move" name="top"/>
    </contour>
  </outline>
</glyph>
<glyph name="y" format="1">
  <advance width="488"/>
  <unicode hex="0079"/>
  <outline>
    <contour>
      <point x="256" y="294" type="curve"/>
      <point x="245" y="230" type="line"/>
      <point x="239" y="230" type="line"/>
      <point x="226" y="306" type="line" smooth="yes"/>
      <point x="219" y="345"/>
      <point x="205" y="425"/>
      <point x="202" y="445" type="curve"/>
      <point x="182" y="539"/>
      <point x="176" y="564"/>
      <point x="176" y="561" type="curve"/>
      <point x="172" y="576"/>
      <point x="170" y="586"/>
      <point x="146" y="584" type="curve"/>
      <point x="121" y="584"/>
      <point x="70" y="581"/>
      <point x="51" y="581" type="curve"/>
      <point x="34" y="581"/>
      <point x="12" y="588"/>
      <point x="12" y="577" type="curve"/>
      <point x="12" y="575"/>
      <point x="13" y="573"/>
      <point x="14" y="570" type="curve"/>
      <point x="18" y="549"/>
      <point x="72" y="336"/>
      <point x="84" y="291" type="curve"/>
      <point x="162" y="31" type="line"/>
      <point x="135" y="-67" type="line" smooth="yes"/>
      <point x="125" y="-93"/>
      <point x="125" y="-97"/>
      <point x="111" y="-134" type="curve"/>
      <point x="111" y="-135"/>
      <point x="101" y="-154"/>
      <point x="108" y="-159" type="curve"/>
      <point x="113" y="-163"/>
      <point x="172" y="-157"/>
      <point x="178" y="-157" type="curve"/>
      <point x="219" y="-157"/>
      <point x="217" y="-162"/>
      <point x="259" y="-161" type="curve"/>
      <point x="263" y="-161"/>
      <point x="274" y="-160"/>
      <point x="275" y="-152" type="curve"/>
      <point x="275" y="-151"/>
      <point x="292" y="-100"/>
      <point x="296" y="-79" type="curve"/>
      <point x="315" y="-3"/>
      <point x="327" y="33"/>
      <point x="341" y="94" type="curve"/>
      <point x="353" y="140"/>
      <point x="375" y="246"/>
      <point x="392" y="294" type="curve"/>
      <point x="414" y="352"/>
      <point x="443" y="459"/>
      <point x="451" y="489" type="curve"/>
      <point x="462" y="519"/>
      <point x="470" y="548"/>
      <point x="478" y="562" type="curve"/>
      <point x="479" y="567"/>
      <point x="480" y="570"/>
      <point x="480" y="574" type="curve"/>
      <point x="480" y="578"/>
      <point x="477" y="581"/>
      <point x="464" y="583" type="curve"/>
      <point x="441" y="585"/>
      <point x="368" y="585"/>
      <point x="354" y="585" type="curve"/>
      <point x="336" y="585"/>
      <point x="325" y="590"/>
      <point x="322" y="558" type="curve"/>
      <point x="319" y="525"/>
      <point x="296" y="453"/>
      <point x="279" y="388" type="curve"/>
      <point x="275" y="372"/>
      <point x="259" y="318"/>
    </contour>
    <contour>
      <point x="251" y="0" type="move" name="bottom"/>
    </contour>
    <contour>
      <point x="253" y="602" type="move" name="top"/>
    </contour>
  </outline>
</glyph>
<glyph name="asciitilde" format="1">
  <advance width="558"/>
  <unicode hex="007E"/>
  <outline>
    <contour>
      <point x="138" y="305" type="curve"/>
      <point x="186" y="305"/>
      <point x="206" y="312"/>
      <point x="249" y="315" type="curve" smooth="yes"/>
      <point x="293" y="319"/>
      <point x="323" y="328"/>
      <point x="380" y="332" type="curve"/>
      <point x="410" y="332"/>
      <point x="439" y="315"/>
      <point x="462" y="315" type="curve" smooth="yes"/>
      <point x="481" y="315"/>
      <point x="491" y="322"/>
      <point x="491" y="336" type="curve"/>
      <point x="491" y="357" type="line"/>
      <point x="489" y="368"/>
      <point x="501" y="389"/>
      <point x="455" y="391" type="curve"/>
      <point x="432" y="395"/>
      <point x="405" y="397"/>
      <point x="375" y="397" type="curve" smooth="yes"/>
      <point x="311" y="397"/>
      <point x="262" y="393"/>
      <point x="227" y="385" type="curve" smooth="yes"/>
      <point x="192" y="378"/>
      <point x="173" y="374"/>
      <point x="138" y="374" type="curve"/>
      <point x="103" y="381"/>
      <point x="79" y="396"/>
      <point x="68" y="393" type="curve" smooth="yes"/>
      <point x="63" y="392"/>
      <point x="59" y="389"/>
      <point x="58" y="386" type="curve" smooth="yes"/>
      <point x="55" y="370"/>
      <point x="56" y="348"/>
      <point x="56" y="336" type="curve"/>
      <point x="53" y="323"/>
      <point x="63" y="307"/>
    </contour>
  </outline>
</glyph>
<glyph name="exclamdown" format="1">
  <advance width="218"/>
  <unicode hex="00A1"/>
  <outline>
    <contour>
      <point x="39" y="655" type="curve"/>
      <point x="39" y="629"/>
      <point x="56" y="588"/>
      <point x="104" y="588" type="curve"/>
      <point x="128" y="588"/>
      <point x="163" y="595"/>
      <point x="171" y="637" type="curve"/>
      <point x="172" y="642"/>
      <point x="172" y="646"/>
      <point x="172" y="651" type="curve"/>
      <point x="172" y="691"/>
      <point x="143" y="726"/>
      <point x="110" y="726" type="curve"/>
      <point x="71" y="726"/>
      <point x="40" y="685"/>
      <point x="40" y="665" type="curve"/>
      <point x="39" y="662"/>
      <point x="39" y="659"/>
    </contour>
    <contour>
      <point x="157" y="171" type="curve"/>
      <point x="154" y="240"/>
      <point x="153" y="297"/>
      <point x="152" y="343" type="curve"/>
      <point x="152" y="422" type="line"/>
      <point x="153" y="443"/>
      <point x="154" y="464"/>
      <point x="154" y="481" type="curve"/>
      <point x="154" y="492"/>
      <point x="153" y="501"/>
      <point x="152" y="507" type="curve"/>
      <point x="151" y="523"/>
      <point x="150" y="538"/>
      <point x="135" y="538" type="curve"/>
      <point x="128" y="538"/>
      <point x="120" y="537"/>
      <point x="112" y="537" type="curve"/>
      <point x="105" y="537"/>
      <point x="98" y="538"/>
      <point x="90" y="538" type="curve"/>
      <point x="75" y="539"/>
      <point x="67" y="538"/>
      <point x="67" y="522" type="curve"/>
      <point x="67" y="521"/>
      <point x="67" y="520"/>
      <point x="67" y="519" type="curve"/>
      <point x="67" y="509"/>
      <point x="68" y="486"/>
      <point x="68" y="463" type="curve"/>
      <point x="68" y="452"/>
      <point x="68" y="441"/>
      <point x="67" y="432" type="curve"/>
      <point x="67" y="422"/>
      <point x="67" y="415"/>
      <point x="66" y="411" type="curve"/>
      <point x="65" y="407"/>
      <point x="66" y="392"/>
      <point x="67" y="367" type="curve"/>
      <point x="67" y="357"/>
      <point x="68" y="345"/>
      <point x="68" y="332" type="curve"/>
      <point x="68" y="314"/>
      <point x="67" y="294"/>
      <point x="66" y="271" type="curve"/>
      <point x="59" y="188"/>
      <point x="56" y="132"/>
      <point x="56" y="103" type="curve"/>
      <point x="57" y="89"/>
      <point x="57" y="76"/>
      <point x="57" y="65" type="curve"/>
      <point x="57" y="54"/>
      <point x="57" y="46"/>
      <point x="56" y="39" type="curve"/>
      <point x="55" y="30"/>
      <point x="53" y="23"/>
      <point x="53" y="17" type="curve"/>
      <point x="53" y="8"/>
      <point x="58" y="3"/>
      <point x="75" y="1" type="curve"/>
      <point x="99" y="1"/>
      <point x="121" y="1"/>
      <point x="141" y="0" type="curve"/>
      <point x="148" y="0"/>
      <point x="162" y="-1"/>
      <point x="162" y="11" type="curve"/>
      <point x="162" y="11"/>
      <point x="162" y="12"/>
      <point x="162" y="12" type="curve"/>
      <point x="161" y="19"/>
      <point x="161" y="28"/>
      <point x="161" y="38" type="curve"/>
      <point x="162" y="58"/>
      <point x="160" y="102"/>
    </contour>
  </outline>
</glyph>
<glyph name="dieresis" format="1">
  <advance width="455"/>
  <unicode hex="00A8"/>
  <outline>
    <contour>
      <point x="327" y="603" type="curve" smooth="yes"/>
      <point x="370" y="603"/>
      <point x="390" y="630"/>
      <point x="390" y="657" type="curve" smooth="yes"/>
      <point x="390" y="688"/>
      <point x="374" y="719"/>
      <point x="347" y="719" type="curve" smooth="yes"/>
      <point x="320" y="719"/>
      <point x="273" y="712"/>
      <point x="273" y="657" type="curve" smooth="yes"/>
      <point x="273" y="634"/>
      <point x="283" y="603"/>
    </contour>
    <contour>
      <point x="122" y="599" type="curve" smooth="yes"/>
      <point x="147" y="599"/>
      <point x="184" y="624"/>
      <point x="184" y="661" type="curve" smooth="yes"/>
      <point x="184" y="696"/>
      <point x="149" y="712"/>
      <point x="118" y="712" type="curve" smooth="yes"/>
      <point x="87" y="712"/>
      <point x="64" y="684"/>
      <point x="64" y="657" type="curve" smooth="yes"/>
      <point x="64" y="621"/>
      <point x="95" y="599"/>
    </contour>
  </outline>
</glyph>
<glyph name="macron" format="1">
  <advance width="357"/>
  <unicode hex="00AF"/>
  <outline>
    <contour>
      <point x="38" y="629" type="curve"/>
      <point x="43" y="632"/>
      <point x="81" y="632"/>
      <point x="89" y="632" type="curve" smooth="yes"/>
      <point x="221" y="632" type="line" smooth="yes"/>
      <point x="245" y="632"/>
      <point x="287" y="629"/>
      <point x="305" y="629" type="curve" smooth="yes"/>
      <point x="324" y="629"/>
      <point x="327" y="633"/>
      <point x="327" y="642" type="curve" smooth="yes"/>
      <point x="327" y="672" type="line" smooth="yes"/>
      <point x="327" y="681"/>
      <point x="327" y="689"/>
      <point x="316" y="689" type="curve" smooth="yes"/>
      <point x="314" y="689"/>
      <point x="312" y="688"/>
      <point x="309" y="688" type="curve"/>
      <point x="41" y="688" type="line" smooth="yes"/>
      <point x="32" y="688"/>
      <point x="30" y="682"/>
      <point x="30" y="669" type="curve" smooth="yes"/>
      <point x="30" y="642" type="line" smooth="yes"/>
      <point x="30" y="635"/>
      <point x="30" y="629"/>
    </contour>
  </outline>
</glyph>
<glyph name="uni00B2" format="1">
  <advance width="341"/>
  <unicode hex="00B2"/>
  <outline>
    <contour>
      <point x="54" y="660" type="curve"/>
      <point x="50" y="656"/>
      <point x="47" y="652"/>
      <point x="54" y="648" type="curve"/>
      <point x="62" y="639" type="line"/>
      <point x="66" y="632"/>
      <point x="67" y="629"/>
      <point x="72" y="628" type="curve"/>
      <point x="78" y="628"/>
      <point x="94" y="652"/>
      <point x="111" y="659" type="curve"/>
      <point x="126" y="664"/>
      <point x="149" y="672"/>
      <point x="170" y="672" type="curve"/>
      <point x="187" y="672"/>
      <point x="203" y="662"/>
      <point x="208" y="653" type="curve"/>
      <point x="212" y="648"/>
      <point x="216" y="637"/>
      <point x="216" y="624" type="curve"/>
      <point x="216" y="615"/>
      <point x="214" y="606"/>
      <point x="210" y="596" type="curve"/>
      <point x="185" y="544"/>
      <point x="149" y="514"/>
      <point x="124" y="487" type="curve"/>
      <point x="105" y="468"/>
      <point x="71" y="430"/>
      <point x="43" y="395" type="curve"/>
      <point x="42" y="374"/>
      <point x="41" y="371"/>
      <point x="41" y="366" type="curve"/>
      <point x="41" y="361"/>
      <point x="46" y="360"/>
      <point x="51" y="360" type="curve"/>
      <point x="54" y="360"/>
      <point x="57" y="361"/>
      <point x="59" y="361" type="curve"/>
      <point x="180" y="361" type="line"/>
      <point x="187" y="360"/>
      <point x="197" y="360"/>
      <point x="208" y="360" type="curve"/>
      <point x="231" y="360"/>
      <point x="257" y="361"/>
      <point x="267" y="361" type="curve"/>
      <point x="284" y="361"/>
      <point x="290" y="362"/>
      <point x="290" y="375" type="curve"/>
      <point x="290" y="388"/>
      <point x="289" y="424"/>
      <point x="290" y="432" type="curve"/>
      <point x="290" y="441"/>
      <point x="293" y="448"/>
      <point x="272" y="448" type="curve"/>
      <point x="259" y="446"/>
      <point x="233" y="446"/>
      <point x="210" y="446" type="curve"/>
      <point x="194" y="446"/>
      <point x="180" y="446"/>
      <point x="171" y="446" type="curve"/>
      <point x="151" y="445"/>
      <point x="149" y="446"/>
      <point x="145" y="446" type="curve"/>
      <point x="141" y="446"/>
      <point x="146" y="450"/>
      <point x="149" y="453" type="curve"/>
      <point x="153" y="454"/>
      <point x="190" y="486"/>
      <point x="208" y="512" type="curve"/>
      <point x="223" y="529"/>
      <point x="236" y="543"/>
      <point x="241" y="551" type="curve"/>
      <point x="258" y="576"/>
      <point x="279" y="601"/>
      <point x="279" y="642" type="curve"/>
      <point x="279" y="661"/>
      <point x="271" y="680"/>
      <point x="255" y="695" type="curve"/>
      <point x="240" y="710"/>
      <point x="208" y="719"/>
      <point x="180" y="719" type="curve"/>
      <point x="149" y="714"/>
      <point x="95" y="698"/>
      <point x="79" y="686" type="curve"/>
      <point x="60" y="671"/>
      <point x="57" y="663"/>
    </contour>
  </outline>
</glyph>
<glyph name="acute" format="1">
  <advance width="238"/>
  <unicode hex="00B4"/>
  <outline>
    <contour>
      <point x="58" y="607" type="curve" smooth="yes"/>
      <point x="67" y="607"/>
      <point x="76" y="611"/>
      <point x="90" y="616" type="curve"/>
      <point x="125" y="630"/>
      <point x="141" y="639"/>
      <point x="175" y="649" type="curve" smooth="yes"/>
      <point x="185" y="652"/>
      <point x="218" y="666"/>
      <point x="224" y="683" type="curve"/>
      <point x="228" y="705"/>
      <point x="221" y="711"/>
      <point x="207" y="711" type="curve" smooth="yes"/>
      <point x="202" y="711"/>
      <point x="195" y="710"/>
      <point x="187" y="709" type="curve" smooth="yes"/>
      <point x="179" y="708"/>
      <point x="164" y="706"/>
      <point x="152" y="702" type="curve"/>
      <point x="130" y="694" type="line"/>
      <point x="88" y="679"/>
      <point x="83" y="679"/>
      <point x="69" y="671" type="curve"/>
      <point x="59" y="668"/>
      <point x="21" y="653"/>
      <point x="19" y="646" type="curve" smooth="yes"/>
      <point x="18" y="642"/>
      <point x="17" y="639"/>
      <point x="17" y="636" type="curve" smooth="yes"/>
      <point x="17" y="624"/>
      <point x="28" y="617"/>
      <point x="37" y="614" type="curve"/>
      <point x="45" y="609"/>
      <point x="51" y="607"/>
    </contour>
  </outline>
</glyph>
<glyph name="periodcentered" format="1">
  <advance width="235"/>
  <unicode hex="00B7"/>
  <outline>
    <contour>
      <point x="117" y="278" type="curve" smooth="yes"/>
      <point x="154" y="278"/>
      <point x="193" y="304"/>
      <point x="193" y="337" type="curve" smooth="yes"/>
      <point x="193" y="369"/>
      <point x="187" y="426"/>
      <point x="117" y="426" type="curve" smooth="yes"/>
      <point x="84" y="426"/>
      <point x="45" y="417"/>
      <point x="45" y="358" type="curve" smooth="yes"/>
      <point x="45" y="303"/>
      <point x="81" y="278"/>
    </contour>
  </outline>
</glyph>
<glyph name="cedilla" format="1">
  <advance width="293"/>
  <unicode hex="00B8"/>
  <outline>
    <contour>
      <point x="126" y="-190" type="curve" smooth="yes"/>
      <point x="171" y="-190"/>
      <point x="178" y="-184"/>
      <point x="189" y="-180" type="curve" smooth="yes"/>
      <point x="194" y="-178"/>
      <point x="199" y="-174"/>
      <point x="204" y="-169" type="curve" smooth="yes"/>
      <point x="214" y="-159"/>
      <point x="235" y="-148"/>
      <point x="235" y="-115" type="curve"/>
      <point x="235" y="-60"/>
      <point x="206" y="-45"/>
      <point x="173" y="-45" type="curve" smooth="yes"/>
      <point x="142" y="-45"/>
      <point x="138" y="-47"/>
      <point x="125" y="-54" type="curve"/>
      <point x="132" y="-28"/>
      <point x="143" y="-8"/>
      <point x="168" y="31" type="curve"/>
      <point x="117" y="31" type="line"/>
      <point x="104" y="-1"/>
      <point x="95" y="-27"/>
      <point x="92" y="-48" type="curve"/>
      <point x="88" y="-64"/>
      <point x="85" y="-67"/>
      <point x="85" y="-84" type="curve"/>
      <point x="86" y="-91"/>
      <point x="92" y="-92"/>
      <point x="116" y="-92" type="curve" smooth="yes"/>
      <point x="123" y="-92"/>
      <point x="134" y="-78"/>
      <point x="149" y="-78" type="curve" smooth="yes"/>
      <point x="168" y="-78"/>
      <point x="173" y="-92"/>
      <point x="173" y="-111" type="curve"/>
      <point x="167" y="-136"/>
      <point x="158" y="-135"/>
      <point x="132" y="-137" type="curve"/>
      <point x="115" y="-137"/>
      <point x="107" y="-135"/>
      <point x="94" y="-131" type="curve"/>
      <point x="81" y="-124"/>
      <point x="74" y="-118"/>
      <point x="70" y="-118" type="curve" smooth="yes"/>
      <point x="68" y="-118"/>
      <point x="67" y="-119"/>
      <point x="67" y="-122" type="curve" smooth="yes"/>
      <point x="67" y="-146"/>
      <point x="59" y="-160"/>
      <point x="59" y="-171" type="curve" smooth="yes"/>
      <point x="59" y="-182"/>
      <point x="95" y="-190"/>
    </contour>
  </outline>
</glyph>
<glyph name="guillemetright" format="1">
  <advance width="616"/>
  <unicode hex="00BB"/>
  <outline>
    <contour>
      <point x="391" y="75" type="curve" smooth="yes"/>
      <point x="410" y="75"/>
      <point x="429" y="77"/>
      <point x="443" y="77" type="curve" smooth="yes"/>
      <point x="458" y="77"/>
      <point x="472" y="87"/>
      <point x="476" y="112" type="curve"/>
      <point x="479" y="125"/>
      <point x="489" y="154"/>
      <point x="497" y="175" type="curve" smooth="yes"/>
      <point x="502" y="186"/>
      <point x="518" y="215"/>
      <point x="546" y="263" type="curve" smooth="yes"/>
      <point x="575" y="311"/>
      <point x="589" y="342"/>
      <point x="590" y="356" type="curve"/>
      <point x="577" y="373"/>
      <point x="564" y="387"/>
      <point x="553" y="398" type="curve" smooth="yes"/>
      <point x="542" y="409"/>
      <point x="528" y="426"/>
      <point x="510" y="447" type="curve" smooth="yes"/>
      <point x="492" y="468"/>
      <point x="481" y="482"/>
      <point x="478" y="488" type="curve" smooth="yes"/>
      <point x="471" y="500"/>
      <point x="459" y="522"/>
      <point x="444" y="541" type="curve" smooth="yes"/>
      <point x="429" y="561"/>
      <point x="430" y="573"/>
      <point x="422" y="581" type="curve"/>
      <point x="411" y="597"/>
      <point x="406" y="620"/>
      <point x="395" y="620" type="curve" smooth="yes"/>
      <point x="392" y="620"/>
      <point x="380" y="620"/>
      <point x="360" y="619" type="curve"/>
      <point x="323" y="619" type="line" smooth="yes"/>
      <point x="312" y="619"/>
      <point x="299" y="618"/>
      <point x="294" y="618" type="curve" smooth="yes"/>
      <point x="287" y="618"/>
      <point x="283" y="616"/>
      <point x="283" y="613" type="curve" smooth="yes"/>
      <point x="283" y="609"/>
      <point x="287" y="604"/>
      <point x="294" y="596" type="curve" smooth="yes"/>
      <point x="306" y="580"/>
      <point x="424" y="419"/>
      <point x="440" y="403" type="curve"/>
      <point x="447" y="394"/>
      <point x="457" y="379"/>
      <point x="468" y="359" type="curve"/>
      <point x="435" y="316" type="line" smooth="yes"/>
      <point x="428" y="306"/>
      <point x="416" y="291"/>
      <point x="400" y="271" type="curve"/>
      <point x="369" y="236"/>
      <point x="362" y="219"/>
      <point x="342" y="192" type="curve" smooth="yes"/>
      <point x="323" y="167"/>
      <point x="311" y="136"/>
      <point x="304" y="125" type="curve" smooth="yes"/>
      <point x="297" y="114"/>
      <point x="293" y="104"/>
      <point x="293" y="96" type="curve" smooth="yes"/>
      <point x="293" y="88"/>
      <point x="297" y="82"/>
      <point x="307" y="80" type="curve" smooth="yes"/>
      <point x="330" y="74"/>
      <point x="366" y="75"/>
    </contour>
    <contour>
      <point x="137" y="74" type="curve"/>
      <point x="172" y="74" type="line" smooth="yes"/>
      <point x="183" y="74"/>
      <point x="186" y="97"/>
      <point x="194" y="113" type="curve"/>
      <point x="202" y="121"/>
      <point x="200" y="133"/>
      <point x="211" y="152" type="curve" smooth="yes"/>
      <point x="223" y="172"/>
      <point x="234" y="194"/>
      <point x="239" y="206" type="curve" smooth="yes"/>
      <point x="242" y="212"/>
      <point x="250" y="226"/>
      <point x="265" y="247" type="curve" smooth="yes"/>
      <point x="280" y="268"/>
      <point x="293" y="284"/>
      <point x="302" y="295" type="curve" smooth="yes"/>
      <point x="312" y="306"/>
      <point x="323" y="321"/>
      <point x="334" y="338" type="curve"/>
      <point x="332" y="352"/>
      <point x="323" y="371"/>
      <point x="307" y="395" type="curve"/>
      <point x="292" y="420"/>
      <point x="277" y="442"/>
      <point x="263" y="462" type="curve" smooth="yes"/>
      <point x="250" y="482"/>
      <point x="235" y="504"/>
      <point x="218" y="527" type="curve" smooth="yes"/>
      <point x="201" y="550"/>
      <point x="190" y="569"/>
      <point x="183" y="582" type="curve"/>
      <point x="168" y="616"/>
      <point x="162" y="617"/>
      <point x="112" y="617" type="curve" smooth="yes"/>
      <point x="104" y="617"/>
      <point x="95" y="617"/>
      <point x="84" y="614" type="curve" smooth="yes"/>
      <point x="76" y="612"/>
      <point x="72" y="608"/>
      <point x="72" y="601" type="curve" smooth="yes"/>
      <point x="72" y="593"/>
      <point x="78" y="582"/>
      <point x="87" y="569" type="curve" smooth="yes"/>
      <point x="95" y="558"/>
      <point x="130" y="498"/>
      <point x="183" y="423" type="curve"/>
      <point x="202" y="404"/>
      <point x="217" y="384"/>
      <point x="228" y="363" type="curve"/>
      <point x="218" y="334"/>
      <point x="205" y="310"/>
      <point x="190" y="291" type="curve"/>
      <point x="173" y="277"/>
      <point x="81" y="112"/>
      <point x="68" y="98" type="curve" smooth="yes"/>
      <point x="62" y="91"/>
      <point x="59" y="86"/>
      <point x="59" y="82" type="curve" smooth="yes"/>
      <point x="59" y="78"/>
      <point x="63" y="76"/>
      <point x="71" y="76" type="curve" smooth="yes"/>
      <point x="76" y="76"/>
      <point x="89" y="75"/>
      <point x="100" y="75" type="curve" smooth="yes"/>
      <point x="105" y="75"/>
      <point x="118" y="75"/>
    </contour>
  </outline>
</glyph>
<glyph name="questiondown" format="1">
  <advance width="366"/>
  <unicode hex="00BF"/>
  <outline>
    <contour>
      <point x="128" y="652" type="curve"/>
      <point x="128" y="626"/>
      <point x="145" y="585"/>
      <point x="193" y="585" type="curve"/>
      <point x="217" y="585"/>
      <point x="252" y="592"/>
      <point x="260" y="634" type="curve"/>
      <point x="261" y="639"/>
      <point x="261" y="643"/>
      <point x="261" y="648" type="curve"/>
      <point x="261" y="688"/>
      <point x="232" y="723"/>
      <point x="199" y="723" type="curve"/>
      <point x="160" y="723"/>
      <point x="129" y="682"/>
      <point x="129" y="662" type="curve"/>
      <point x="128" y="659"/>
      <point x="128" y="656"/>
    </contour>
    <contour>
      <point x="20" y="182" type="curve"/>
      <point x="20" y="59"/>
      <point x="84" y="-15"/>
      <point x="151" y="-15" type="curve"/>
      <point x="155" y="-15"/>
      <point x="193" y="-14"/>
      <point x="217" y="-7" type="curve"/>
      <point x="241" y="-2"/>
      <point x="261" y="9"/>
      <point x="288" y="26" type="curve"/>
      <point x="305" y="37"/>
      <point x="327" y="56"/>
      <point x="346" y="77" type="curve"/>
      <point x="357" y="82"/>
      <point x="335" y="107"/>
      <point x="332" y="110" type="curve"/>
      <point x="321" y="120"/>
      <point x="309" y="131"/>
      <point x="298" y="131" type="curve"/>
      <point x="295" y="131"/>
      <point x="291" y="130"/>
      <point x="288" y="127" type="curve"/>
      <point x="256" y="96"/>
      <point x="237" y="81"/>
      <point x="220" y="73" type="curve"/>
      <point x="205" y="68"/>
      <point x="191" y="65"/>
      <point x="177" y="65" type="curve"/>
      <point x="157" y="65"/>
      <point x="138" y="72"/>
      <point x="119" y="92" type="curve"/>
      <point x="107" y="115"/>
      <point x="100" y="137"/>
      <point x="100" y="159" type="curve"/>
      <point x="100" y="185"/>
      <point x="109" y="211"/>
      <point x="126" y="237" type="curve"/>
      <point x="144" y="276"/>
      <point x="230" y="359"/>
      <point x="230" y="415" type="curve"/>
      <point x="230" y="444"/>
      <point x="233" y="471"/>
      <point x="233" y="493" type="curve"/>
      <point x="233" y="503"/>
      <point x="232" y="513"/>
      <point x="230" y="521" type="curve"/>
      <point x="230" y="528"/>
      <point x="222" y="537"/>
      <point x="209" y="541" type="curve"/>
      <point x="202" y="543"/>
      <point x="197" y="544"/>
      <point x="193" y="544" type="curve"/>
      <point x="188" y="544"/>
      <point x="184" y="543"/>
      <point x="175" y="541" type="curve"/>
      <point x="168" y="538"/>
      <point x="159" y="528"/>
      <point x="156" y="517" type="curve"/>
      <point x="151" y="508"/>
      <point x="149" y="491"/>
      <point x="149" y="466" type="curve"/>
      <point x="149" y="425"/>
      <point x="137" y="385"/>
      <point x="109" y="358" type="curve"/>
      <point x="80" y="329"/>
      <point x="20" y="257"/>
    </contour>
  </outline>
</glyph>
<glyph name="AE" format="1">
  <advance width="886"/>
  <unicode hex="00C6"/>
  <outline>
    <contour>
      <point x="28" y="0" type="curve" smooth="yes"/>
      <point x="48" y="0" type="line" smooth="yes"/>
      <point x="57" y="0"/>
      <point x="57" y="1"/>
      <point x="61" y="9" type="curve" smooth="yes"/>
      <point x="73" y="35" type="line" smooth="yes"/>
      <point x="80" y="48"/>
      <point x="85" y="63"/>
      <point x="89" y="67" type="curve"/>
      <point x="94" y="75"/>
      <point x="101" y="92"/>
      <point x="104" y="100" type="curve"/>
      <point x="109" y="108"/>
      <point x="140" y="186"/>
      <point x="148" y="202" type="curve" smooth="yes"/>
      <point x="156" y="221" type="line"/>
      <point x="160" y="231" type="line" smooth="yes"/>
      <point x="164" y="239"/>
      <point x="167" y="242"/>
      <point x="171" y="242" type="curve" smooth="yes"/>
      <point x="172" y="242"/>
      <point x="172" y="242"/>
      <point x="173" y="242" type="curve"/>
      <point x="280" y="242" type="line" smooth="yes"/>
      <point x="295" y="242"/>
      <point x="304" y="242"/>
      <point x="309" y="243" type="curve"/>
      <point x="316" y="243"/>
      <point x="335" y="244"/>
      <point x="352" y="245" type="curve" smooth="yes"/>
      <point x="362" y="246"/>
      <point x="372" y="246"/>
      <point x="383" y="246" type="curve" smooth="yes"/>
      <point x="390" y="246"/>
      <point x="392" y="246"/>
      <point x="396" y="230" type="curve"/>
      <point x="402" y="165" type="line"/>
      <point x="405" y="144"/>
      <point x="408" y="124"/>
      <point x="409" y="105" type="curve"/>
      <point x="414" y="69"/>
      <point x="413" y="64"/>
      <point x="416" y="45" type="curve" smooth="yes"/>
      <point x="417" y="34"/>
      <point x="418" y="22"/>
      <point x="420" y="9" type="curve" smooth="yes"/>
      <point x="421" y="1"/>
      <point x="424" y="0"/>
      <point x="429" y="0" type="curve" smooth="yes"/>
      <point x="570" y="2" type="line"/>
      <point x="587" y="3"/>
      <point x="601" y="3"/>
      <point x="613" y="3" type="curve" smooth="yes"/>
      <point x="660" y="3"/>
      <point x="757" y="1"/>
      <point x="790" y="1" type="curve" smooth="yes"/>
      <point x="822" y="1"/>
      <point x="838" y="-5"/>
      <point x="835" y="23" type="curve"/>
      <point x="835" y="107" type="line"/>
      <point x="832" y="124"/>
      <point x="827" y="135"/>
      <point x="799" y="134" type="curve" smooth="yes"/>
      <point x="790" y="133"/>
      <point x="777" y="133"/>
      <point x="762" y="133" type="curve" smooth="yes"/>
      <point x="722" y="133"/>
      <point x="668" y="135"/>
      <point x="635" y="135" type="curve" smooth="yes"/>
      <point x="590" y="135"/>
      <point x="541" y="134"/>
      <point x="518" y="134" type="curve" smooth="yes"/>
      <point x="507" y="134"/>
      <point x="497" y="133"/>
      <point x="490" y="133" type="curve"/>
      <point x="486" y="132"/>
      <point x="482" y="132"/>
      <point x="479" y="132" type="curve"/>
      <point x="467" y="232" type="line"/>
      <point x="468" y="231"/>
      <point x="470" y="231"/>
      <point x="473" y="231" type="curve"/>
      <point x="475" y="230"/>
      <point x="479" y="230"/>
      <point x="486" y="230" type="curve" smooth="yes"/>
      <point x="497" y="230"/>
      <point x="539" y="238"/>
      <point x="603" y="238" type="curve" smooth="yes"/>
      <point x="666" y="238"/>
      <point x="687" y="236"/>
      <point x="703" y="236" type="curve" smooth="yes"/>
      <point x="717" y="236"/>
      <point x="729" y="227"/>
      <point x="729" y="243" type="curve" smooth="yes"/>
      <point x="729" y="245"/>
      <point x="729" y="247"/>
      <point x="729" y="249" type="curve" smooth="yes"/>
      <point x="729" y="264"/>
      <point x="727" y="271"/>
      <point x="727" y="281" type="curve" smooth="yes"/>
      <point x="727" y="287"/>
      <point x="728" y="293"/>
      <point x="729" y="302" type="curve"/>
      <point x="729" y="322" type="line" smooth="yes"/>
      <point x="729" y="343"/>
      <point x="722" y="346"/>
      <point x="715" y="346" type="curve" smooth="yes"/>
      <point x="712" y="346"/>
      <point x="708" y="345"/>
      <point x="705" y="345" type="curve" smooth="yes"/>
      <point x="694" y="345"/>
      <point x="680" y="348"/>
      <point x="656" y="348" type="curve" smooth="yes"/>
      <point x="632" y="348"/>
      <point x="587" y="344"/>
      <point x="550" y="344" type="curve" smooth="yes"/>
      <point x="511" y="344" type="line" smooth="yes"/>
      <point x="499" y="344"/>
      <point x="489" y="344"/>
      <point x="480" y="345" type="curve"/>
      <point x="470" y="345"/>
      <point x="461" y="345"/>
      <point x="453" y="346" type="curve"/>
      <point x="451" y="357"/>
      <point x="449" y="367"/>
      <point x="448" y="378" type="curve" smooth="yes"/>
      <point x="441" y="437" type="line"/>
      <point x="438" y="472"/>
      <point x="433" y="517"/>
      <point x="433" y="533" type="curve"/>
      <point x="432" y="539"/>
      <point x="431" y="543"/>
      <point x="431" y="546" type="curve" smooth="yes"/>
      <point x="431" y="551"/>
      <point x="433" y="553"/>
      <point x="440" y="553" type="curve" smooth="yes"/>
      <point x="516" y="553" type="line" smooth="yes"/>
      <point x="527" y="553"/>
      <point x="537" y="553"/>
      <point x="546" y="554" type="curve" smooth="yes"/>
      <point x="555" y="555"/>
      <point x="564" y="555"/>
      <point x="573" y="555" type="curve" smooth="yes"/>
      <point x="598" y="555"/>
      <point x="624" y="553"/>
      <point x="649" y="553" type="curve" smooth="yes"/>
      <point x="691" y="553"/>
      <point x="721" y="553"/>
      <point x="737" y="550" type="curve" smooth="yes"/>
      <point x="747" y="548"/>
      <point x="774" y="534"/>
      <point x="771" y="560" type="curve"/>
      <point x="772" y="573"/>
      <point x="772" y="588"/>
      <point x="772" y="606" type="curve" smooth="yes"/>
      <point x="772" y="629"/>
      <point x="770" y="648"/>
      <point x="770" y="673" type="curve"/>
      <point x="769" y="691"/>
      <point x="765" y="700"/>
      <point x="758" y="700" type="curve" smooth="yes"/>
      <point x="751" y="701"/>
      <point x="742" y="701"/>
      <point x="733" y="701" type="curve" smooth="yes"/>
      <point x="714" y="701"/>
      <point x="662" y="705"/>
      <point x="621" y="705" type="curve" smooth="yes"/>
      <point x="601" y="705"/>
      <point x="575" y="703"/>
      <point x="548" y="700" type="curve"/>
      <point x="508" y="697" type="line" smooth="yes"/>
      <point x="495" y="696"/>
      <point x="483" y="696"/>
      <point x="472" y="696" type="curve" smooth="yes"/>
      <point x="449" y="696"/>
      <point x="432" y="696"/>
      <point x="421" y="697" type="curve" smooth="yes"/>
      <point x="401" y="699" type="line"/>
      <point x="400" y="701"/>
      <point x="400" y="703"/>
      <point x="400" y="705" type="curve" smooth="yes"/>
      <point x="398" y="715"/>
      <point x="395" y="720"/>
      <point x="390" y="720" type="curve" smooth="yes"/>
      <point x="371" y="720"/>
      <point x="358" y="700"/>
      <point x="345" y="672" type="curve" smooth="yes"/>
      <point x="333" y="647" type="line"/>
      <point x="318" y="618" type="line" smooth="yes"/>
      <point x="309" y="599"/>
      <point x="298" y="582"/>
      <point x="294" y="574" type="curve" smooth="yes"/>
      <point x="285" y="559"/>
      <point x="272" y="533"/>
      <point x="257" y="504" type="curve"/>
      <point x="209" y="401" type="line" smooth="yes"/>
      <point x="198" y="378"/>
      <point x="176" y="337"/>
      <point x="163" y="306" type="curve" smooth="yes"/>
      <point x="152" y="277"/>
      <point x="122" y="218"/>
      <point x="108" y="191" type="curve" smooth="yes"/>
      <point x="95" y="164"/>
      <point x="80" y="134"/>
      <point x="75" y="118" type="curve" smooth="yes"/>
      <point x="68" y="99"/>
      <point x="56" y="80"/>
      <point x="51" y="69" type="curve" smooth="yes"/>
      <point x="46" y="57"/>
      <point x="39" y="43"/>
      <point x="35" y="32" type="curve"/>
      <point x="28" y="18" type="line" smooth="yes"/>
      <point x="27" y="16"/>
      <point x="26" y="14"/>
      <point x="26" y="13" type="curve" smooth="yes"/>
      <point x="24" y="9"/>
      <point x="22" y="6"/>
      <point x="22" y="4" type="curve" smooth="yes"/>
      <point x="22" y="1"/>
      <point x="24" y="0"/>
    </contour>
    <contour>
      <point x="223" y="308" type="line" smooth="yes"/>
      <point x="214" y="308"/>
      <point x="197" y="305"/>
      <point x="197" y="316" type="curve" smooth="yes"/>
      <point x="197" y="318"/>
      <point x="198" y="321"/>
      <point x="200" y="325" type="curve" smooth="yes"/>
      <point x="213" y="346"/>
      <point x="247" y="421"/>
      <point x="258" y="445" type="curve"/>
      <point x="268" y="463"/>
      <point x="293" y="518"/>
      <point x="310" y="554" type="curve" smooth="yes"/>
      <point x="324" y="581" type="line" smooth="yes"/>
      <point x="335" y="604"/>
      <point x="346" y="630"/>
      <point x="350" y="630" type="curve" smooth="yes"/>
      <point x="354" y="630"/>
      <point x="356" y="595"/>
      <point x="359" y="577" type="curve"/>
      <point x="359" y="560"/>
      <point x="365" y="484"/>
      <point x="368" y="453" type="curve" smooth="yes"/>
      <point x="369" y="446"/>
      <point x="371" y="436"/>
      <point x="372" y="425" type="curve" smooth="yes"/>
      <point x="376" y="392" type="line" smooth="yes"/>
      <point x="379" y="371"/>
      <point x="380" y="349"/>
      <point x="381" y="340" type="curve" smooth="yes"/>
      <point x="382" y="331"/>
      <point x="384" y="324"/>
      <point x="384" y="320" type="curve" smooth="yes"/>
      <point x="384" y="314"/>
      <point x="381" y="311"/>
      <point x="370" y="311" type="curve"/>
      <point x="298" y="311" type="line" smooth="yes"/>
      <point x="291" y="311"/>
      <point x="285" y="311"/>
      <point x="281" y="310" type="curve"/>
      <point x="271" y="310"/>
      <point x="250" y="308"/>
      <point x="234" y="308" type="curve" smooth="yes"/>
    </contour>
    <contour>
      <point x="443" y="0" type="move" name="bottom"/>
    </contour>
    <contour>
      <point x="523" y="710" type="move" name="top"/>
    </contour>
  </outline>
</glyph>
<glyph name="Ccedilla" format="1">
  <advance width="509"/>
  <unicode hex="00C7"/>
  <outline>
    <contour>
      <point x="495" y="144" type="curve"/>
      <point x="495" y="154"/>
      <point x="482" y="157"/>
      <point x="467" y="164" type="curve"/>
      <point x="382" y="211" type="line" smooth="yes"/>
      <point x="377" y="214"/>
      <point x="373" y="215"/>
      <point x="370" y="215" type="curve"/>
      <point x="365" y="215"/>
      <point x="362" y="210"/>
      <point x="355" y="203" type="curve"/>
      <point x="344" y="192"/>
      <point x="313" y="164"/>
      <point x="285" y="164" type="curve"/>
      <point x="256" y="159"/>
      <point x="167" y="207"/>
      <point x="167" y="349" type="curve"/>
      <point x="167" y="404"/>
      <point x="183" y="465"/>
      <point x="204" y="498" type="curve"/>
      <point x="227" y="531"/>
      <point x="252" y="544"/>
      <point x="275" y="544" type="curve"/>
      <point x="300" y="544"/>
      <point x="316" y="523"/>
      <point x="335" y="502" type="curve"/>
      <point x="341" y="495"/>
      <point x="346" y="492"/>
      <point x="351" y="492" type="curve"/>
      <point x="361" y="492"/>
      <point x="371" y="504"/>
      <point x="382" y="518" type="curve"/>
      <point x="397" y="538"/>
      <point x="429" y="566"/>
      <point x="448" y="581" type="curve"/>
      <point x="456" y="588"/>
      <point x="459" y="593"/>
      <point x="459" y="597" type="curve"/>
      <point x="459" y="604"/>
      <point x="454" y="610"/>
      <point x="448" y="618" type="curve"/>
      <point x="437" y="634"/>
      <point x="382" y="704"/>
      <point x="271" y="704" type="curve"/>
      <point x="215" y="704"/>
      <point x="156" y="668"/>
      <point x="112" y="607" type="curve"/>
      <point x="68" y="546"/>
      <point x="37" y="451"/>
      <point x="37" y="374" type="curve"/>
      <point x="37" y="283"/>
      <point x="68" y="188"/>
      <point x="116" y="123" type="curve"/>
      <point x="148" y="79"/>
      <point x="188" y="46"/>
      <point x="231" y="30" type="curve"/>
      <point x="224" y="11"/>
      <point x="219" y="-4"/>
      <point x="217" y="-16" type="curve"/>
      <point x="213" y="-32"/>
      <point x="210" y="-35"/>
      <point x="210" y="-52" type="curve"/>
      <point x="211" y="-59"/>
      <point x="217" y="-60"/>
      <point x="241" y="-60" type="curve"/>
      <point x="248" y="-60"/>
      <point x="259" y="-46"/>
      <point x="274" y="-46" type="curve"/>
      <point x="293" y="-46"/>
      <point x="298" y="-60"/>
      <point x="298" y="-79" type="curve"/>
      <point x="292" y="-104"/>
      <point x="283" y="-103"/>
      <point x="257" y="-105" type="curve"/>
      <point x="240" y="-105"/>
      <point x="232" y="-103"/>
      <point x="219" y="-99" type="curve"/>
      <point x="206" y="-92"/>
      <point x="199" y="-86"/>
      <point x="195" y="-86" type="curve"/>
      <point x="193" y="-86"/>
      <point x="192" y="-87"/>
      <point x="192" y="-90" type="curve"/>
      <point x="187" y="-113"/>
      <point x="184" y="-128"/>
      <point x="184" y="-139" type="curve"/>
      <point x="184" y="-150"/>
      <point x="220" y="-158"/>
      <point x="251" y="-158" type="curve"/>
      <point x="296" y="-158"/>
      <point x="303" y="-153"/>
      <point x="314" y="-148" type="curve"/>
      <point x="319" y="-145"/>
      <point x="324" y="-142"/>
      <point x="329" y="-137" type="curve"/>
      <point x="340" y="-128"/>
      <point x="359" y="-115"/>
      <point x="360" y="-83" type="curve"/>
      <point x="360" y="-28"/>
      <point x="331" y="-13"/>
      <point x="298" y="-13" type="curve"/>
      <point x="267" y="-13"/>
      <point x="263" y="-15"/>
      <point x="250" y="-22" type="curve"/>
      <point x="254" y="-8"/>
      <point x="261" y="3"/>
      <point x="273" y="19" type="curve"/>
      <point x="279" y="18"/>
      <point x="286" y="18"/>
      <point x="293" y="18" type="curve"/>
      <point x="423" y="18"/>
      <point x="481" y="114"/>
      <point x="492" y="133" type="curve"/>
      <point x="494" y="137"/>
      <point x="495" y="141"/>
    </contour>
  </outline>
</glyph>
<glyph name="Oslash" format="1">
  <advance width="575"/>
  <unicode hex="00D8"/>
  <outline>
    <contour>
      <point x="84" y="-39" type="curve" smooth="yes"/>
      <point x="94" y="-39"/>
      <point x="103" y="-37"/>
      <point x="110" y="-31" type="curve"/>
      <point x="122" y="-24"/>
      <point x="130" y="-22"/>
      <point x="139" y="1" type="curve" smooth="yes"/>
      <point x="141" y="6"/>
      <point x="147" y="17"/>
      <point x="155" y="33" type="curve"/>
      <point x="189" y="-1"/>
      <point x="235" y="-22"/>
      <point x="297" y="-22" type="curve" smooth="yes"/>
      <point x="454" y="-22"/>
      <point x="518" y="198"/>
      <point x="518" y="343" type="curve" smooth="yes"/>
      <point x="518" y="420"/>
      <point x="515" y="520"/>
      <point x="480" y="597" type="curve"/>
      <point x="509" y="645" type="line"/>
      <point x="526" y="670"/>
      <point x="540" y="706"/>
      <point x="530" y="709" type="curve" smooth="yes"/>
      <point x="522" y="712"/>
      <point x="494" y="713"/>
      <point x="485" y="713" type="curve"/>
      <point x="473" y="709"/>
      <point x="453" y="685"/>
      <point x="440" y="660" type="curve" smooth="yes"/>
      <point x="439" y="658" type="line"/>
      <point x="405" y="692"/>
      <point x="358" y="714"/>
      <point x="290" y="714" type="curve" smooth="yes"/>
      <point x="202" y="714"/>
      <point x="60" y="645"/>
      <point x="60" y="357" type="curve" smooth="yes"/>
      <point x="60" y="294"/>
      <point x="66" y="176"/>
      <point x="114" y="89" type="curve"/>
      <point x="70" y="15" type="line"/>
      <point x="48" y="-15"/>
      <point x="60" y="-3"/>
      <point x="49" y="-14" type="curve"/>
      <point x="47" y="-19"/>
      <point x="45" y="-23"/>
      <point x="45" y="-26" type="curve" smooth="yes"/>
      <point x="45" y="-30"/>
      <point x="48" y="-33"/>
      <point x="59" y="-35" type="curve" smooth="yes"/>
      <point x="65" y="-37"/>
      <point x="75" y="-39"/>
    </contour>
    <contour>
      <point x="282" y="96" type="curve" smooth="yes"/>
      <point x="250" y="96"/>
      <point x="228" y="111"/>
      <point x="213" y="134" type="curve"/>
      <point x="267" y="226" type="line"/>
      <point x="288" y="257"/>
      <point x="358" y="385"/>
      <point x="393" y="449" type="curve"/>
      <point x="402" y="414"/>
      <point x="406" y="375"/>
      <point x="406" y="335" type="curve" smooth="yes"/>
      <point x="406" y="219"/>
      <point x="374" y="96"/>
    </contour>
    <contour>
      <point x="186" y="217" type="line"/>
      <point x="182" y="249"/>
      <point x="181" y="283"/>
      <point x="181" y="314" type="curve" smooth="yes"/>
      <point x="181" y="414"/>
      <point x="211" y="570"/>
      <point x="299" y="570" type="curve" smooth="yes"/>
      <point x="326" y="570"/>
      <point x="348" y="552"/>
      <point x="365" y="523" type="curve"/>
      <point x="363" y="520" type="line" smooth="yes"/>
      <point x="339" y="483"/>
      <point x="238" y="309"/>
      <point x="200" y="244" type="curve"/>
    </contour>
    <contour>
      <point x="288" y="0" type="move" name="bottom"/>
    </contour>
    <contour>
      <point x="288" y="710" type="move" name="top"/>
    </contour>
  </outline>
</glyph>
<glyph name="ae" format="1">
  <advance width="832"/>
  <unicode hex="00E6"/>
  <outline>
    <contour>
      <point x="625" y="-22" type="curve" smooth="yes"/>
      <point x="704" y="-22"/>
      <point x="770" y="6"/>
      <point x="795" y="32" type="curve"/>
      <point x="800" y="36"/>
      <point x="804" y="39"/>
      <point x="806" y="43" type="curve" smooth="yes"/>
      <point x="807" y="45"/>
      <point x="798" y="68"/>
      <point x="788" y="93" type="curve"/>
      <point x="780" y="106"/>
      <point x="778" y="122"/>
      <point x="772" y="133" type="curve"/>
      <point x="759" y="166"/>
      <point x="754" y="174"/>
      <point x="744" y="174" type="curve"/>
      <point x="705" y="155"/>
      <point x="686" y="143"/>
      <point x="638" y="143" type="curve" smooth="yes"/>
      <point x="558" y="143"/>
      <point x="537" y="195"/>
      <point x="533" y="240" type="curve"/>
      <point x="625" y="247"/>
      <point x="753" y="252"/>
      <point x="791" y="260" type="curve" smooth="yes"/>
      <point x="801" y="262"/>
      <point x="801" y="269"/>
      <point x="801" y="269" type="curve"/>
      <point x="801" y="388"/>
      <point x="789" y="598"/>
      <point x="589" y="598" type="curve" smooth="yes"/>
      <point x="541" y="598"/>
      <point x="477" y="578"/>
      <point x="431" y="514" type="curve"/>
      <point x="408" y="561"/>
      <point x="365" y="593"/>
      <point x="289" y="593" type="curve" smooth="yes"/>
      <point x="232" y="593"/>
      <point x="189" y="588"/>
      <point x="82" y="508" type="curve"/>
      <point x="79" y="506"/>
      <point x="70" y="501"/>
      <point x="70" y="494" type="curve" smooth="yes"/>
      <point x="70" y="483"/>
      <point x="79" y="445"/>
      <point x="85" y="437" type="curve"/>
      <point x="85" y="430"/>
      <point x="94" y="428"/>
      <point x="94" y="428" type="curve"/>
      <point x="100" y="427"/>
      <point x="109" y="433"/>
      <point x="111" y="434" type="curve"/>
      <point x="170" y="475"/>
      <point x="212" y="516"/>
      <point x="268" y="516" type="curve" smooth="yes"/>
      <point x="353" y="516"/>
      <point x="369" y="420"/>
      <point x="377" y="223" type="curve"/>
      <point x="320" y="223"/>
      <point x="302" y="215"/>
      <point x="249" y="215" type="curve" smooth="yes"/>
      <point x="156" y="215"/>
      <point x="38" y="191"/>
      <point x="30" y="121" type="curve"/>
      <point x="30" y="13"/>
      <point x="107" y="-11"/>
      <point x="191" y="-11" type="curve" smooth="yes"/>
      <point x="306" y="-11"/>
      <point x="381" y="21"/>
      <point x="430" y="74" type="curve"/>
      <point x="466" y="20"/>
      <point x="526" y="-22"/>
    </contour>
    <contour>
      <point x="192" y="46" type="curve" smooth="yes"/>
      <point x="130" y="46"/>
      <point x="111" y="60"/>
      <point x="111" y="108" type="curve"/>
      <point x="115" y="154"/>
      <point x="179" y="178"/>
      <point x="238" y="178" type="curve" smooth="yes"/>
      <point x="273" y="178"/>
      <point x="311" y="182"/>
      <point x="387" y="175" type="curve"/>
      <point x="411" y="108" type="line"/>
      <point x="353" y="55"/>
      <point x="276" y="46"/>
    </contour>
    <contour>
      <point x="536" y="298" type="line"/>
      <point x="540" y="374"/>
      <point x="559" y="422"/>
      <point x="597" y="422" type="curve" smooth="yes"/>
      <point x="626" y="422"/>
      <point x="646" y="391"/>
      <point x="652" y="308" type="curve"/>
    </contour>
    <contour>
      <point x="416" y="0" type="move" name="bottom"/>
    </contour>
    <contour>
      <point x="446" y="582" type="move" name="top"/>
    </contour>
  </outline>
</glyph>
<glyph name="oslash" format="1">
  <advance width="506"/>
  <unicode hex="00F8"/>
  <outline>
    <contour>
      <point x="75" y="-60" type="curve" smooth="yes"/>
      <point x="83" y="-61"/>
      <point x="93" y="-61"/>
      <point x="99" y="-56" type="curve"/>
      <point x="111" y="-51"/>
      <point x="118" y="-50"/>
      <point x="126" y="-28" type="curve" smooth="yes"/>
      <point x="133" y="-7"/>
      <point x="223" y="147"/>
      <point x="242" y="180" type="curve"/>
      <point x="264" y="212"/>
      <point x="338" y="359"/>
      <point x="366" y="406" type="curve"/>
      <point x="387" y="453"/>
      <point x="448" y="548"/>
      <point x="459" y="567" type="curve" smooth="yes"/>
      <point x="469" y="582"/>
      <point x="477" y="602"/>
      <point x="480" y="614" type="curve" smooth="yes"/>
      <point x="481" y="622"/>
      <point x="481" y="627"/>
      <point x="477" y="629" type="curve" smooth="yes"/>
      <point x="469" y="634"/>
      <point x="441" y="639"/>
      <point x="433" y="641" type="curve"/>
      <point x="421" y="639"/>
      <point x="403" y="618"/>
      <point x="391" y="594" type="curve"/>
      <point x="380" y="570"/>
      <point x="347" y="501"/>
      <point x="321" y="465" type="curve"/>
      <point x="302" y="430"/>
      <point x="208" y="270"/>
      <point x="175" y="210" type="curve"/>
      <point x="145" y="146"/>
      <point x="73" y="27"/>
      <point x="57" y="-2" type="curve"/>
      <point x="39" y="-29"/>
      <point x="48" y="-19"/>
      <point x="38" y="-28" type="curve"/>
      <point x="37" y="-32"/>
      <point x="35" y="-34"/>
      <point x="35" y="-37" type="curve" smooth="yes"/>
      <point x="34" y="-42"/>
      <point x="36" y="-46"/>
      <point x="49" y="-51" type="curve" smooth="yes"/>
      <point x="56" y="-54"/>
      <point x="65" y="-58"/>
    </contour>
    <contour>
      <point x="252" y="144" type="curve" smooth="yes"/>
      <point x="186" y="144"/>
      <point x="181" y="216"/>
      <point x="181" y="268" type="curve" smooth="yes"/>
      <point x="181" y="356"/>
      <point x="203" y="410"/>
      <point x="260" y="410" type="curve" smooth="yes"/>
      <point x="305" y="410"/>
      <point x="333" y="378"/>
      <point x="333" y="278" type="curve"/>
      <point x="333" y="212"/>
      <point x="311" y="144"/>
    </contour>
    <contour>
      <point x="260" y="-22" type="curve" smooth="yes"/>
      <point x="406" y="-22"/>
      <point x="466" y="163"/>
      <point x="466" y="285" type="curve" smooth="yes"/>
      <point x="466" y="408"/>
      <point x="454" y="598"/>
      <point x="254" y="598" type="curve" smooth="yes"/>
      <point x="172" y="598"/>
      <point x="40" y="540"/>
      <point x="40" y="297" type="curve" smooth="yes"/>
      <point x="40" y="206"/>
      <point x="56" y="-22"/>
    </contour>
    <contour>
      <point x="322" y="0" type="move" name="bottom"/>
    </contour>
    <contour>
      <point x="261" y="602" type="move" name="top"/>
    </contour>
  </outline>
</glyph>
<glyph name="Dcroat" format="1">
  <advance width="577"/>
  <unicode hex="0110"/>
  <outline>
    <contour>
      <point x="239" y="700" type="curve"/>
      <point x="216" y="700"/>
      <point x="192" y="699"/>
      <point x="171" y="698" type="curve"/>
      <point x="135" y="696" type="line"/>
      <point x="111" y="696"/>
      <point x="68" y="701"/>
      <point x="68" y="681" type="curve"/>
      <point x="68" y="660"/>
      <point x="70" y="592"/>
      <point x="70" y="511" type="curve"/>
      <point x="70" y="462"/>
      <point x="67" y="424"/>
      <point x="65" y="384" type="curve"/>
      <point x="13" y="384" type="line" smooth="yes"/>
      <point x="4" y="384"/>
      <point x="2" y="378"/>
      <point x="2" y="365" type="curve"/>
      <point x="2" y="338" type="line" smooth="yes"/>
      <point x="2" y="331"/>
      <point x="2" y="325"/>
      <point x="10" y="325" type="curve"/>
      <point x="15" y="328"/>
      <point x="53" y="328"/>
      <point x="61" y="328" type="curve"/>
      <point x="62" y="328" type="line"/>
      <point x="62" y="303" type="line" smooth="yes"/>
      <point x="62" y="224"/>
      <point x="67" y="175"/>
      <point x="67" y="155" type="curve"/>
      <point x="67" y="134"/>
      <point x="70" y="84"/>
      <point x="70" y="60" type="curve"/>
      <point x="70" y="52"/>
      <point x="69" y="43"/>
      <point x="69" y="34" type="curve"/>
      <point x="69" y="16"/>
      <point x="72" y="0"/>
      <point x="88" y="0" type="curve"/>
      <point x="113" y="0"/>
      <point x="185" y="2"/>
      <point x="224" y="2" type="curve"/>
      <point x="262" y="2"/>
      <point x="542" y="14"/>
      <point x="542" y="315" type="curve"/>
      <point x="542" y="639"/>
      <point x="332" y="700"/>
    </contour>
    <contour>
      <point x="277" y="325" type="curve"/>
      <point x="296" y="325"/>
      <point x="299" y="329"/>
      <point x="299" y="338" type="curve"/>
      <point x="299" y="368" type="line" smooth="yes"/>
      <point x="299" y="377"/>
      <point x="299" y="385"/>
      <point x="288" y="385" type="curve"/>
      <point x="286" y="385"/>
      <point x="284" y="384"/>
      <point x="281" y="384" type="curve"/>
      <point x="208" y="384" type="line"/>
      <point x="210" y="406"/>
      <point x="212" y="430"/>
      <point x="212" y="452" type="curve"/>
      <point x="212" y="465"/>
      <point x="211" y="477"/>
      <point x="209" y="488" type="curve"/>
      <point x="240" y="487"/>
      <point x="268" y="482"/>
      <point x="293" y="474" type="curve"/>
      <point x="346" y="454"/>
      <point x="366" y="414"/>
      <point x="366" y="363" type="curve"/>
      <point x="365" y="292"/>
      <point x="343" y="253"/>
      <point x="292" y="234" type="curve"/>
      <point x="268" y="225"/>
      <point x="238" y="219"/>
      <point x="201" y="214" type="curve"/>
      <point x="201" y="231"/>
      <point x="202" y="249"/>
      <point x="203" y="266" type="curve"/>
      <point x="206" y="328" type="line"/>
      <point x="230" y="327"/>
      <point x="262" y="325"/>
    </contour>
  </outline>
</glyph>
<glyph name="eogonek" format="1">
  <advance width="482"/>
  <unicode hex="0119"/>
  <outline>
    <contour>
      <point x="330" y="-171" type="curve"/>
      <point x="366" y="-169"/>
      <point x="438" y="-126"/>
      <point x="438" y="-99" type="curve" smooth="yes"/>
      <point x="438" y="-89"/>
      <point x="426" y="-74"/>
      <point x="418" y="-74" type="curve" smooth="yes"/>
      <point x="409" y="-74"/>
      <point x="398" y="-99"/>
      <point x="347" y="-99" type="curve" smooth="yes"/>
      <point x="333" y="-99"/>
      <point x="319" y="-86"/>
      <point x="319" y="-61" type="curve" smooth="yes"/>
      <point x="319" y="-35"/>
      <point x="340" y="-15"/>
      <point x="382" y="-4" type="curve"/>
      <point x="311" y="38" type="line"/>
      <point x="283" y="6"/>
      <point x="264" y="-23"/>
      <point x="257" y="-45" type="curve" smooth="yes"/>
      <point x="251" y="-63"/>
      <point x="248" y="-78"/>
      <point x="248" y="-91" type="curve" smooth="yes"/>
      <point x="248" y="-158"/>
      <point x="281" y="-172"/>
    </contour>
    <component base="e"/>
  </outline>
</glyph>
<glyph name="IJ" format="1">
  <advance width="682"/>
  <unicode hex="0132"/>
  <outline>
    <contour>
      <point x="420" y="-7" type="curve" smooth="yes"/>
      <point x="643" y="-7"/>
      <point x="605" y="331"/>
      <point x="609" y="374" type="curve"/>
      <point x="611" y="680" type="line"/>
      <point x="612" y="707"/>
      <point x="610" y="712"/>
      <point x="587" y="713" type="curve"/>
      <point x="582" y="714"/>
      <point x="576" y="714"/>
      <point x="571" y="714" type="curve" smooth="yes"/>
      <point x="554" y="714"/>
      <point x="540" y="711"/>
      <point x="528" y="710" type="curve"/>
      <point x="515" y="710"/>
      <point x="500" y="709"/>
      <point x="503" y="672" type="curve"/>
      <point x="503" y="649"/>
      <point x="502" y="611"/>
      <point x="502" y="575" type="curve" smooth="yes"/>
      <point x="502" y="549"/>
      <point x="503" y="524"/>
      <point x="504" y="509" type="curve"/>
      <point x="504" y="474"/>
      <point x="501" y="278"/>
      <point x="501" y="233" type="curve" smooth="yes"/>
      <point x="501" y="188"/>
      <point x="475" y="103"/>
      <point x="388" y="103" type="curve" smooth="yes"/>
      <point x="324" y="103"/>
      <point x="274" y="142"/>
      <point x="274" y="345" type="curve" smooth="yes"/>
      <point x="274" y="366"/>
      <point x="289" y="403"/>
      <point x="260" y="400" type="curve" smooth="yes"/>
      <point x="231" y="396"/>
      <point x="210" y="393"/>
      <point x="198" y="393" type="curve"/>
      <point x="187" y="394"/>
      <point x="183" y="395"/>
      <point x="183" y="376" type="curve" smooth="yes"/>
      <point x="183" y="357"/>
      <point x="181" y="287"/>
      <point x="181" y="247" type="curve" smooth="yes"/>
      <point x="181" y="205"/>
      <point x="199" y="-7"/>
    </contour>
    <contour>
      <point x="69" y="-7" type="curve" smooth="yes"/>
      <point x="81" y="-7"/>
      <point x="94" y="-7"/>
      <point x="100" y="-3" type="curve" smooth="yes"/>
      <point x="106" y="0"/>
      <point x="110" y="2"/>
      <point x="110" y="13" type="curve" smooth="yes"/>
      <point x="110" y="17"/>
      <point x="110" y="21"/>
      <point x="109" y="27" type="curve" smooth="yes"/>
      <point x="106" y="52"/>
      <point x="103" y="227"/>
      <point x="103" y="279" type="curve" smooth="yes"/>
      <point x="103" y="330"/>
      <point x="111" y="501"/>
      <point x="111" y="555" type="curve" smooth="yes"/>
      <point x="112" y="610"/>
      <point x="113" y="648"/>
      <point x="116" y="668" type="curve"/>
      <point x="116" y="676"/>
      <point x="118" y="685"/>
      <point x="118" y="692" type="curve" smooth="yes"/>
      <point x="118" y="700"/>
      <point x="116" y="706"/>
      <point x="108" y="706" type="curve" smooth="yes"/>
      <point x="93" y="706"/>
      <point x="78" y="707"/>
      <point x="71" y="707" type="curve" smooth="yes"/>
      <point x="58" y="707"/>
      <point x="55" y="695"/>
      <point x="55" y="681" type="curve" smooth="yes"/>
      <point x="55" y="674"/>
      <point x="56" y="667"/>
      <point x="56" y="660" type="curve"/>
      <point x="59" y="636"/>
      <point x="49" y="442"/>
      <point x="49" y="376" type="curve" smooth="yes"/>
      <point x="49" y="310"/>
      <point x="45" y="73"/>
      <point x="45" y="35" type="curve" smooth="yes"/>
      <point x="45" y="-11"/>
      <point x="36" y="-7"/>
    </contour>
  </outline>
</glyph>
<glyph name="Lslash" format="1">
  <advance width="536"/>
  <unicode hex="0141"/>
  <outline>
    <contour>
      <point x="102" y="-8" type="curve" smooth="yes"/>
      <point x="119" y="-8"/>
      <point x="321" y="1"/>
      <point x="355" y="1" type="curve" smooth="yes"/>
      <point x="390" y="1"/>
      <point x="490" y="-8"/>
      <point x="507" y="-8" type="curve" smooth="yes"/>
      <point x="523" y="-8"/>
      <point x="536" y="-11"/>
      <point x="536" y="2" type="curve" smooth="yes"/>
      <point x="536" y="14"/>
      <point x="533" y="30"/>
      <point x="534" y="37" type="curve" smooth="yes"/>
      <point x="534" y="44"/>
      <point x="537" y="50"/>
      <point x="527" y="50" type="curve" smooth="yes"/>
      <point x="527" y="50"/>
      <point x="526" y="50"/>
      <point x="525" y="50" type="curve"/>
      <point x="406" y="51" type="line"/>
      <point x="263" y="56" type="line"/>
      <point x="261" y="91" type="line" smooth="yes"/>
      <point x="261" y="101"/>
      <point x="260" y="110"/>
      <point x="260" y="119" type="curve" smooth="yes"/>
      <point x="260" y="127"/>
      <point x="261" y="135"/>
      <point x="261" y="139" type="curve" smooth="yes"/>
      <point x="261" y="156"/>
      <point x="263" y="230"/>
      <point x="263" y="248" type="curve" smooth="yes"/>
      <point x="261" y="362" type="line"/>
      <point x="291" y="375" type="line"/>
      <point x="346" y="399" type="line" smooth="yes"/>
      <point x="358" y="405"/>
      <point x="362" y="411"/>
      <point x="362" y="419" type="curve" smooth="yes"/>
      <point x="362" y="423"/>
      <point x="361" y="427"/>
      <point x="360" y="432" type="curve" smooth="yes"/>
      <point x="346" y="483" type="line"/>
      <point x="342" y="491"/>
      <point x="337" y="494"/>
      <point x="331" y="494" type="curve" smooth="yes"/>
      <point x="330" y="494"/>
      <point x="329" y="494"/>
      <point x="328" y="494" type="curve" smooth="yes"/>
      <point x="319" y="493"/>
      <point x="304" y="478"/>
      <point x="285" y="470" type="curve" smooth="yes"/>
      <point x="277" y="466"/>
      <point x="268" y="463"/>
      <point x="260" y="459" type="curve"/>
      <point x="260" y="473" type="line" smooth="yes"/>
      <point x="260" y="517"/>
      <point x="266" y="633"/>
      <point x="266" y="650" type="curve" smooth="yes"/>
      <point x="266" y="674"/>
      <point x="282" y="701"/>
      <point x="242" y="696" type="curve" smooth="yes"/>
      <point x="226" y="694"/>
      <point x="209" y="693"/>
      <point x="191" y="693" type="curve" smooth="yes"/>
      <point x="164" y="693"/>
      <point x="138" y="695"/>
      <point x="124" y="697" type="curve"/>
      <point x="111" y="697"/>
      <point x="98" y="703"/>
      <point x="88" y="703" type="curve" smooth="yes"/>
      <point x="80" y="703"/>
      <point x="75" y="699"/>
      <point x="75" y="686" type="curve" smooth="yes"/>
      <point x="75" y="658"/>
      <point x="84" y="457"/>
      <point x="84" y="425" type="curve" smooth="yes"/>
      <point x="84" y="382" type="line"/>
      <point x="56" y="372" type="line" smooth="yes"/>
      <point x="43" y="367"/>
      <point x="33" y="362"/>
      <point x="25" y="358" type="curve" smooth="yes"/>
      <point x="-8" y="345"/>
      <point x="-14" y="334"/>
      <point x="-11" y="325" type="curve"/>
      <point x="17" y="273" type="line"/>
      <point x="23" y="264"/>
      <point x="29" y="261"/>
      <point x="35" y="261" type="curve" smooth="yes"/>
      <point x="41" y="261"/>
      <point x="47" y="263"/>
      <point x="55" y="267" type="curve" smooth="yes"/>
      <point x="82" y="280" type="line"/>
      <point x="80" y="90" type="line" smooth="yes"/>
      <point x="80" y="49"/>
      <point x="80" y="20"/>
      <point x="80" y="12" type="curve" smooth="yes"/>
      <point x="80" y="2"/>
      <point x="85" y="-8"/>
    </contour>
  </outline>
</glyph>
<glyph name="eng" format="1">
  <advance width="543"/>
  <unicode hex="014B"/>
  <outline>
    <contour>
      <point x="74" y="584" type="curve"/>
      <point x="74" y="294" type="line"/>
      <point x="73" y="259"/>
      <point x="79" y="26"/>
      <point x="79" y="13" type="curve"/>
      <point x="79" y="3"/>
      <point x="82" y="0"/>
      <point x="90" y="0" type="curve"/>
      <point x="124" y="0" type="line" smooth="yes"/>
      <point x="143" y="0"/>
      <point x="146" y="7"/>
      <point x="146" y="16" type="curve"/>
      <point x="146" y="23"/>
      <point x="144" y="152"/>
      <point x="142" y="203" type="curve"/>
      <point x="142" y="341" type="line"/>
      <point x="141" y="400"/>
      <point x="141" y="435"/>
      <point x="141" y="479" type="curve"/>
      <point x="172" y="502"/>
      <point x="237" y="534"/>
      <point x="296" y="534" type="curve"/>
      <point x="361" y="534"/>
      <point x="375" y="520"/>
      <point x="398" y="472" type="curve"/>
      <point x="417" y="430"/>
      <point x="411" y="305"/>
      <point x="410" y="282" type="curve"/>
      <point x="406" y="119" type="line"/>
      <point x="404" y="23" type="line"/>
      <point x="403" y="-42" type="line"/>
      <point x="401" y="-86"/>
      <point x="385" y="-105"/>
      <point x="356" y="-105" type="curve"/>
      <point x="340" y="-105"/>
      <point x="334" y="-102"/>
      <point x="327" y="-102" type="curve"/>
      <point x="316" y="-102"/>
      <point x="314" y="-114"/>
      <point x="313" y="-116" type="curve"/>
      <point x="307" y="-132" type="line"/>
      <point x="305" y="-136"/>
      <point x="308" y="-139"/>
      <point x="308" y="-139" type="curve"/>
      <point x="325" y="-150"/>
      <point x="345" y="-158"/>
      <point x="366" y="-159" type="curve"/>
      <point x="480" y="-164"/>
      <point x="466" y="-97"/>
      <point x="470" y="7" type="curve"/>
      <point x="470" y="210"/>
      <point x="472" y="450"/>
      <point x="472" y="384" type="curve"/>
      <point x="472" y="412"/>
      <point x="471" y="499"/>
      <point x="444" y="532" type="curve"/>
      <point x="408" y="582"/>
      <point x="370" y="597"/>
      <point x="311" y="597" type="curve"/>
      <point x="220" y="597"/>
      <point x="182" y="565"/>
      <point x="134" y="544" type="curve"/>
      <point x="135" y="580" type="line" smooth="yes"/>
      <point x="135" y="593"/>
      <point x="131" y="597"/>
      <point x="127" y="597" type="curve"/>
      <point x="125" y="597"/>
      <point x="116" y="598"/>
      <point x="105" y="598" type="curve"/>
      <point x="87" y="598" type="line" smooth="yes"/>
      <point x="76" y="598"/>
      <point x="74" y="592"/>
    </contour>
  </outline>
</glyph>
<glyph name="oe" format="1">
  <advance width="774"/>
  <unicode hex="0153"/>
  <outline>
    <contour>
      <point x="260" y="-22" type="curve" smooth="yes"/>
      <point x="317" y="-22"/>
      <point x="361" y="6"/>
      <point x="393" y="47" type="curve"/>
      <point x="430" y="7"/>
      <point x="485" y="-22"/>
      <point x="567" y="-22" type="curve" smooth="yes"/>
      <point x="646" y="-22"/>
      <point x="712" y="6"/>
      <point x="737" y="32" type="curve"/>
      <point x="742" y="36"/>
      <point x="746" y="39"/>
      <point x="748" y="43" type="curve" smooth="yes"/>
      <point x="749" y="45"/>
      <point x="740" y="68"/>
      <point x="730" y="93" type="curve"/>
      <point x="722" y="106"/>
      <point x="720" y="122"/>
      <point x="714" y="133" type="curve"/>
      <point x="701" y="166"/>
      <point x="696" y="174"/>
      <point x="686" y="174" type="curve"/>
      <point x="647" y="155"/>
      <point x="628" y="143"/>
      <point x="580" y="143" type="curve" smooth="yes"/>
      <point x="500" y="143"/>
      <point x="479" y="195"/>
      <point x="475" y="240" type="curve"/>
      <point x="567" y="247"/>
      <point x="694" y="260"/>
      <point x="733" y="260" type="curve" smooth="yes"/>
      <point x="743" y="260"/>
      <point x="743" y="269"/>
      <point x="743" y="269" type="curve"/>
      <point x="743" y="388"/>
      <point x="731" y="598"/>
      <point x="531" y="598" type="curve" smooth="yes"/>
      <point x="492" y="598"/>
      <point x="441" y="585"/>
      <point x="398" y="544" type="curve"/>
      <point x="367" y="577"/>
      <point x="321" y="598"/>
      <point x="254" y="598" type="curve" smooth="yes"/>
      <point x="172" y="598"/>
      <point x="40" y="540"/>
      <point x="40" y="297" type="curve" smooth="yes"/>
      <point x="40" y="206"/>
      <point x="56" y="-22"/>
    </contour>
    <contour>
      <point x="253" y="172" type="curve" smooth="yes"/>
      <point x="201" y="172"/>
      <point x="197" y="229"/>
      <point x="197" y="270" type="curve" smooth="yes"/>
      <point x="197" y="339"/>
      <point x="214" y="382"/>
      <point x="259" y="382" type="curve" smooth="yes"/>
      <point x="295" y="382"/>
      <point x="317" y="357"/>
      <point x="317" y="278" type="curve" smooth="yes"/>
      <point x="317" y="226"/>
      <point x="300" y="172"/>
    </contour>
    <contour>
      <point x="475" y="298" type="line"/>
      <point x="479" y="374"/>
      <point x="498" y="422"/>
      <point x="536" y="422" type="curve" smooth="yes"/>
      <point x="565" y="422"/>
      <point x="585" y="391"/>
      <point x="591" y="308" type="curve"/>
    </contour>
  </outline>
</glyph>
<glyph name="uni01CA" format="1">
  <advance width="1167"/>
  <unicode hex="01CA"/>
  <outline>
    <contour>
      <point x="263" y="497" type="curve"/>
      <point x="260" y="592" type="line"/>
      <point x="289" y="540" type="line" smooth="yes"/>
      <point x="305" y="511"/>
      <point x="323" y="476"/>
      <point x="334" y="453" type="curve"/>
      <point x="355" y="406"/>
      <point x="424" y="252"/>
      <point x="445" y="212" type="curve"/>
      <point x="464" y="172"/>
      <point x="519" y="34"/>
      <point x="527" y="16" type="curve"/>
      <point x="538" y="-3"/>
      <point x="539" y="-3"/>
      <point x="550" y="-4" type="curve"/>
      <point x="558" y="-5"/>
      <point x="572" y="-3"/>
      <point x="584" y="-3" type="curve"/>
      <point x="589" y="-3"/>
      <point x="593" y="-3"/>
      <point x="596" y="-4" type="curve"/>
      <point x="605" y="-5"/>
      <point x="615" y="-4"/>
      <point x="615" y="14" type="curve"/>
      <point x="615" y="14"/>
      <point x="615" y="15"/>
      <point x="615" y="16" type="curve"/>
      <point x="615" y="35"/>
      <point x="610" y="147"/>
      <point x="610" y="191" type="curve"/>
      <point x="610" y="229"/>
      <point x="604" y="313"/>
      <point x="604" y="371" type="curve"/>
      <point x="604" y="382"/>
      <point x="605" y="391"/>
      <point x="605" y="400" type="curve"/>
      <point x="605" y="452"/>
      <point x="608" y="669"/>
      <point x="608" y="688" type="curve"/>
      <point x="608" y="696"/>
      <point x="610" y="703"/>
      <point x="610" y="708" type="curve"/>
      <point x="610" y="714"/>
      <point x="608" y="717"/>
      <point x="597" y="717" type="curve"/>
      <point x="578" y="717"/>
      <point x="574" y="716"/>
      <point x="562" y="719" type="curve"/>
      <point x="557" y="720"/>
      <point x="549" y="722"/>
      <point x="542" y="722" type="curve"/>
      <point x="534" y="722"/>
      <point x="527" y="719"/>
      <point x="527" y="707" type="curve"/>
      <point x="523" y="611" type="line"/>
      <point x="523" y="574"/>
      <point x="525" y="500"/>
      <point x="525" y="467" type="curve"/>
      <point x="524" y="439"/>
      <point x="523" y="399"/>
      <point x="523" y="356" type="curve"/>
      <point x="523" y="346"/>
      <point x="523" y="336"/>
      <point x="523" y="326" type="curve"/>
      <point x="527" y="228" type="line"/>
      <point x="529" y="170" type="line"/>
      <point x="498" y="231" type="line" smooth="yes"/>
      <point x="481" y="266"/>
      <point x="460" y="304"/>
      <point x="448" y="329" type="curve"/>
      <point x="424" y="377"/>
      <point x="361" y="520"/>
      <point x="337" y="570" type="curve"/>
      <point x="313" y="621"/>
      <point x="283" y="688"/>
      <point x="275" y="704" type="curve"/>
      <point x="267" y="719"/>
      <point x="255" y="724"/>
      <point x="226" y="724" type="curve"/>
      <point x="198" y="724"/>
      <point x="157" y="723"/>
      <point x="141" y="723" type="curve"/>
      <point x="135" y="723"/>
      <point x="125" y="725"/>
      <point x="115" y="725" type="curve"/>
      <point x="102" y="725"/>
      <point x="89" y="721"/>
      <point x="87" y="698" type="curve"/>
      <point x="84" y="659"/>
      <point x="84" y="620"/>
      <point x="84" y="580" type="curve"/>
      <point x="84" y="540"/>
      <point x="70" y="370"/>
      <point x="67" y="322" type="curve"/>
      <point x="62" y="277"/>
      <point x="60" y="158"/>
      <point x="60" y="101" type="curve"/>
      <point x="59" y="84"/>
      <point x="59" y="71"/>
      <point x="59" y="60" type="curve"/>
      <point x="59" y="35"/>
      <point x="61" y="25"/>
      <point x="63" y="16" type="curve"/>
      <point x="66" y="3"/>
      <point x="64" y="-12"/>
      <point x="91" y="-12" type="curve"/>
      <point x="118" y="-12"/>
      <point x="164" y="-10"/>
      <point x="188" y="-10" type="curve"/>
      <point x="212" y="-10"/>
      <point x="244" y="-6"/>
      <point x="255" y="-6" type="curve"/>
      <point x="265" y="-6"/>
      <point x="274" y="-4"/>
      <point x="274" y="10" type="curve"/>
      <point x="274" y="10"/>
      <point x="274" y="11"/>
      <point x="274" y="12" type="curve"/>
      <point x="274" y="28"/>
      <point x="270" y="79"/>
      <point x="270" y="108" type="curve"/>
      <point x="270" y="138"/>
      <point x="266" y="282"/>
      <point x="266" y="351" type="curve"/>
      <point x="266" y="386"/>
      <point x="264" y="445"/>
    </contour>
    <contour>
      <point x="888" y="103" type="curve"/>
      <point x="824" y="103"/>
      <point x="774" y="142"/>
      <point x="774" y="345" type="curve"/>
      <point x="774" y="366"/>
      <point x="789" y="403"/>
      <point x="760" y="400" type="curve"/>
      <point x="731" y="396"/>
      <point x="710" y="393"/>
      <point x="698" y="393" type="curve"/>
      <point x="687" y="394"/>
      <point x="683" y="395"/>
      <point x="683" y="376" type="curve"/>
      <point x="683" y="357"/>
      <point x="681" y="287"/>
      <point x="681" y="247" type="curve"/>
      <point x="681" y="205"/>
      <point x="699" y="-7"/>
      <point x="920" y="-7" type="curve"/>
      <point x="1143" y="-7"/>
      <point x="1105" y="331"/>
      <point x="1109" y="374" type="curve"/>
      <point x="1111" y="680" type="line"/>
      <point x="1112" y="707"/>
      <point x="1110" y="712"/>
      <point x="1087" y="713" type="curve"/>
      <point x="1082" y="714"/>
      <point x="1076" y="714"/>
      <point x="1071" y="714" type="curve"/>
      <point x="1054" y="714"/>
      <point x="1040" y="711"/>
      <point x="1028" y="710" type="curve"/>
      <point x="1015" y="710"/>
      <point x="1000" y="709"/>
      <point x="1003" y="672" type="curve"/>
      <point x="1003" y="649"/>
      <point x="1002" y="611"/>
      <point x="1002" y="575" type="curve"/>
      <point x="1002" y="549"/>
      <point x="1003" y="524"/>
      <point x="1004" y="509" type="curve"/>
      <point x="1004" y="474"/>
      <point x="1001" y="278"/>
      <point x="1001" y="233" type="curve"/>
      <point x="1001" y="188"/>
      <point x="975" y="103"/>
    </contour>
  </outline>
</glyph>
<glyph name="uni0259" format="1">
  <advance width="482"/>
  <unicode hex="0259"/>
  <outline>
    <contour>
      <point x="194" y="433" type="curve"/>
      <point x="274" y="433"/>
      <point x="295" y="381"/>
      <point x="299" y="336" type="curve"/>
      <point x="207" y="329"/>
      <point x="80" y="316"/>
      <point x="41" y="316" type="curve"/>
      <point x="31" y="316"/>
      <point x="31" y="307"/>
      <point x="31" y="307" type="curve"/>
      <point x="31" y="188"/>
      <point x="43" y="-22"/>
      <point x="243" y="-22" type="curve"/>
      <point x="325" y="-22"/>
      <point x="457" y="36"/>
      <point x="457" y="279" type="curve"/>
      <point x="457" y="370"/>
      <point x="438" y="598"/>
      <point x="207" y="598" type="curve"/>
      <point x="128" y="598"/>
      <point x="62" y="570"/>
      <point x="37" y="544" type="curve"/>
      <point x="32" y="540"/>
      <point x="28" y="537"/>
      <point x="26" y="533" type="curve"/>
      <point x="25" y="531"/>
      <point x="34" y="508"/>
      <point x="44" y="483" type="curve"/>
      <point x="52" y="470"/>
      <point x="54" y="454"/>
      <point x="60" y="443" type="curve"/>
      <point x="73" y="410"/>
      <point x="78" y="402"/>
      <point x="88" y="402" type="curve"/>
      <point x="127" y="421"/>
      <point x="146" y="433"/>
    </contour>
    <contour>
      <point x="238" y="154" type="curve"/>
      <point x="209" y="154"/>
      <point x="189" y="185"/>
      <point x="183" y="268" type="curve"/>
      <point x="299" y="278" type="line"/>
      <point x="295" y="202"/>
      <point x="276" y="154"/>
    </contour>
  </outline>
</glyph>
<glyph name="primemod" format="1">
  <advance width="114"/>
  <unicode hex="02B9"/>
  <outline>
    <contour>
      <point x="36" y="451" type="curve" smooth="yes"/>
      <point x="63" y="451"/>
      <point x="76" y="459"/>
      <point x="79" y="477" type="curve" smooth="yes"/>
      <point x="87" y="524"/>
      <point x="92" y="569"/>
      <point x="97" y="608" type="curve" smooth="yes"/>
      <point x="104" y="665"/>
      <point x="114" y="709"/>
      <point x="114" y="724" type="curve" smooth="yes"/>
      <point x="114" y="739"/>
      <point x="111" y="744"/>
      <point x="93" y="744" type="curve" smooth="yes"/>
      <point x="81" y="744"/>
      <point x="63" y="746"/>
      <point x="51" y="746" type="curve" smooth="yes"/>
      <point x="24" y="746"/>
      <point x="21" y="738"/>
      <point x="20" y="721" type="curve" smooth="yes"/>
      <point x="17" y="672"/>
      <point x="14" y="624"/>
      <point x="11" y="575" type="curve" smooth="yes"/>
      <point x="9" y="543"/>
      <point x="3" y="510"/>
      <point x="0" y="478" type="curve" smooth="yes"/>
      <point x="-2" y="457"/>
      <point x="6" y="451"/>
    </contour>
  </outline>
</glyph>
<glyph name="apostrophemod" format="1">
  <advance width="150"/>
  <unicode hex="02BC"/>
  <outline>
    <contour>
      <point x="47" y="702" type="curve" smooth="yes"/>
      <point x="64" y="702"/>
      <point x="74" y="702"/>
      <point x="77" y="703" type="curve" smooth="yes"/>
      <point x="82" y="705"/>
      <point x="84" y="713"/>
      <point x="85" y="716" type="curve" smooth="yes"/>
      <point x="86" y="719"/>
      <point x="88" y="727"/>
      <point x="90" y="738" type="curve" smooth="yes"/>
      <point x="91" y="743"/>
      <point x="97" y="757"/>
      <point x="104" y="780" type="curve" smooth="yes"/>
      <point x="116" y="818" type="line" smooth="yes"/>
      <point x="120" y="831"/>
      <point x="125" y="841"/>
      <point x="126" y="848" type="curve"/>
      <point x="129" y="853"/>
      <point x="130" y="857"/>
      <point x="131" y="865" type="curve"/>
      <point x="135" y="872"/>
      <point x="131" y="873"/>
      <point x="126" y="873" type="curve"/>
      <point x="70" y="873" type="line" smooth="yes"/>
      <point x="63" y="873"/>
      <point x="56" y="870"/>
      <point x="55" y="863" type="curve"/>
      <point x="48" y="843" type="line"/>
      <point x="40" y="811" type="line"/>
      <point x="9" y="713" type="line"/>
      <point x="9" y="708"/>
      <point x="7" y="703"/>
      <point x="15" y="703" type="curve"/>
      <point x="20" y="702"/>
      <point x="31" y="702"/>
    </contour>
    <contour>
      <point x="76" y="710" type="move" name="_top"/>
    </contour>
    <contour>
      <point x="76" y="900" type="move" name="top"/>
    </contour>
  </outline>
</glyph>
<glyph name="caron" format="1">
  <advance width="352"/>
  <unicode hex="02C7"/>
  <outline>
    <contour>
      <point x="166" y="606" type="curve" smooth="yes"/>
      <point x="170" y="606"/>
      <point x="173" y="606"/>
      <point x="177" y="607" type="curve"/>
      <point x="182" y="607"/>
      <point x="188" y="608"/>
      <point x="195" y="611" type="curve"/>
      <point x="206" y="614"/>
      <point x="224" y="624"/>
      <point x="247" y="637" type="curve"/>
      <point x="277" y="660"/>
      <point x="285" y="661"/>
      <point x="295" y="666" type="curve"/>
      <point x="321" y="683" type="line" smooth="yes"/>
      <point x="326" y="686"/>
      <point x="329" y="691"/>
      <point x="329" y="695" type="curve" smooth="yes"/>
      <point x="329" y="703"/>
      <point x="321" y="711"/>
      <point x="305" y="711" type="curve" smooth="yes"/>
      <point x="292" y="711"/>
      <point x="280" y="710"/>
      <point x="267" y="708" type="curve"/>
      <point x="239" y="700"/>
      <point x="225" y="696"/>
      <point x="209" y="687" type="curve" smooth="yes"/>
      <point x="202" y="683"/>
      <point x="187" y="676"/>
      <point x="164" y="666" type="curve"/>
      <point x="132" y="681" type="line"/>
      <point x="121" y="688"/>
      <point x="110" y="694"/>
      <point x="97" y="699" type="curve"/>
      <point x="70" y="706" type="line"/>
      <point x="59" y="710"/>
      <point x="50" y="713"/>
      <point x="43" y="713" type="curve" smooth="yes"/>
      <point x="35" y="713"/>
      <point x="30" y="709"/>
      <point x="27" y="698" type="curve" smooth="yes"/>
      <point x="23" y="685"/>
      <point x="53" y="669"/>
      <point x="61" y="664" type="curve" smooth="yes"/>
      <point x="88" y="647"/>
      <point x="101" y="640"/>
      <point x="128" y="621" type="curve"/>
      <point x="145" y="612"/>
      <point x="151" y="606"/>
    </contour>
  </outline>
</glyph>
<glyph name="dotaccent" format="1">
  <advance width="187"/>
  <unicode hex="02D9"/>
  <outline>
    <contour>
      <point x="91" y="599" type="curve" smooth="yes"/>
      <point x="117" y="599"/>
      <point x="157" y="621"/>
      <point x="157" y="665" type="curve" smooth="yes"/>
      <point x="157" y="700"/>
      <point x="120" y="719"/>
      <point x="87" y="719" type="curve" smooth="yes"/>
      <point x="55" y="719"/>
      <point x="30" y="689"/>
      <point x="30" y="660" type="curve" smooth="yes"/>
      <point x="30" y="623"/>
      <point x="63" y="599"/>
    </contour>
  </outline>
</glyph>
<glyph name="ring" format="1">
  <advance width="233"/>
  <unicode hex="02DA"/>
  <outline>
    <contour>
      <point x="112" y="587" type="curve" smooth="yes"/>
      <point x="125" y="587"/>
      <point x="138" y="587"/>
      <point x="149" y="592" type="curve" smooth="yes"/>
      <point x="183" y="607"/>
      <point x="192" y="649"/>
      <point x="192" y="659" type="curve" smooth="yes"/>
      <point x="192" y="672"/>
      <point x="186" y="731"/>
      <point x="114" y="731" type="curve" smooth="yes"/>
      <point x="79" y="731"/>
      <point x="59" y="713"/>
      <point x="52" y="693" type="curve" smooth="yes"/>
      <point x="48" y="682"/>
      <point x="43" y="669"/>
      <point x="42" y="655" type="curve"/>
      <point x="42" y="618"/>
      <point x="77" y="587"/>
    </contour>
    <contour>
      <point x="116" y="637" type="curve" smooth="yes"/>
      <point x="103" y="637"/>
      <point x="91" y="647"/>
      <point x="91" y="659" type="curve" smooth="yes"/>
      <point x="91" y="670"/>
      <point x="100" y="681"/>
      <point x="119" y="681" type="curve" smooth="yes"/>
      <point x="135" y="681"/>
      <point x="144" y="669"/>
      <point x="144" y="659" type="curve" smooth="yes"/>
      <point x="144" y="644"/>
      <point x="130" y="641"/>
      <point x="127" y="638" type="curve"/>
      <point x="126" y="638"/>
      <point x="121" y="637"/>
    </contour>
  </outline>
</glyph>
<glyph name="ogonek" format="1">
  <advance width="264"/>
  <unicode hex="02DB"/>
  <outline>
    <contour>
      <point x="107" y="4" type="curve"/>
      <point x="107" y="11"/>
      <point x="106" y="17"/>
      <point x="101" y="24" type="curve"/>
      <point x="80" y="38" type="line"/>
      <point x="65" y="14"/>
      <point x="56" y="-1"/>
      <point x="53" y="-8" type="curve"/>
      <point x="50" y="-15"/>
      <point x="45" y="-27"/>
      <point x="39" y="-45" type="curve"/>
      <point x="33" y="-63"/>
      <point x="30" y="-78"/>
      <point x="30" y="-91" type="curve"/>
      <point x="33" y="-158"/>
      <point x="63" y="-172"/>
      <point x="112" y="-171" type="curve"/>
      <point x="148" y="-169"/>
      <point x="220" y="-126"/>
      <point x="220" y="-99" type="curve"/>
      <point x="220" y="-89"/>
      <point x="208" y="-74"/>
      <point x="200" y="-74" type="curve"/>
      <point x="191" y="-74"/>
      <point x="182" y="-101"/>
      <point x="121" y="-97" type="curve"/>
      <point x="107" y="-96"/>
      <point x="101" y="-81"/>
      <point x="101" y="-56" type="curve"/>
      <point x="101" y="-50"/>
      <point x="101" y="-44"/>
      <point x="102" y="-38" type="curve"/>
      <point x="104" y="-19"/>
      <point x="107" y="-7"/>
    </contour>
    <contour>
      <point x="125" y="0" type="move" name="_bottom"/>
    </contour>
    <contour>
      <point x="119" y="-226" type="move" name="bottom"/>
    </contour>
  </outline>
</glyph>
<glyph name="tilde" format="1">
  <advance width="440"/>
  <unicode hex="02DC"/>
  <outline>
    <contour>
      <point x="329" y="617" type="curve" smooth="yes"/>
      <point x="380" y="617"/>
      <point x="385" y="637"/>
      <point x="385" y="646" type="curve" smooth="yes"/>
      <point x="385" y="649"/>
      <point x="385" y="656"/>
      <point x="385" y="661" type="curve" smooth="yes"/>
      <point x="385" y="668"/>
      <point x="385" y="679"/>
      <point x="383" y="686" type="curve" smooth="yes"/>
      <point x="382" y="690"/>
      <point x="380" y="691"/>
      <point x="376" y="691" type="curve" smooth="yes"/>
      <point x="368" y="691"/>
      <point x="355" y="672"/>
      <point x="329" y="671" type="curve" smooth="yes"/>
      <point x="301" y="670"/>
      <point x="285" y="675"/>
      <point x="257" y="682" type="curve" smooth="yes"/>
      <point x="229" y="689"/>
      <point x="194" y="704"/>
      <point x="142" y="704" type="curve" smooth="yes"/>
      <point x="122" y="704"/>
      <point x="100" y="696"/>
      <point x="84" y="689" type="curve" smooth="yes"/>
      <point x="62" y="680"/>
      <point x="57" y="672"/>
      <point x="55" y="664" type="curve"/>
      <point x="55" y="645" type="line"/>
      <point x="55" y="634"/>
      <point x="63" y="629"/>
      <point x="68" y="629" type="curve" smooth="yes"/>
      <point x="94" y="629"/>
      <point x="119" y="648"/>
      <point x="151" y="648" type="curve" smooth="yes"/>
      <point x="188" y="648"/>
      <point x="205" y="642"/>
      <point x="239" y="632" type="curve" smooth="yes"/>
      <point x="274" y="622"/>
      <point x="290" y="617"/>
    </contour>
  </outline>
</glyph>
<glyph name="gravecomb" format="1">
  <advance width="210"/>
  <unicode hex="0300"/>
  <outline>
    <component base="grave" xOffset="-19"/>
    <contour>
      <point x="125" y="582" type="move" name="_top"/>
    </contour>
    <contour>
      <point x="125" y="710" type="move" name="top"/>
    </contour>
  </outline>
</glyph>
<glyph name="circumflexcomb" format="1">
  <advance width="302"/>
  <unicode hex="0302"/>
  <outline>
    <component base="circumflex" xOffset="-28"/>
    <contour>
      <point x="151" y="582" type="move" name="_top"/>
    </contour>
    <contour>
      <point x="151" y="713" type="move" name="top"/>
    </contour>
  </outline>
</glyph>
<glyph name="uni0302" format="1">
  <advance width="0"/>
  <unicode hex="0302"/>
  <outline>
    <contour>
      <point x="110" y="810" type="curve"/>
      <point x="80" y="787"/>
      <point x="72" y="786"/>
      <point x="62" y="781" type="curve"/>
      <point x="35" y="764" type="line" smooth="yes"/>
      <point x="30" y="761"/>
      <point x="28" y="756"/>
      <point x="28" y="752" type="curve"/>
      <point x="28" y="744"/>
      <point x="36" y="736"/>
      <point x="52" y="736" type="curve"/>
      <point x="65" y="736"/>
      <point x="77" y="737"/>
      <point x="90" y="739" type="curve"/>
      <point x="118" y="747"/>
      <point x="132" y="752"/>
      <point x="147" y="760" type="curve"/>
      <point x="193" y="781" type="line"/>
      <point x="225" y="766" type="line"/>
      <point x="236" y="759"/>
      <point x="247" y="753"/>
      <point x="260" y="748" type="curve"/>
      <point x="287" y="741" type="line"/>
      <point x="298" y="737"/>
      <point x="307" y="734"/>
      <point x="314" y="734" type="curve"/>
      <point x="322" y="734"/>
      <point x="327" y="738"/>
      <point x="330" y="749" type="curve"/>
      <point x="334" y="762"/>
      <point x="304" y="778"/>
      <point x="296" y="783" type="curve"/>
      <point x="269" y="800"/>
      <point x="256" y="807"/>
      <point x="229" y="826" type="curve"/>
      <point x="212" y="835"/>
      <point x="206" y="841"/>
      <point x="191" y="841" type="curve"/>
      <point x="187" y="841"/>
      <point x="184" y="841"/>
      <point x="180" y="840" type="curve"/>
      <point x="175" y="840"/>
      <point x="169" y="839"/>
      <point x="162" y="836" type="curve"/>
      <point x="151" y="833"/>
      <point x="133" y="823"/>
    </contour>
    <contour>
      <point x="180" y="710" type="move" name="_top"/>
    </contour>
    <contour>
      <point x="180" y="900" type="move" name="top"/>
    </contour>
  </outline>
</glyph>
<glyph name="brevecomb" format="1">
  <advance width="298"/>
  <unicode hex="0306"/>
  <outline>
    <component base="breve" xOffset="-30"/>
    <contour>
      <point x="149" y="582" type="move" name="_top"/>
    </contour>
    <contour>
      <point x="149" y="710" type="move" name="top"/>
    </contour>
  </outline>
</glyph>
<glyph name="dblgravecomb" format="1">
  <advance width="406"/>
  <unicode hex="030F"/>
  <outline>
    <contour>
      <point x="365" y="607" type="curve" smooth="yes"/>
      <point x="372" y="607"/>
      <point x="378" y="609"/>
      <point x="386" y="614" type="curve"/>
      <point x="395" y="617"/>
      <point x="406" y="624"/>
      <point x="406" y="636" type="curve" smooth="yes"/>
      <point x="406" y="639"/>
      <point x="405" y="642"/>
      <point x="404" y="646" type="curve" smooth="yes"/>
      <point x="402" y="653"/>
      <point x="364" y="668"/>
      <point x="354" y="671" type="curve"/>
      <point x="340" y="679"/>
      <point x="334" y="676"/>
      <point x="293" y="694" type="curve"/>
      <point x="271" y="702" type="line"/>
      <point x="259" y="706"/>
      <point x="244" y="708"/>
      <point x="236" y="709" type="curve" smooth="yes"/>
      <point x="228" y="710"/>
      <point x="221" y="711"/>
      <point x="216" y="711" type="curve" smooth="yes"/>
      <point x="202" y="711"/>
      <point x="195" y="705"/>
      <point x="199" y="683" type="curve"/>
      <point x="204" y="666"/>
      <point x="237" y="653"/>
      <point x="248" y="649" type="curve" smooth="yes"/>
      <point x="282" y="637"/>
      <point x="298" y="631"/>
      <point x="333" y="616" type="curve"/>
      <point x="347" y="611"/>
      <point x="356" y="607"/>
    </contour>
    <contour>
      <point x="167" y="607" type="curve" smooth="yes"/>
      <point x="174" y="607"/>
      <point x="180" y="609"/>
      <point x="188" y="614" type="curve"/>
      <point x="197" y="617"/>
      <point x="208" y="624"/>
      <point x="208" y="636" type="curve" smooth="yes"/>
      <point x="208" y="639"/>
      <point x="207" y="642"/>
      <point x="206" y="646" type="curve" smooth="yes"/>
      <point x="204" y="653"/>
      <point x="166" y="668"/>
      <point x="156" y="671" type="curve"/>
      <point x="142" y="679"/>
      <point x="136" y="676"/>
      <point x="95" y="694" type="curve"/>
      <point x="73" y="702" type="line"/>
      <point x="61" y="706"/>
      <point x="46" y="708"/>
      <point x="38" y="709" type="curve" smooth="yes"/>
      <point x="30" y="710"/>
      <point x="23" y="711"/>
      <point x="18" y="711" type="curve" smooth="yes"/>
      <point x="4" y="711"/>
      <point x="-3" y="705"/>
      <point x="1" y="683" type="curve"/>
      <point x="6" y="666"/>
      <point x="39" y="653"/>
      <point x="50" y="649" type="curve" smooth="yes"/>
      <point x="84" y="637"/>
      <point x="101" y="632"/>
      <point x="135" y="616" type="curve"/>
      <point x="149" y="611"/>
      <point x="158" y="607"/>
    </contour>
    <contour>
      <point x="223" y="582" type="move" name="_top"/>
    </contour>
    <contour>
      <point x="223" y="711" type="move" name="top"/>
    </contour>
  </outline>
</glyph>
<glyph name="ogonekcomb" format="1">
  <advance width="168"/>
  <unicode hex="0328"/>
  <outline>
    <component base="ogonek" xOffset="-32"/>
    <contour>
      <point x="149" y="0" type="move" name="_ogonek"/>
    </contour>
  </outline>
</glyph>
<glyph name="endash" format="1">
  <advance width="597"/>
  <unicode hex="2013"/>
  <outline>
    <contour>
      <point x="86" y="317" type="curve"/>
      <point x="102" y="320"/>
      <point x="184" y="321"/>
      <point x="206" y="321" type="curve" smooth="yes"/>
      <point x="298" y="321" type="line" smooth="yes"/>
      <point x="341" y="321"/>
      <point x="371" y="320"/>
      <point x="388" y="319" type="curve" smooth="yes"/>
      <point x="439" y="317" type="line"/>
      <point x="480" y="317" type="line" smooth="yes"/>
      <point x="523" y="317"/>
      <point x="531" y="321"/>
      <point x="531" y="334" type="curve" smooth="yes"/>
      <point x="531" y="388" type="line" smooth="yes"/>
      <point x="531" y="401"/>
      <point x="532" y="411"/>
      <point x="489" y="408" type="curve"/>
      <point x="94" y="408" type="line" smooth="yes"/>
      <point x="73" y="408"/>
      <point x="68" y="400"/>
      <point x="68" y="384" type="curve" smooth="yes"/>
      <point x="68" y="334" type="line" smooth="yes"/>
      <point x="68" y="325"/>
      <point x="67" y="317"/>
    </contour>
  </outline>
</glyph>
<glyph name="quoteleft" format="1">
  <advance width="212"/>
  <unicode hex="2018"/>
  <outline>
    <contour>
      <point x="113" y="446" type="curve" smooth="yes"/>
      <point x="147" y="446"/>
      <point x="184" y="470"/>
      <point x="184" y="499" type="curve" smooth="yes"/>
      <point x="184" y="538"/>
      <point x="182" y="568"/>
      <point x="136" y="582" type="curve" smooth="yes"/>
      <point x="127" y="585"/>
      <point x="120" y="592"/>
      <point x="120" y="616" type="curve" smooth="yes"/>
      <point x="120" y="624"/>
      <point x="120" y="633"/>
      <point x="122" y="645" type="curve" smooth="yes"/>
      <point x="129" y="685"/>
      <point x="160" y="701"/>
      <point x="163" y="718" type="curve"/>
      <point x="163" y="723"/>
      <point x="145" y="730"/>
      <point x="126" y="741" type="curve" smooth="yes"/>
      <point x="122" y="744"/>
      <point x="117" y="746"/>
      <point x="113" y="746" type="curve" smooth="yes"/>
      <point x="109" y="746"/>
      <point x="106" y="744"/>
      <point x="102" y="741" type="curve"/>
      <point x="79" y="708"/>
      <point x="61" y="675"/>
      <point x="48" y="641" type="curve"/>
      <point x="33" y="597"/>
      <point x="35" y="552"/>
      <point x="35" y="520" type="curve"/>
      <point x="42" y="461"/>
      <point x="77" y="446"/>
    </contour>
  </outline>
</glyph>
<glyph name="quoteright" format="1">
  <advance width="199"/>
  <unicode hex="2019"/>
  <outline>
    <contour>
      <point x="92" y="449" type="curve" smooth="yes"/>
      <point x="95" y="449"/>
      <point x="98" y="450"/>
      <point x="100" y="453" type="curve" smooth="yes"/>
      <point x="123" y="486"/>
      <point x="140" y="520"/>
      <point x="153" y="554" type="curve"/>
      <point x="168" y="599"/>
      <point x="166" y="645"/>
      <point x="166" y="677" type="curve"/>
      <point x="159" y="737"/>
      <point x="124" y="752"/>
      <point x="91" y="752" type="curve" smooth="yes"/>
      <point x="57" y="752"/>
      <point x="21" y="727"/>
      <point x="21" y="698" type="curve" smooth="yes"/>
      <point x="21" y="680"/>
      <point x="23" y="666"/>
      <point x="28" y="656" type="curve" smooth="yes"/>
      <point x="33" y="646"/>
      <point x="48" y="634"/>
      <point x="73" y="620" type="curve" smooth="yes"/>
      <point x="88" y="612"/>
      <point x="96" y="604"/>
      <point x="96" y="581" type="curve" smooth="yes"/>
      <point x="96" y="573"/>
      <point x="95" y="563"/>
      <point x="93" y="551" type="curve" smooth="yes"/>
      <point x="84" y="512"/>
      <point x="55" y="492"/>
      <point x="53" y="477" type="curve"/>
      <point x="54" y="474"/>
      <point x="76" y="449"/>
    </contour>
  </outline>
</glyph>
<glyph name="bullet" format="1">
  <advance width="289"/>
  <unicode hex="2022"/>
  <outline>
    <contour>
      <point x="45" y="395" type="curve"/>
      <point x="45" y="346"/>
      <point x="54" y="264"/>
      <point x="147" y="264" type="curve"/>
      <point x="193" y="264"/>
      <point x="245" y="276"/>
      <point x="245" y="363" type="curve"/>
      <point x="244" y="441"/>
      <point x="203" y="477"/>
      <point x="143" y="477" type="curve"/>
      <point x="93" y="477"/>
      <point x="46" y="445"/>
    </contour>
  </outline>
</glyph>
<glyph name="second" format="1">
  <advance width="304"/>
  <unicode hex="2033"/>
  <outline>
    <contour>
      <point x="211" y="451" type="curve" smooth="yes"/>
      <point x="238" y="451"/>
      <point x="246" y="459"/>
      <point x="249" y="477" type="curve" smooth="yes"/>
      <point x="257" y="524"/>
      <point x="266" y="550"/>
      <point x="271" y="589" type="curve" smooth="yes"/>
      <point x="278" y="646"/>
      <point x="294" y="709"/>
      <point x="294" y="724" type="curve" smooth="yes"/>
      <point x="294" y="739"/>
      <point x="288" y="746"/>
      <point x="270" y="746" type="curve" smooth="yes"/>
      <point x="258" y="746"/>
      <point x="243" y="745"/>
      <point x="231" y="745" type="curve" smooth="yes"/>
      <point x="204" y="745"/>
      <point x="201" y="738"/>
      <point x="200" y="721" type="curve" smooth="yes"/>
      <point x="197" y="672"/>
      <point x="192" y="654"/>
      <point x="189" y="605" type="curve" smooth="yes"/>
      <point x="187" y="573"/>
      <point x="183" y="510"/>
      <point x="180" y="478" type="curve" smooth="yes"/>
      <point x="178" y="457"/>
      <point x="181" y="451"/>
    </contour>
    <contour>
      <point x="76" y="451" type="curve" smooth="yes"/>
      <point x="103" y="451"/>
      <point x="116" y="459"/>
      <point x="119" y="477" type="curve" smooth="yes"/>
      <point x="127" y="524"/>
      <point x="135" y="599"/>
      <point x="140" y="638" type="curve" smooth="yes"/>
      <point x="147" y="695"/>
      <point x="154" y="709"/>
      <point x="154" y="724" type="curve" smooth="yes"/>
      <point x="154" y="739"/>
      <point x="151" y="744"/>
      <point x="133" y="744" type="curve" smooth="yes"/>
      <point x="121" y="744"/>
      <point x="103" y="746"/>
      <point x="91" y="746" type="curve" smooth="yes"/>
      <point x="64" y="746"/>
      <point x="61" y="738"/>
      <point x="60" y="721" type="curve" smooth="yes"/>
      <point x="57" y="672"/>
      <point x="54" y="624"/>
      <point x="51" y="575" type="curve" smooth="yes"/>
      <point x="49" y="543"/>
      <point x="45" y="496"/>
      <point x="45" y="476" type="curve" smooth="yes"/>
      <point x="45" y="455"/>
      <point x="50" y="451"/>
    </contour>
  </outline>
</glyph>
<glyph name="fraction" format="1">
  <advance width="467"/>
  <unicode hex="2044"/>
  <outline>
    <contour>
      <point x="462" y="697" type="curve"/>
      <point x="462" y="701"/>
      <point x="461" y="704"/>
      <point x="459" y="706" type="curve"/>
      <point x="446" y="712"/>
      <point x="436" y="714"/>
      <point x="428" y="714" type="curve"/>
      <point x="422" y="714"/>
      <point x="418" y="713"/>
      <point x="415" y="713" type="curve"/>
      <point x="403" y="709"/>
      <point x="384" y="685"/>
      <point x="372" y="660" type="curve"/>
      <point x="361" y="635"/>
      <point x="325" y="560"/>
      <point x="299" y="520" type="curve"/>
      <point x="278" y="484"/>
      <point x="179" y="309"/>
      <point x="146" y="244" type="curve"/>
      <point x="115" y="176"/>
      <point x="39" y="47"/>
      <point x="23" y="15" type="curve"/>
      <point x="14" y="0"/>
      <point x="12" y="-1"/>
      <point x="5" y="-16" type="curve"/>
      <point x="2" y="-24"/>
      <point x="4" y="-30"/>
      <point x="13" y="-35" type="curve"/>
      <point x="22" y="-37"/>
      <point x="33" y="-39"/>
      <point x="44" y="-39" type="curve"/>
      <point x="51" y="-39"/>
      <point x="59" y="-38"/>
      <point x="64" y="-36" type="curve"/>
      <point x="80" y="-24"/>
      <point x="84" y="-22"/>
      <point x="92" y="1" type="curve"/>
      <point x="100" y="23"/>
      <point x="194" y="189"/>
      <point x="213" y="226" type="curve"/>
      <point x="237" y="261"/>
      <point x="316" y="419"/>
      <point x="343" y="470" type="curve"/>
      <point x="367" y="520"/>
      <point x="428" y="624"/>
      <point x="441" y="645" type="curve"/>
      <point x="448" y="655"/>
      <point x="462" y="682"/>
    </contour>
  </outline>
</glyph>
<glyph name="commercialMinusSign" format="1">
  <advance width="503"/>
  <unicode hex="2052"/>
  <outline>
    <contour>
      <point x="116" y="-39" type="curve" smooth="yes"/>
      <point x="122" y="-39"/>
      <point x="126" y="-38"/>
      <point x="129" y="-38" type="curve"/>
      <point x="140" y="-34"/>
      <point x="155" y="-10"/>
      <point x="163" y="15" type="curve" smooth="yes"/>
      <point x="171" y="39"/>
      <point x="192" y="115"/>
      <point x="211" y="155" type="curve" smooth="yes"/>
      <point x="225" y="191"/>
      <point x="294" y="366"/>
      <point x="315" y="431" type="curve" smooth="yes"/>
      <point x="334" y="499"/>
      <point x="387" y="628"/>
      <point x="398" y="660" type="curve"/>
      <point x="404" y="675"/>
      <point x="406" y="676"/>
      <point x="410" y="691" type="curve" smooth="yes"/>
      <point x="412" y="699"/>
      <point x="409" y="705"/>
      <point x="399" y="710" type="curve"/>
      <point x="390" y="712"/>
      <point x="378" y="714"/>
      <point x="367" y="714" type="curve" smooth="yes"/>
      <point x="360" y="714"/>
      <point x="352" y="713"/>
      <point x="348" y="711" type="curve"/>
      <point x="334" y="699"/>
      <point x="324" y="667"/>
      <point x="316" y="644" type="curve" smooth="yes"/>
      <point x="308" y="622"/>
      <point x="255" y="486"/>
      <point x="245" y="449" type="curve" smooth="yes"/>
      <point x="227" y="384"/>
      <point x="176" y="256"/>
      <point x="158" y="205" type="curve" smooth="yes"/>
      <point x="143" y="155"/>
      <point x="99" y="51"/>
      <point x="91" y="30" type="curve" smooth="yes"/>
      <point x="87" y="20"/>
      <point x="75" y="-7"/>
      <point x="79" y="-22" type="curve" smooth="yes"/>
      <point x="80" y="-26"/>
      <point x="81" y="-29"/>
      <point x="84" y="-31" type="curve"/>
      <point x="98" y="-37"/>
      <point x="108" y="-39"/>
    </contour>
    <contour>
      <point x="384" y="-3" type="curve" smooth="yes"/>
      <point x="424" y="-3"/>
      <point x="440" y="4"/>
      <point x="440" y="30" type="curve" smooth="yes"/>
      <point x="440" y="44"/>
      <point x="443" y="75"/>
      <point x="443" y="91" type="curve" smooth="yes"/>
      <point x="443" y="133"/>
      <point x="425" y="146"/>
      <point x="405" y="146" type="curve" smooth="yes"/>
      <point x="371" y="146"/>
      <point x="359" y="144"/>
      <point x="338" y="144" type="curve" smooth="yes"/>
      <point x="315" y="144"/>
      <point x="299" y="136"/>
      <point x="299" y="105" type="curve" smooth="yes"/>
      <point x="299" y="98"/>
      <point x="296" y="58"/>
      <point x="296" y="50" type="curve" smooth="yes"/>
      <point x="296" y="14"/>
      <point x="306" y="-1"/>
      <point x="328" y="-1" type="curve" smooth="yes"/>
      <point x="345" y="-1"/>
      <point x="354" y="-3"/>
    </contour>
    <contour>
      <point x="153" y="559" type="curve" smooth="yes"/>
      <point x="195" y="559"/>
      <point x="208" y="577"/>
      <point x="208" y="597" type="curve" smooth="yes"/>
      <point x="208" y="631"/>
      <point x="206" y="643"/>
      <point x="206" y="664" type="curve" smooth="yes"/>
      <point x="206" y="687"/>
      <point x="185" y="700"/>
      <point x="153" y="705" type="curve" smooth="yes"/>
      <point x="147" y="706"/>
      <point x="120" y="706"/>
      <point x="112" y="706" type="curve" smooth="yes"/>
      <point x="76" y="706"/>
      <point x="62" y="696"/>
      <point x="62" y="674" type="curve" smooth="yes"/>
      <point x="62" y="657"/>
      <point x="60" y="648"/>
      <point x="60" y="618" type="curve" smooth="yes"/>
      <point x="60" y="578"/>
      <point x="66" y="562"/>
      <point x="92" y="562" type="curve" smooth="yes"/>
      <point x="106" y="562"/>
      <point x="137" y="559"/>
    </contour>
  </outline>
</glyph>
<glyph name="foursuperior" format="1">
  <advance width="342"/>
  <unicode hex="2074"/>
  <outline>
    <contour>
      <point x="219" y="358" type="curve" smooth="yes"/>
      <point x="223" y="358"/>
      <point x="253" y="359"/>
      <point x="261" y="359" type="curve" smooth="yes"/>
      <point x="270" y="359"/>
      <point x="271" y="363"/>
      <point x="271" y="369" type="curve" smooth="yes"/>
      <point x="271" y="384"/>
      <point x="271" y="390"/>
      <point x="271" y="385" type="curve" smooth="yes"/>
      <point x="271" y="373"/>
      <point x="274" y="429"/>
      <point x="274" y="441" type="curve" smooth="yes"/>
      <point x="274" y="448"/>
      <point x="274" y="455"/>
      <point x="284" y="455" type="curve" smooth="yes"/>
      <point x="292" y="455"/>
      <point x="300" y="456"/>
      <point x="303" y="456" type="curve" smooth="yes"/>
      <point x="306" y="456" type="line" smooth="yes"/>
      <point x="309" y="456"/>
      <point x="312" y="458"/>
      <point x="312" y="462" type="curve" smooth="yes"/>
      <point x="312" y="463"/>
      <point x="311" y="463"/>
      <point x="311" y="465" type="curve" smooth="yes"/>
      <point x="311" y="472"/>
      <point x="312" y="493"/>
      <point x="306" y="493" type="curve" smooth="yes"/>
      <point x="297" y="493"/>
      <point x="285" y="491"/>
      <point x="282" y="491" type="curve" smooth="yes"/>
      <point x="277" y="491"/>
      <point x="274" y="494"/>
      <point x="274" y="511" type="curve" smooth="yes"/>
      <point x="274" y="666"/>
      <point x="278" y="676"/>
      <point x="278" y="707" type="curve" smooth="yes"/>
      <point x="278" y="720"/>
      <point x="273" y="722"/>
      <point x="234" y="722" type="curve" smooth="yes"/>
      <point x="209" y="722"/>
      <point x="207" y="721"/>
      <point x="201" y="712" type="curve" smooth="yes"/>
      <point x="196" y="706"/>
      <point x="180" y="681"/>
      <point x="139" y="622" type="curve" smooth="yes"/>
      <point x="107" y="580"/>
      <point x="87" y="551"/>
      <point x="62" y="522" type="curve" smooth="yes"/>
      <point x="32" y="486"/>
      <point x="29" y="480"/>
      <point x="29" y="468" type="curve" smooth="yes"/>
      <point x="29" y="458"/>
      <point x="30" y="451"/>
      <point x="42" y="451" type="curve" smooth="yes"/>
      <point x="53" y="451"/>
      <point x="86" y="453"/>
      <point x="109" y="453" type="curve" smooth="yes"/>
      <point x="120" y="453"/>
      <point x="124" y="452"/>
      <point x="135" y="452" type="curve" smooth="yes"/>
      <point x="157" y="452"/>
      <point x="188" y="455"/>
      <point x="195" y="455" type="curve" smooth="yes"/>
      <point x="202" y="455"/>
      <point x="207" y="452"/>
      <point x="207" y="440" type="curve" smooth="yes"/>
      <point x="207" y="414"/>
      <point x="205" y="407"/>
      <point x="205" y="379" type="curve" smooth="yes"/>
      <point x="205" y="360"/>
      <point x="213" y="358"/>
    </contour>
    <contour>
      <point x="113" y="487" type="curve" smooth="yes"/>
      <point x="105" y="487"/>
      <point x="86" y="488"/>
      <point x="81" y="488" type="curve"/>
      <point x="81" y="496"/>
      <point x="122" y="544"/>
      <point x="154" y="588" type="curve" smooth="yes"/>
      <point x="212" y="668" type="line"/>
      <point x="216" y="667" type="line"/>
      <point x="216" y="659"/>
      <point x="207" y="588"/>
      <point x="207" y="569" type="curve" smooth="yes"/>
      <point x="207" y="559"/>
      <point x="207" y="541"/>
      <point x="207" y="523" type="curve" smooth="yes"/>
      <point x="207" y="500"/>
      <point x="206" y="489"/>
      <point x="192" y="489" type="curve" smooth="yes"/>
      <point x="163" y="489" type="line" smooth="yes"/>
      <point x="129" y="489"/>
      <point x="119" y="487"/>
    </contour>
  </outline>
</glyph>
<glyph name="naira" format="1">
  <advance width="676"/>
  <unicode hex="20A6"/>
  <outline>
    <contour>
      <point x="91" y="-12" type="curve" smooth="yes"/>
      <point x="118" y="-12"/>
      <point x="124" y="-10"/>
      <point x="148" y="-10" type="curve" smooth="yes"/>
      <point x="172" y="-10"/>
      <point x="204" y="-6"/>
      <point x="215" y="-6" type="curve" smooth="yes"/>
      <point x="225" y="-6"/>
      <point x="234" y="-4"/>
      <point x="234" y="10" type="curve" smooth="yes"/>
      <point x="234" y="12" type="line" smooth="yes"/>
      <point x="234" y="28"/>
      <point x="230" y="79"/>
      <point x="230" y="108" type="curve" smooth="yes"/>
      <point x="230" y="138"/>
      <point x="226" y="280"/>
      <point x="226" y="349" type="curve"/>
      <point x="242" y="349"/>
      <point x="259" y="350"/>
      <point x="275" y="350" type="curve" smooth="yes"/>
      <point x="297" y="350"/>
      <point x="320" y="348"/>
      <point x="342" y="348" type="curve"/>
      <point x="367" y="293"/>
      <point x="393" y="234"/>
      <point x="405" y="212" type="curve"/>
      <point x="424" y="172"/>
      <point x="479" y="34"/>
      <point x="487" y="16" type="curve"/>
      <point x="498" y="-3"/>
      <point x="499" y="-3"/>
      <point x="510" y="-4" type="curve" smooth="yes"/>
      <point x="518" y="-5"/>
      <point x="532" y="-3"/>
      <point x="544" y="-3" type="curve" smooth="yes"/>
      <point x="569" y="-3"/>
      <point x="573" y="-3"/>
      <point x="576" y="-4" type="curve" smooth="yes"/>
      <point x="585" y="-7"/>
      <point x="595" y="-4"/>
      <point x="595" y="14" type="curve" smooth="yes"/>
      <point x="595" y="16" type="line" smooth="yes"/>
      <point x="595" y="35"/>
      <point x="590" y="147"/>
      <point x="590" y="191" type="curve" smooth="yes"/>
      <point x="590" y="222"/>
      <point x="586" y="283"/>
      <point x="585" y="336" type="curve"/>
      <point x="609" y="335"/>
      <point x="662" y="331"/>
      <point x="672" y="331" type="curve" smooth="yes"/>
      <point x="681" y="331"/>
      <point x="684" y="339"/>
      <point x="684" y="353" type="curve" smooth="yes"/>
      <point x="684" y="360"/>
      <point x="686" y="370"/>
      <point x="686" y="375" type="curve" smooth="yes"/>
      <point x="686" y="380"/>
      <point x="685" y="390"/>
      <point x="677" y="390" type="curve" smooth="yes"/>
      <point x="664" y="390"/>
      <point x="629" y="393"/>
      <point x="585" y="393" type="curve"/>
      <point x="585" y="452"/>
      <point x="588" y="672"/>
      <point x="588" y="688" type="curve" smooth="yes"/>
      <point x="588" y="696"/>
      <point x="590" y="703"/>
      <point x="590" y="708" type="curve" smooth="yes"/>
      <point x="590" y="714"/>
      <point x="588" y="717"/>
      <point x="577" y="717" type="curve" smooth="yes"/>
      <point x="558" y="717"/>
      <point x="534" y="717"/>
      <point x="522" y="719" type="curve" smooth="yes"/>
      <point x="517" y="720"/>
      <point x="509" y="722"/>
      <point x="502" y="722" type="curve" smooth="yes"/>
      <point x="494" y="722"/>
      <point x="487" y="719"/>
      <point x="487" y="707" type="curve"/>
      <point x="483" y="611" type="line"/>
      <point x="483" y="574"/>
      <point x="485" y="500"/>
      <point x="485" y="467" type="curve"/>
      <point x="484" y="448"/>
      <point x="484" y="423"/>
      <point x="483" y="395" type="curve"/>
      <point x="451" y="396" type="line" smooth="yes"/>
      <point x="434" y="396"/>
      <point x="413" y="394"/>
      <point x="396" y="395" type="curve" smooth="yes"/>
      <point x="377" y="396" type="line"/>
      <point x="349" y="458"/>
      <point x="313" y="536"/>
      <point x="297" y="570" type="curve" smooth="yes"/>
      <point x="273" y="621"/>
      <point x="243" y="688"/>
      <point x="235" y="704" type="curve" smooth="yes"/>
      <point x="227" y="719"/>
      <point x="215" y="724"/>
      <point x="186" y="724" type="curve" smooth="yes"/>
      <point x="158" y="724"/>
      <point x="157" y="723"/>
      <point x="141" y="723" type="curve" smooth="yes"/>
      <point x="135" y="723"/>
      <point x="125" y="725"/>
      <point x="115" y="725" type="curve" smooth="yes"/>
      <point x="102" y="725"/>
      <point x="89" y="721"/>
      <point x="87" y="698" type="curve" smooth="yes"/>
      <point x="84" y="659"/>
      <point x="84" y="620"/>
      <point x="84" y="580" type="curve" smooth="yes"/>
      <point x="84" y="553"/>
      <point x="78" y="469"/>
      <point x="73" y="401" type="curve"/>
      <point x="-10" y="404" type="line" smooth="yes"/>
      <point x="-19" y="404"/>
      <point x="-20" y="394"/>
      <point x="-20" y="387" type="curve" smooth="yes"/>
      <point x="-20" y="357"/>
      <point x="-20" y="348"/>
      <point x="-12" y="348" type="curve" smooth="yes"/>
      <point x="-4" y="348"/>
      <point x="11" y="351"/>
      <point x="23" y="351" type="curve" smooth="yes"/>
      <point x="37" y="351"/>
      <point x="53" y="350"/>
      <point x="63" y="350" type="curve" smooth="yes"/>
      <point x="69" y="350" type="line"/>
      <point x="67" y="322" type="line"/>
      <point x="62" y="277"/>
      <point x="60" y="158"/>
      <point x="60" y="101" type="curve"/>
      <point x="59" y="84"/>
      <point x="59" y="71"/>
      <point x="59" y="60" type="curve" smooth="yes"/>
      <point x="59" y="35"/>
      <point x="61" y="25"/>
      <point x="63" y="16" type="curve" smooth="yes"/>
      <point x="66" y="3"/>
      <point x="64" y="-12"/>
    </contour>
    <contour>
      <point x="489" y="170" type="line"/>
      <point x="458" y="231" type="line" smooth="yes"/>
      <point x="440" y="266"/>
      <point x="420" y="304"/>
      <point x="408" y="329" type="curve" smooth="yes"/>
      <point x="400" y="346" type="line"/>
      <point x="428" y="346"/>
      <point x="456" y="345"/>
      <point x="483" y="343" type="curve"/>
      <point x="487" y="228" type="line"/>
    </contour>
    <contour>
      <point x="225" y="401" type="curve"/>
      <point x="223" y="497" type="line"/>
      <point x="220" y="592" type="line"/>
      <point x="249" y="540" type="line" smooth="yes"/>
      <point x="265" y="511"/>
      <point x="283" y="476"/>
      <point x="294" y="453" type="curve" smooth="yes"/>
      <point x="318" y="401" type="line"/>
      <point x="242" y="401" type="line" smooth="yes"/>
      <point x="237" y="401"/>
      <point x="231" y="401"/>
    </contour>
  </outline>
</glyph>
